<svg width="41" height="37" viewBox="0 0 41 37" fill="none" xmlns="http://www.w3.org/2000/svg">
<path fill-rule="evenodd" clip-rule="evenodd" d="M12.5576 25.0233C9.22713 25.0233 6.03305 23.7051 3.67804 21.3588C1.32303 19.0124 0 15.83 0 12.5117C0 9.19337 1.32303 6.01098 3.67804 3.66458C5.83466 1.51586 8.69493 0.229395 11.7192 0.027892V0L12.5576 0L35.3374 0L31.5225 6.67289L12.5576 6.67289V6.67827C11.0048 6.67827 9.51563 7.29286 8.41764 8.38683C7.31964 9.48081 6.7028 10.9646 6.7028 12.5117C6.7028 14.0588 7.31964 15.5425 8.41764 16.6365C9.51563 17.7305 11.0048 18.3451 12.5576 18.3451H20.4802V25.0233H12.5576ZM40.5591 9.20232L31.323 9.20232V16.0041H36.8398L40.5591 9.20232ZM22.4891 16.0041L22.4891 36.4093L29.3158 25.1087V9.20232H23.2908H22.4891H12.8499V16.0041H22.4891Z" fill="url(#paint0_linear_4642_36915)"/>
<defs>
<linearGradient id="paint0_linear_4642_36915" x1="4.61812" y1="23.606" x2="40.479" y2="-0.121193" gradientUnits="userSpaceOnUse">
<stop stop-color="#FF41B3"/>
<stop offset="1" stop-color="#379FFF"/>
</linearGradient>
</defs>
</svg>
