<svg width="72" height="78" viewBox="0 0 72 78" fill="none" xmlns="http://www.w3.org/2000/svg">
<path d="M65.0438 15.6073C68.0825 17.1356 70 20.2464 70 23.6477V55.1613C70 58.6358 68 61.8 64.8615 63.2908L39.8615 75.1658C37.418 76.3264 34.582 76.3264 32.1385 75.1658L7.13849 63.2908C4.00002 61.8 2 58.6358 2 55.1613V23.6477C2 20.2464 3.91751 17.1356 6.95617 15.6073L31.9562 3.03381C34.5002 1.75429 37.4998 1.75429 40.0438 3.03381L65.0438 15.6073Z" fill="url(#paint0_linear_4778_23436)"/>
<path d="M70 39.3673V22.5C70 19.8486 68.502 17.4248 66.1305 16.239L39.1305 2.739C37.1598 1.75366 34.8402 1.75366 32.8695 2.739L5.8695 16.239C3.49802 17.4248 2 19.8486 2 22.5V56.2347C2 58.9428 3.56211 61.408 6.01096 62.5644L33.011 75.3144C34.9035 76.2081 37.0965 76.2081 38.989 75.3144L65.989 62.5644C68.4379 61.408 70 58.9428 70 56.2347V49.5" stroke="black" stroke-width="3" stroke-linecap="round"/>
<path d="M57.1292 24.3779C57.97 24.8036 58.5 25.6659 58.5 26.6084V52.0038C58.5 52.9666 57.9471 53.8439 57.0784 54.2593L37.0784 63.8218C36.3964 64.1478 35.6036 64.1478 34.9216 63.8218L14.9216 54.2593C14.0529 53.8439 13.5 52.9666 13.5 52.0038V26.6084C13.5 25.6659 14.03 24.8036 14.8708 24.3779L34.8708 14.2529C35.5807 13.8935 36.4193 13.8935 37.1292 14.2529L57.1292 24.3779Z" fill="white" stroke="black" stroke-width="3"/>
<path d="M20 45V33.5L28 45V33M33.5 45V39M39.5 33H33.5V39M33.5 39H39M43.5 33H47.75M52 33H47.75M47.75 33V45" stroke="black" stroke-width="3" stroke-linecap="round" stroke-linejoin="round"/>
<defs>
<linearGradient id="paint0_linear_4778_23436" x1="9.74257" y1="50.2747" x2="77.1493" y2="14.4529" gradientUnits="userSpaceOnUse">
<stop stop-color="#FF41B3"/>
<stop offset="1" stop-color="#379FFF"/>
</linearGradient>
</defs>
</svg>
