<svg width="82" height="72" viewBox="0 0 82 72" fill="none" xmlns="http://www.w3.org/2000/svg">
<path d="M73.9855 8.01169C72.0796 6.10581 69.8167 4.59393 67.3261 3.56242C64.8354 2.53092 62.1659 2 59.4699 2C56.774 2 54.1044 2.53092 51.6138 3.56242C49.1232 4.59393 46.8603 6.10581 44.9544 8.01169L40.999 11.9652L37.0436 8.01169C33.1938 4.16375 27.9725 2.00199 22.5281 2.00199C17.0837 2.00199 11.8623 4.16375 8.01253 8.01169C4.16277 11.8596 2 17.0786 2 22.5204C2 27.9622 4.16277 33.1811 8.01253 37.0291L10.0416 35H22.5281V37.0291C23.352 36.8527 25.1984 36.3 25.9919 35.5C26.9839 34.5 32.5 23.5 32.5 22C32.5 21.6439 32.3309 21.0623 32.1332 20.3825C31.4983 18.1985 30.5683 15 34 15C38.5 15 40 18.5 40 22C40 24.8 39.6667 28.5 39.5 30H52.5996C53.4795 30 54.3062 30.421 54.8237 31.1325C55.525 32.0968 55.525 33.4032 54.8237 34.3675L54 35.5C55.7331 36.6554 56.3816 38.8914 55.5356 40.7948L55 42H53C54.2265 43.9931 54.2265 46.5069 53 48.5H49L49.9518 50.0467C50.5946 51.0913 50.5946 52.4087 49.9518 53.4533C49.3603 54.4145 48.3125 55 47.1839 55H25.9919L40.999 70L70.0301 40.9826L73.9855 37.0291C75.8923 35.1241 77.4048 32.8623 78.4368 30.3728C79.4688 27.8834 80 25.2151 80 22.5204C80 19.8257 79.4688 17.1574 78.4368 14.668C77.4048 12.1785 75.8923 9.91668 73.9855 8.01169Z" fill="#FF41B3"/>
<path d="M8.01253 37.0291L11.9679 40.9826L22.5281 51.5378V37.0291V35H10.0416L8.01253 37.0291Z" fill="#379FFF"/>
<path d="M22.5281 51.5378L25.9919 55H47.1839C48.3125 55 49.3603 54.4145 49.9518 53.4533C50.5946 52.4087 50.5946 51.0913 49.9518 50.0467L49 48.5H53C54.2265 46.5069 54.2265 43.9931 53 42H55L55.5356 40.7948C56.3816 38.8914 55.7331 36.6554 54 35.5L54.8237 34.3675C55.525 33.4032 55.525 32.0968 54.8237 31.1325C54.3062 30.421 53.4795 30 52.5996 30H39.5C39.6667 28.5 40 24.8 40 22C40 18.5 38.5 15 34 15C30.5683 15 31.4983 18.1985 32.1332 20.3825C32.3309 21.0623 32.5 21.6439 32.5 22C32.5 23.5 26.9839 34.5 25.9919 35.5C25.1984 36.3 23.352 36.8527 22.5281 37.0291V51.5378Z" fill="white"/>
<path d="M8.01253 37.0291C4.16277 33.1811 2 27.9622 2 22.5204C2 17.0786 4.16277 11.8596 8.01253 8.01169C11.8623 4.16375 17.0837 2.00199 22.5281 2.00199C27.9725 2.00199 33.1938 4.16375 37.0436 8.01169L40.999 11.9652L44.9544 8.01169C46.8603 6.10581 49.1232 4.59393 51.6138 3.56242C54.1044 2.53092 56.774 2 59.4699 2C62.1659 2 64.8354 2.53092 67.3261 3.56242C69.8167 4.59393 72.0796 6.10581 73.9855 8.01169C75.8923 9.91668 77.4048 12.1785 78.4368 14.668C79.4688 17.1574 80 19.8257 80 22.5204C80 25.2151 79.4688 27.8834 78.4368 30.3728C77.4048 32.8623 75.8923 35.1241 73.9855 37.0291L70.0301 40.9826L58.0969 52.9101M8.01253 37.0291L10.0416 35H22.5281V37.0291M8.01253 37.0291L9.99023 39.0058M22.5281 51.5378L25.9919 55M22.5281 51.5378V37.0291M22.5281 51.5378L17.248 46.2602M25.9919 55L40.999 70L50.9386 60.065M25.9919 55H47.1839C48.3125 55 49.3603 54.4145 49.9518 53.4533V53.4533C50.5946 52.4087 50.5946 51.0913 49.9518 50.0467V50.0467C49.3603 49.0855 48.3125 48.5 47.1839 48.5H40.999H51.1839C52.3125 48.5 53.3603 47.9145 53.9518 46.9533V46.9533C54.5946 45.9087 54.5946 44.5913 53.9518 43.5467V43.5467C53.3603 42.5855 52.3125 42 51.1839 42H41.5H52.8565C54.16 42 55.3412 41.2324 55.8705 40.0413V40.0413C56.523 38.5732 56.0228 36.8486 54.6861 35.9574L54 35.5M54 35.5H42M54 35.5L54.8237 34.3675C55.525 33.4032 55.525 32.0968 54.8237 31.1325V31.1325C54.3062 30.421 53.4795 30 52.5996 30H39.5C39.6667 28.5 40 24.8 40 22C40 18.5 38.5 15 34 15C29.5 15 32.5 20.5 32.5 22C32.5 23.5 26.9839 34.5 25.9919 35.5C25.1984 36.3 23.352 36.8527 22.5281 37.0291" stroke="black" stroke-width="3" stroke-linecap="round" stroke-linejoin="round"/>
</svg>
