<svg width="72" height="73" viewBox="0 0 72 73" fill="none" xmlns="http://www.w3.org/2000/svg">
<circle cx="36" cy="36.5" r="34.5" fill="#379FFF" stroke="black" stroke-width="3"/>
<path d="M57 19.8003V30.3032C57 30.7674 56.814 31.2127 56.4828 31.5409C56.1516 31.8692 55.7025 32.0536 55.2342 32.0536H44.6392C44.2917 32.0531 43.9521 31.9509 43.6629 31.7599C43.3737 31.5688 43.1478 31.2975 43.0135 30.9798C42.8791 30.6621 42.8424 30.3122 42.9078 29.9738C42.9731 29.6355 43.1377 29.3238 43.381 29.0778L46.4933 25.9926C47.0161 25.4743 47.0161 24.6291 46.4933 24.1108C43.1754 20.8345 38.6831 18.995 34 18.995C29.3169 18.995 24.8246 20.8345 21.5067 24.1108C21.3443 24.2756 21.1503 24.4065 20.9362 24.4958C20.722 24.5852 20.492 24.6312 20.2596 24.6312C20.0272 24.6312 19.7972 24.5852 19.583 24.4958C19.3689 24.4065 19.1749 24.2756 19.0125 24.1108C18.6822 23.7827 18.4968 23.3381 18.4968 22.8745C18.4968 22.411 18.6822 21.9664 19.0125 21.6383C22.9924 17.7072 28.3817 15.5 34 15.5C39.6183 15.5 45.0076 17.7072 48.9875 21.6383C49.5131 22.1592 50.3603 22.1592 50.8858 21.6383L53.976 18.5749C54.221 18.3285 54.5342 18.1595 54.876 18.0894C55.2177 18.0193 55.5728 18.0512 55.8964 18.1811C56.2185 18.3163 56.4942 18.5413 56.6901 18.8286C56.8859 19.116 56.9936 19.4535 57 19.8003ZM49.4933 48.8802C46.1754 52.1565 41.6831 53.996 37 53.996C32.3169 53.996 27.8246 52.1565 24.5067 48.8802C23.9839 48.3619 23.9839 47.5167 24.5067 46.9984L27.619 43.9132C27.8623 43.6672 28.0269 43.3555 28.0923 43.0171C28.1576 42.6788 28.1208 42.3289 27.9865 42.0112C27.8522 41.6935 27.6263 41.4221 27.3371 41.2311C27.0479 41.0401 26.7083 40.9379 26.3608 40.9373H15.7658C15.2975 40.9373 14.8484 41.1218 14.5172 41.45C14.186 41.7783 14 42.2236 14 42.6878V53.1907C14.0064 53.5375 14.1141 53.875 14.3099 54.1623C14.5058 54.4497 14.7815 54.6746 15.1036 54.8099C15.3138 54.8955 15.5386 54.9401 15.7658 54.9412C16.0006 54.9433 16.2333 54.8978 16.4497 54.8075C16.666 54.7172 16.8615 54.584 17.024 54.4161L20.1142 51.3527C20.6397 50.8318 21.4869 50.8318 22.0125 51.3527C25.9896 55.2891 31.3799 57.5 37 57.5C42.6201 57.5 48.0104 55.2891 51.9875 51.3527C52.3178 51.0246 52.5032 50.58 52.5032 50.1164C52.5032 49.6529 52.3178 49.2083 51.9875 48.8802C51.8251 48.7154 51.6311 48.5845 51.417 48.4951C51.2028 48.4058 50.9728 48.3597 50.7404 48.3597C50.508 48.3597 50.278 48.4058 50.0638 48.4951C49.8497 48.5845 49.6557 48.7154 49.4933 48.8802Z" fill="white"/>
<path d="M58 19.176V30.5966C58 31.1014 57.7971 31.5855 57.4358 31.9425C57.0746 32.2995 56.5847 32.5 56.0738 32.5H44.5166C44.1375 32.4994 43.7671 32.3883 43.4516 32.1806C43.1362 31.9728 42.8898 31.6778 42.7432 31.3323C42.5967 30.9869 42.5566 30.6064 42.6279 30.2385C42.6992 29.8706 42.8788 29.5317 43.1441 29.2642L46.5391 25.9094C47.1089 25.3463 47.1089 24.4262 46.5391 23.8632C42.9199 20.3006 38.0196 18.3003 32.9112 18.3003C27.8028 18.3003 22.9025 20.3006 19.2833 23.8632C19.1061 24.0423 18.8945 24.1847 18.6609 24.2818C18.4273 24.379 18.1764 24.4291 17.9229 24.4291C17.6694 24.4291 17.4185 24.379 17.1849 24.2818C16.9513 24.1847 16.7397 24.0423 16.5625 23.8632C16.2023 23.5064 16 23.0229 16 22.5189C16 22.0149 16.2023 21.5314 16.5625 21.1746C20.9039 16.9001 26.7827 14.5 32.9112 14.5C39.0397 14.5 44.9185 16.9001 49.2598 21.1746C49.8336 21.7416 50.7567 21.7416 51.3305 21.1746L54.7014 17.8436C54.9686 17.5756 55.3102 17.3919 55.6831 17.3157C56.0559 17.2395 56.4432 17.2741 56.7961 17.4153C57.1475 17.5624 57.4482 17.807 57.6619 18.1195C57.8756 18.432 57.993 18.7989 58 19.176Z" fill="white"/>
<path d="M34 14C39.9615 14 45.6846 16.3227 49.9361 20.4676L52.9122 17.5174C52.9137 17.5159 52.9152 17.5144 52.9167 17.5129C53.37 17.0587 53.947 16.7487 54.5746 16.62C55.2042 16.4909 55.8583 16.5495 56.455 16.789L56.4661 16.7934L56.4771 16.7981C57.0648 17.0449 57.5698 17.4561 57.9295 17.9838C58.2893 18.5117 58.4879 19.133 58.4997 19.7725L58.5 19.7864V19.8003V30.3032C58.5 31.1695 58.1527 31.9977 57.5388 32.6062C56.9254 33.2143 56.0961 33.5536 55.2342 33.5536H44.6392H44.6367C43.9969 33.5526 43.3706 33.3645 42.8361 33.0115C42.3015 32.6583 41.8819 32.1553 41.6319 31.5639C41.3818 30.9724 41.3131 30.3201 41.435 29.6892C41.5569 29.0585 41.8635 28.4792 42.3144 28.0231L42.3197 28.0178L42.325 28.0125L45.3108 25.0526C42.288 22.1334 38.2302 20.495 34 20.495C29.7123 20.495 25.6017 22.1782 22.5666 25.1723C22.2655 25.4755 21.9076 25.7158 21.5138 25.8801C21.1164 26.046 20.69 26.1312 20.2596 26.1312C19.8292 26.1312 19.4028 26.046 19.0054 25.8801C18.6103 25.7153 18.2513 25.4739 17.9497 25.1694C17.3409 24.5616 16.9968 23.7369 16.9968 22.8745C16.9968 22.0096 17.343 21.1826 17.9552 20.5743L17.9584 20.5711C19.605 18.9447 21.4765 17.5942 23.5 16.5491M28.4179 14.6902C28.5183 14.665 28.619 14.6405 28.7198 14.6166M37 52.496C32.7698 52.496 28.712 50.8576 25.6892 47.9383L28.675 44.9784L28.6803 44.9732L28.6856 44.9678C29.1365 44.5118 29.4431 43.9325 29.565 43.3017C29.6869 42.6709 29.6182 42.0186 29.3681 41.4271C29.1181 40.8357 28.6985 40.3327 28.1639 39.9795C27.6294 39.6265 27.0031 39.4384 26.3633 39.4373H26.3608H15.7658C14.9039 39.4373 14.0746 39.7766 13.4612 40.3848C12.8473 40.9933 12.5 41.8215 12.5 42.6878V53.1907V53.2046L12.5003 53.2185C12.5121 53.858 12.7107 54.4793 13.0705 55.0072C13.4302 55.5349 13.9352 55.9461 14.5229 56.1929L14.5304 56.1961L14.5379 56.1991C14.9245 56.3566 15.3377 56.4387 15.7549 56.4412C16.1914 56.4448 16.6244 56.36 17.0274 56.1918C17.4259 56.0255 17.7871 55.7809 18.0894 55.472L21.0638 52.5235C25.3125 56.6737 31.0367 59 37 59C43.0133 59 48.7834 56.6345 53.0427 52.4188L53.0448 52.4167C53.657 51.8084 54.0032 50.9814 54.0032 50.1164C54.0032 49.2541 53.6591 48.4295 53.0504 47.8217C52.7488 47.5172 52.3898 47.2757 51.9946 47.1108C51.5972 46.945 51.1708 46.8597 50.7404 46.8597C50.31 46.8597 49.8836 46.945 49.4862 47.1108C49.0923 47.2752 48.7344 47.5156 48.4334 47.8187C45.3982 50.8128 41.2877 52.496 37 52.496Z" stroke="black" stroke-width="3" stroke-linecap="round" stroke-linejoin="round"/>
</svg>
