<svg width="80" height="79" viewBox="0 0 80 79" fill="none" xmlns="http://www.w3.org/2000/svg">
<circle cx="38" cy="42" r="35" fill="white"/>
<path d="M73 42C73 61.33 57.33 77 38 77C18.67 77 3 61.33 3 42C3 22.67 18.67 7 38 7C57.33 7 73 22.67 73 42ZM14.9905 42C14.9905 54.7078 25.2922 65.0095 38 65.0095C50.7078 65.0095 61.0095 54.7078 61.0095 42C61.0095 29.2922 50.7078 18.9905 38 18.9905C25.2922 18.9905 14.9905 29.2922 14.9905 42Z" fill="#FF41B3"/>
<path d="M53 42C53 50.2843 46.2843 57 38 57C29.7157 57 23 50.2843 23 42C23 33.7157 29.7157 27 38 27C46.2843 27 53 33.7157 53 42ZM31.289 42C31.289 45.7064 34.2936 48.711 38 48.711C41.7064 48.711 44.711 45.7064 44.711 42C44.711 38.2936 41.7064 35.289 38 35.289C34.2936 35.289 31.289 38.2936 31.289 42Z" fill="#FF41B3"/>
<path d="M71.5 42C71.5 60.5015 56.5015 75.5 38 75.5C19.4985 75.5 4.5 60.5015 4.5 42C4.5 23.4985 19.4985 8.5 38 8.5C39.9598 8.5 41.8791 8.66813 43.7447 8.99041C46.7741 9.51377 49.664 10.444 52.3564 11.723C63.6778 17.1013 71.5 28.6386 71.5 42ZM13.4905 42C13.4905 55.5362 24.4638 66.5095 38 66.5095C51.5362 66.5095 62.5095 55.5362 62.5095 42C62.5095 28.4638 51.5362 17.4905 38 17.4905C24.4638 17.4905 13.4905 28.4638 13.4905 42Z" stroke="black" stroke-width="3"/>
<path d="M52.4608 38C50.7103 31.6576 44.8991 27 38 27C29.7157 27 23 33.7157 23 42C23 50.2843 29.7157 57 38 57C44.8991 57 50.7103 52.3424 52.4608 46M31.289 42C31.289 45.7064 34.2936 48.711 38 48.711C41.7064 48.711 44.711 45.7064 44.711 42C44.711 38.2936 41.7064 35.289 38 35.289C34.2936 35.289 31.289 38.2936 31.289 42Z" stroke="black" stroke-width="3" stroke-linecap="round"/>
<path d="M68.5 2L70.5 9.5L78 11.5L72.75 16.75L67.5 22L60 20L58 12.5L63.25 7.25L68.5 2Z" fill="#379FFF"/>
<path d="M38 42L60 20M74 6L70.5 9.5M70.5 9.5L68.5 2L63.25 7.25M70.5 9.5L78 11.5L72.75 16.75M70.5 9.5L65.25 14.75M60 20L58 12.5L63.25 7.25M60 20L67.5 22L72.75 16.75M60 20L65.25 14.75M65.25 14.75L72.75 16.75M65.25 14.75L63.25 7.25" stroke="black" stroke-width="3" stroke-linecap="round" stroke-linejoin="round"/>
<circle cx="62" cy="66" r="11" fill="#722FFF"/>
<path d="M73 63.25C71.7593 58.5056 67.3836 55 62.176 55C56.0037 55 51 59.9249 51 66C51 72.0751 56.0037 77 62.176 77C67.3836 77 71.7593 73.4944 73 68.75" stroke="black" stroke-width="3" stroke-linecap="round"/>
<path d="M58 65.5714L61.2727 69L67 63" stroke="black" stroke-width="3" stroke-linecap="round" stroke-linejoin="round"/>
<path d="M38 5V19" stroke="black" stroke-width="3" stroke-linecap="round" stroke-linejoin="round"/>
<path d="M74 42L60 42" stroke="black" stroke-width="3" stroke-linecap="round" stroke-linejoin="round"/>
<path d="M38 63V77" stroke="black" stroke-width="3" stroke-linecap="round" stroke-linejoin="round"/>
<path d="M16 42L2 42" stroke="black" stroke-width="3" stroke-linecap="round" stroke-linejoin="round"/>
</svg>
