<svg width="75" height="77" viewBox="0 0 75 77" fill="none" xmlns="http://www.w3.org/2000/svg">
<rect x="9.05621" y="8.17419" width="42.3373" height="67.0341" rx="8" fill="#FF41B3"/>
<rect x="9.05621" y="8.17419" width="42.3373" height="67.0341" rx="8" fill="#FF41B3"/>
<path d="M9.05621 61.9779H51.3936V67.2083C51.3936 71.6266 47.8118 75.2083 43.3936 75.2083H17.0562C12.6379 75.2083 9.05621 71.6266 9.05621 67.2083V61.9779Z" fill="#379FFF"/>
<path d="M16.2536 75.2083V75.2083C12.2786 75.2083 9.05621 71.986 9.05621 68.011V66.388V16.1742C9.05621 11.7559 12.6379 8.17419 17.0562 8.17419H43.3935C47.8118 8.17419 51.3936 11.7559 51.3936 16.1742V67.2083C51.3936 71.6266 47.8118 75.2083 43.3936 75.2083H27.2613" stroke="black" stroke-width="3" stroke-linecap="round"/>
<path d="M9.05621 63.3009H51.3936" stroke="black" stroke-width="3" stroke-linecap="round" stroke-linejoin="round"/>
<path d="M53.5775 38.6482L53.5775 38.6482L53.5868 38.6574L56.8936 41.9071C56.9021 41.916 56.9058 41.923 56.908 41.9287C56.9109 41.9358 56.9135 41.9465 56.9133 41.9608C56.9129 41.988 56.9025 42.0284 56.8604 42.0705C56.8183 42.1127 56.7779 42.123 56.7506 42.1234C56.7363 42.1236 56.7257 42.121 56.7185 42.1182C56.7124 42.1158 56.7049 42.1117 56.695 42.1019L51.5578 36.9647C50.3635 35.7704 48.4117 35.7897 47.2206 36.9809C46.0382 38.1633 45.9875 40.1013 47.2043 41.3181L50.8658 44.9796C50.8756 44.9895 50.8797 44.997 50.8821 45.0031C50.8849 45.0103 50.8875 45.0209 50.8873 45.0352C50.887 45.0625 50.8766 45.1029 50.8345 45.145C50.7924 45.1871 50.752 45.1975 50.7247 45.1979C50.7104 45.1981 50.6997 45.1955 50.6926 45.1926C50.6865 45.1902 50.6789 45.1862 50.6691 45.1763L45.5319 40.0391C44.3376 38.8449 42.3858 38.8642 41.1946 40.0554C40.0123 41.2377 39.9615 43.1757 41.1784 44.3926L44.8538 48.068C44.8636 48.0779 44.8677 48.0854 44.8701 48.0915C44.8729 48.0986 44.8755 48.1093 44.8753 48.1236C44.875 48.1509 44.8646 48.1913 44.8225 48.2334C44.7803 48.2755 44.74 48.2859 44.7127 48.2863C44.6984 48.2864 44.6877 48.2839 44.6806 48.281C44.6745 48.2786 44.6669 48.2746 44.6571 48.2647L34.1042 37.7118C32.91 36.5176 30.9582 36.5369 29.767 37.7281C28.5846 38.9105 28.5339 40.8485 29.7507 42.0653L46.0812 58.3958C46.0901 58.4047 46.0956 58.4143 46.0982 58.43C46.1005 58.444 46.1009 58.4681 46.0893 58.5003C46.0667 58.5377 46.0341 58.5703 45.9966 58.5929C45.954 58.6186 45.9222 58.6217 45.9092 58.6211C45.9091 58.6211 45.9089 58.6211 45.9088 58.6211L36.4627 58.1297C36.4299 58.128 36.3971 58.1274 36.3642 58.1278C35.5567 58.1389 34.792 58.4867 34.2452 59.0334C33.6913 59.5873 33.3365 60.3498 33.3253 61.1668L34.8251 61.1874L33.3253 61.1668C33.3094 62.3235 34.0423 63.0691 34.6315 63.4656C35.218 63.8602 35.9027 64.0889 36.4342 64.2219C39.9871 65.1609 43.5489 65.8544 46.6649 66.4591C46.6655 66.4592 46.6661 66.4593 46.6666 66.4594L46.9328 66.5117C49.1961 66.9562 51.2881 67.367 52.9733 67.7931L52.9785 67.7944C54.0714 68.0666 56.6493 68.9278 58.1568 69.4314L58.2196 69.4523C58.7588 69.6324 59.3535 69.4922 59.7555 69.0902L72.8623 55.9834C73.3234 55.5223 73.4338 54.8162 73.1355 54.2364C72.2473 52.5104 70.899 49.991 69.5312 47.6591C68.2009 45.3909 66.7433 43.107 65.6438 42.0075L57.931 34.2947C56.7367 33.1004 54.7849 33.1198 53.5938 34.3109C52.4114 35.4933 52.3607 37.4313 53.5775 38.6482ZM58.6948 68.0296L58.5817 67.9918C57.0978 67.496 54.4926 66.6257 53.341 66.3389C51.6155 65.9026 49.4876 65.4847 47.244 65.0442C47.147 65.0251 47.0498 65.006 46.9524 64.9869C43.8277 64.3805 40.3089 63.6949 36.8075 62.7691L58.6948 68.0296Z" fill="white" stroke="#0F0912" stroke-width="3" stroke-linejoin="round"/>
<circle cx="12.5843" cy="12.5843" r="10.5843" fill="#722FFF"/>
<path d="M23.1687 9.93825C21.9749 5.37316 17.7645 2 12.7537 2C6.81461 2 2 6.73877 2 12.5843C2 18.4299 6.81461 23.1687 12.7537 23.1687C17.7645 23.1687 21.9749 19.7955 23.1687 15.2304" stroke="black" stroke-width="3" stroke-linecap="round"/>
<path d="M8.17419 12.5843L11.7023 16.1124L17.8765 9.93823" stroke="black" stroke-width="3" stroke-linecap="round" stroke-linejoin="round"/>
<path d="M20.5409 49.6532L24.9067 45.2874" stroke="black" stroke-width="3" stroke-linecap="round" stroke-linejoin="round"/>
<path d="M41.7148 28.4792L37.349 32.8451" stroke="black" stroke-width="3" stroke-linecap="round" stroke-linejoin="round"/>
<path d="M16.175 39.0505H22.3492" stroke="black" stroke-width="3" stroke-linecap="round" stroke-linejoin="round"/>
<path d="M31.1122 24.1134V30.2876" stroke="black" stroke-width="3" stroke-linecap="round" stroke-linejoin="round"/>
<path d="M24.9067 32.8137L20.5409 28.4479" stroke="black" stroke-width="3" stroke-linecap="round" stroke-linejoin="round"/>
</svg>
