<svg width="15" height="15" viewBox="0 0 15 15" fill="none" xmlns="http://www.w3.org/2000/svg">
<path d="M1 14H14C14 14 14 13.3533 14 12.5556V2.44444C14 1.6467 14 1 14 1H1C1 1 1 1.6467 1 2.44444V12.5556C1 13.3533 1 14 1 14ZM1 14L10.3889 6.05556L13.6389 9.30556M6.05556 4.97222C6.05556 5.57053 5.57053 6.05556 4.97222 6.05556C4.37391 6.05556 3.88889 5.57053 3.88889 4.97222C3.88889 4.37391 4.37391 3.88889 4.97222 3.88889C5.57053 3.88889 6.05556 4.37391 6.05556 4.97222Z" stroke="#A073A7" stroke-linecap="square"/>
</svg>
