<svg width="19" height="18" viewBox="0 0 19 18" fill="none" xmlns="http://www.w3.org/2000/svg">
<path d="M5 4H18" stroke="#A073A7" stroke-linecap="square" stroke-linejoin="round"/>
<path d="M5 10H18" stroke="#A073A7" stroke-linecap="square" stroke-linejoin="round"/>
<path d="M5 16H18" stroke="#A073A7" stroke-linecap="square" stroke-linejoin="round"/>
<path d="M1.47994 2.115L0.714941 2.51V1.975L1.57994 1.5H2.05994V5H1.47994V2.115ZM0.303984 10.265L2.11398 8.575V8.19L1.91898 8H1.05898L0.863984 8.19V8.515H0.283984V8.015L0.798984 7.5H2.17898L2.69398 8.015V8.745L0.898984 10.4V10.505H2.71398V11H0.303984V10.265ZM0.213184 16.485V15.99H0.793184V16.31L0.988184 16.5H1.93818L2.13318 16.31V15.675L1.94818 15.49H0.948184V14.99H1.94818L2.13318 14.805V14.19L1.93818 14H1.01818L0.823184 14.19V14.51H0.243184V14.015L0.758184 13.5H2.19818L2.71318 14.015V14.975L2.44318 15.24L2.71318 15.51V16.485L2.19818 17H0.728184L0.213184 16.485Z" fill="#A073A7"/>
</svg>
