<svg width="17" height="15" viewBox="0 0 17 15" fill="none" xmlns="http://www.w3.org/2000/svg">
<path d="M16 1.72082V6.05415M16 6.05415H11.4991M16 6.05415L12.5268 2.90526C11.4921 1.90841 10.1488 1.26234 8.6995 1.06443C7.25018 0.866506 5.77332 1.12745 4.49145 1.80795C3.20958 2.48844 2.19216 3.55162 1.5925 4.83726C0.992837 6.1229 0.843429 7.56135 1.16679 8.93585C1.49015 10.3104 2.26875 11.5464 3.38528 12.4579C4.5018 13.3693 5.89575 13.9066 7.35707 13.9889C8.8184 14.0712 10.2679 13.694 11.4872 12.9142C12.7065 12.1343 13.6295 10.9941 14.1171 9.66526" stroke="#A073A7" stroke-linecap="square"/>
</svg>
