<svg width="17" height="15" viewBox="0 0 17 15" fill="none" xmlns="http://www.w3.org/2000/svg">
<path d="M1 1.71548V6.04881M1 6.04881H5.50032M1 6.04881L4.48025 2.89993C5.516 1.90429 6.85975 1.25974 8.30903 1.0634C9.7583 0.867064 11.2346 1.12957 12.5154 1.81137C13.7963 2.49317 14.8123 3.55732 15.4105 4.8435C16.0086 6.12967 16.1565 7.56819 15.8317 8.94229C15.507 10.3164 14.7272 11.5517 13.61 12.462C12.4927 13.3723 11.0985 13.9083 9.6374 13.9893C8.17627 14.0702 6.72739 13.6918 5.50906 12.9109C4.29073 12.13 3.36896 10.9891 2.88263 9.65992" stroke="#A073A7" stroke-linecap="square"/>
</svg>
