<svg width="13" height="14" viewBox="0 0 13 14" fill="none" xmlns="http://www.w3.org/2000/svg">
<path d="M11.4771 0H1.52286C0.683429 0 0 0.644 0 1.442V10.906C0 11.704 0.683429 12.348 1.52286 12.348H9.94686L9.55314 11.053L10.504 11.886L11.4029 12.67L13 14V1.442C13 0.644 12.3166 0 11.4771 0ZM8.60971 9.142C8.60971 9.142 8.34229 8.841 8.11943 8.575C9.09257 8.316 9.464 7.742 9.464 7.742C9.15943 7.931 8.86971 8.064 8.60971 8.155C8.23829 8.302 7.88171 8.4 7.53257 8.456C6.81943 8.582 6.16571 8.547 5.60857 8.449C5.18514 8.372 4.82114 8.26 4.51657 8.148C4.34571 8.085 4.16 8.008 3.97429 7.91C3.952 7.896 3.92971 7.889 3.90743 7.875C3.89257 7.868 3.88514 7.861 3.87771 7.854C3.744 7.784 3.66971 7.735 3.66971 7.735C3.66971 7.735 4.02629 8.295 4.96971 8.561C4.74686 8.827 4.472 9.142 4.472 9.142C2.83029 9.093 2.20629 8.078 2.20629 8.078C2.20629 5.824 3.276 3.997 3.276 3.997C4.34571 3.241 5.36343 3.262 5.36343 3.262L5.43771 3.346C4.10057 3.71 3.484 4.263 3.484 4.263C3.484 4.263 3.64743 4.179 3.92229 4.06C4.71714 3.731 5.34857 3.64 5.60857 3.619C5.65314 3.612 5.69029 3.605 5.73486 3.605C6.188 3.549 6.70057 3.535 7.23543 3.591C7.94114 3.668 8.69886 3.864 9.47143 4.263C9.47143 4.263 8.88457 3.738 7.62171 3.374L7.72571 3.262C7.72571 3.262 8.74343 3.241 9.81314 3.997C9.81314 3.997 10.8829 5.824 10.8829 8.078C10.8829 8.078 10.2514 9.093 8.60971 9.142ZM5.15543 5.873C4.732 5.873 4.39771 6.223 4.39771 6.65C4.39771 7.077 4.73943 7.427 5.15543 7.427C5.57886 7.427 5.91314 7.077 5.91314 6.65C5.92057 6.223 5.57886 5.873 5.15543 5.873ZM7.86686 5.873C7.44343 5.873 7.10914 6.223 7.10914 6.65C7.10914 7.077 7.45086 7.427 7.86686 7.427C8.29029 7.427 8.62457 7.077 8.62457 6.65C8.62457 6.223 8.29029 5.873 7.86686 5.873Z" fill="#A073A7"/>
</svg>
