<svg width="14" height="14" viewBox="0 0 14 14" fill="none" xmlns="http://www.w3.org/2000/svg">
<path fill-rule="evenodd" clip-rule="evenodd" d="M13.2273 14C13.654 14 13.9999 13.654 13.9999 13.2273V0.772663C13.9999 0.345836 13.6539 0 13.2273 0H0.772663C0.345836 0 0 0.345889 0 0.772663V13.2273C0 13.654 0.345836 13.9999 0.772663 13.9999H13.2273V14ZM9.65971 14V8.57845H11.4795L11.7519 6.46556H9.65966V5.11657C9.65966 4.50484 9.82951 4.08798 10.7068 4.08798L11.8256 4.08746V2.19771C11.6321 2.17201 10.9679 2.11446 10.1953 2.11446C8.58212 2.11446 7.47774 3.0991 7.47774 4.90738V6.46556H5.65329V8.57845H7.47774V13.9999H9.65971V14Z" fill="#A073A7"/>
</svg>
