<svg width="16" height="16" viewBox="0 0 16 16" fill="none" xmlns="http://www.w3.org/2000/svg">
<path d="M8 0.5C3.85617 0.5 0.5 3.90735 0.5 8.11438C0.5 11.6928 2.91851 14.6627 6.18149 15.5C6.14383 15.4047 6.12532 15.2712 6.12532 15.1384V13.8436H5.18766C4.68149 13.8436 4.21234 13.6155 4.00617 13.1962C3.76234 12.7394 3.72468 12.035 3.10617 11.5969C2.91851 11.4446 3.06851 11.2923 3.27468 11.3111C3.66851 11.4252 3.98702 11.6922 4.28702 12.0914C4.58702 12.4912 4.71851 12.5864 5.28085 12.5864C5.54319 12.5864 5.95553 12.5677 6.33085 12.51C6.53702 11.9766 6.89319 11.501 7.32468 11.2729C4.81234 10.9683 3.61234 9.71178 3.61234 7.99838C3.61234 7.25574 3.93085 6.55132 4.45617 5.94217C4.28766 5.35182 4.06234 4.13352 4.53149 3.65786C5.65681 3.65786 6.33149 4.40051 6.5 4.59038C7.06234 4.39986 7.68149 4.2858 8.31851 4.2858C8.97468 4.2858 9.57468 4.39986 10.137 4.59038C10.3055 4.39986 10.9809 3.65786 12.1055 3.65786C12.5555 4.11472 12.3494 5.35182 12.1617 5.94217C12.687 6.53253 12.987 7.25574 12.987 7.99838C12.987 9.71178 11.8055 10.9683 9.31234 11.2347C10.0062 11.5963 10.4938 12.624 10.4938 13.3855V15.1196C10.4938 15.1766 10.4753 15.2337 10.4753 15.2907C13.4 14.2629 15.5 11.4459 15.5 8.11438C15.5 3.90735 12.1438 0.5 8 0.5Z" fill="#A073A7"/>
</svg>
