<svg width="24" height="24" viewBox="5 5 14 14" fill="none" xmlns="http://www.w3.org/2000/svg">
<path d="M17.5729 5H7.08608C5.90209 5 5 5.86154 5 6.99231V17.0077C5 18.1385 5.90209 19 7.08608 19H17.5729C18.7568 19 19.6589 18.1385 19.6589 17.0077V6.99231C19.6589 5.86154 18.7568 5 17.5729 5ZM12.3295 16.2C14.7538 16.2 16.7271 14.3692 16.7271 12.1615C16.7271 11.7846 16.6708 11.3538 16.558 11.0308H17.7984V16.7385C17.7984 17.0077 17.5729 17.2769 17.2346 17.2769H7.42436C7.14246 17.2769 6.86056 17.0615 6.86056 16.7385V10.9769H8.15731C8.04455 11.3538 7.98817 11.7308 7.98817 12.1077C7.93179 14.3692 9.90511 16.2 12.3295 16.2ZM12.3295 14.5846C10.7508 14.5846 9.51044 13.4 9.51044 11.9462C9.51044 10.4923 10.7508 9.30769 12.3295 9.30769C13.9081 9.30769 15.1485 10.4923 15.1485 11.9462C15.1485 13.4538 13.9081 14.5846 12.3295 14.5846ZM17.742 8.82308C17.742 9.14615 17.4601 9.41539 17.1218 9.41539H15.5432C15.2049 9.41539 14.923 9.14615 14.923 8.82308V7.36923C14.923 7.04615 15.2049 6.77692 15.5432 6.77692H17.1218C17.4601 6.77692 17.742 7.04615 17.742 7.36923V8.82308Z" fill="#A073A7"/>
</svg>
