<svg width="24" height="24" viewBox="5 5 15 14" fill="none" xmlns="http://www.w3.org/2000/svg">
<path d="M17.5248 6.77692C16.1768 5.59231 14.548 5 12.5261 5C10.448 5 8.65072 5.64615 7.19043 6.99231C5.73014 8.33846 5 10.0077 5 12C5 13.9385 5.67399 15.5538 7.07811 16.9538C8.48223 18.3538 10.3357 19 12.7508 19C14.1549 19 15.559 18.7308 16.9631 18.1385C17.4125 17.9769 17.6371 17.4385 17.4686 17.0077C17.3001 16.5769 16.7385 16.3615 16.2892 16.5231C15.1097 17.0077 13.9302 17.2769 12.8069 17.2769C11.0096 17.2769 9.60552 16.7385 8.59455 15.6615C7.58358 14.5846 7.07811 13.3462 7.07811 11.9462C7.07811 10.3846 7.63975 9.09231 8.65072 8.06923C9.71786 7.04615 11.0097 6.50769 12.5823 6.50769C13.9864 6.50769 15.222 6.93846 16.233 7.8C17.244 8.66154 17.6933 9.73846 17.6933 11.0308C17.6933 11.8923 17.4686 12.6462 17.0193 13.2385C16.57 13.8308 16.1207 14.1 15.6152 14.1C15.3343 14.1 15.222 13.9923 15.222 13.6692C15.222 13.4538 15.222 13.1846 15.2782 12.9154L15.8398 8.55385H13.9302L13.8179 8.98461C13.3124 8.60769 12.8069 8.39231 12.2453 8.39231C11.3466 8.39231 10.5603 8.76923 9.88636 9.46923C9.21238 10.1692 8.93155 11.0846 8.93155 12.1615C8.93155 13.2385 9.21238 14.1 9.83019 14.8C10.3918 15.4462 11.122 15.7692 11.9083 15.7692C12.6384 15.7692 13.2563 15.5 13.7617 14.9077C14.1549 15.4462 14.7165 15.7692 15.5029 15.7692C16.6262 15.7692 17.5809 15.2846 18.4234 14.3692C19.2659 13.4538 19.6591 12.3231 19.6591 10.9769C19.4906 9.36154 18.8166 7.90769 17.5248 6.77692ZM13.0878 13.3462C12.7508 13.7769 12.3576 13.9923 11.8521 13.9923C11.5151 13.9923 11.2905 13.8308 11.0658 13.5077C10.8412 13.1846 10.785 12.8077 10.785 12.3231C10.785 11.7308 10.8973 11.2462 11.1781 10.9231C11.459 10.5462 11.796 10.3846 12.1891 10.3846C12.5261 10.3846 12.8631 10.4923 13.1439 10.8154C13.4247 11.0846 13.5371 11.4615 13.5371 11.8923C13.5932 12.4308 13.4247 12.9154 13.0878 13.3462Z" fill="#A073A7"/>
</svg>
