<svg width="18" height="10" viewBox="0 0 18 10" fill="none" xmlns="http://www.w3.org/2000/svg">
<path d="M9.93184 5.00008C9.93184 7.76147 7.70849 10 4.966 10C2.22352 10 0 7.76096 0 5.00008C0 2.23921 2.22335 0 4.966 0C7.70866 0 9.93184 2.2387 9.93184 5.00008ZM15.3795 5.00008C15.3795 7.59933 14.2679 9.70728 12.8965 9.70728C11.5252 9.70728 10.4135 7.59933 10.4135 5.00008C10.4135 2.40084 11.525 0.292892 12.8964 0.292892C14.2677 0.292892 15.3794 2.40016 15.3794 5.00008H15.3795ZM17.6078 5.00008C17.6078 7.32837 17.2169 9.21699 16.7345 9.21699C16.2521 9.21699 15.8614 7.32888 15.8614 5.00008C15.8614 2.67129 16.2523 0.783182 16.7345 0.783182C17.2167 0.783182 17.6078 2.67112 17.6078 5.00008Z" fill="#A073A7"/>
</svg>
