<svg width="16" height="16" viewBox="0 0 16 16" fill="none" xmlns="http://www.w3.org/2000/svg">
<path fill-rule="evenodd" clip-rule="evenodd" d="M8 15.5C12.1421 15.5 15.5 12.1421 15.5 8C15.5 3.85786 12.1421 0.5 8 0.5C3.85786 0.5 0.5 3.85786 0.5 8C0.5 12.1421 3.85786 15.5 8 15.5ZM12.979 8.07928C12.979 7.47148 12.489 6.9782 11.8852 6.9782C11.5877 6.9782 11.3252 7.09271 11.1327 7.2865C10.3889 6.74917 9.35632 6.39683 8.21876 6.35278L8.71754 4.00088L10.3364 4.34441C10.3539 4.75842 10.6951 5.09315 11.1152 5.09315C11.5439 5.09315 11.8939 4.7408 11.8939 4.30918C11.8939 3.87756 11.5439 3.52521 11.1152 3.52521C10.8089 3.52521 10.5464 3.70138 10.4239 3.96564L8.61253 3.57806C8.56003 3.56925 8.50752 3.57806 8.46377 3.60449C8.42002 3.63091 8.39377 3.67496 8.37627 3.72781L7.82499 6.35278C6.66119 6.38802 5.61988 6.73156 4.86735 7.2865C4.67484 7.10152 4.40358 6.9782 4.11481 6.9782C3.51103 6.9782 3.02101 7.47148 3.02101 8.07928C3.02101 8.52852 3.28352 8.90729 3.66854 9.08346C3.65104 9.18917 3.64229 9.30368 3.64229 9.41819C3.64229 11.1095 5.59363 12.4748 8.00875 12.4748C10.4239 12.4748 12.3752 11.1095 12.3752 9.41819C12.3752 9.30368 12.3665 9.19798 12.349 9.09227C12.7077 8.9161 12.979 8.52852 12.979 8.07928ZM5.49738 8.86325C5.49738 8.43162 5.84739 8.07928 6.27617 8.07928C6.70494 8.07928 7.05495 8.43162 7.05495 8.86325C7.05495 9.29487 6.70494 9.64722 6.27617 9.64722C5.84739 9.64722 5.49738 9.29487 5.49738 8.86325ZM9.84634 10.9333C9.31256 11.4706 8.29751 11.5058 8 11.5058C7.70249 11.5058 6.67869 11.4618 6.15366 10.9333C6.07491 10.854 6.07491 10.7219 6.15366 10.6426C6.23241 10.5633 6.36367 10.5633 6.44242 10.6426C6.77494 10.9773 7.49248 11.1006 8.00875 11.1006C8.52503 11.1006 9.23381 10.9773 9.57508 10.6426C9.65383 10.5633 9.78509 10.5633 9.86384 10.6426C9.92509 10.7307 9.92509 10.854 9.84634 10.9333ZM9.70633 9.64722C9.27756 9.64722 8.92755 9.29487 8.92755 8.86325C8.92755 8.43162 9.27756 8.07928 9.70633 8.07928C10.1351 8.07928 10.4851 8.43162 10.4851 8.86325C10.4851 9.29487 10.1351 9.64722 9.70633 9.64722Z" fill="#A073A7"/>
</svg>
