<svg width="24" height="24" viewBox="5 5 14 14" fill="none" xmlns="http://www.w3.org/2000/svg">
<path d="M4.2921 11.7199L8.12186 13.0957L9.6148 17.7236C9.67972 18.0363 10.0692 18.0988 10.3288 17.9112L12.4709 16.2227C12.6656 16.0351 12.9902 16.0351 13.2498 16.2227L17.0796 18.9118C17.3392 19.0995 17.7287 18.9744 17.7936 18.6617L20.6497 5.52855C20.7146 5.21585 20.39 4.90316 20.0655 5.02824L4.2921 10.9069C3.90263 11.032 3.90263 11.5948 4.2921 11.7199ZM9.42008 12.4078L16.9497 7.96756C17.0796 7.90502 17.2094 8.09264 17.0796 8.15518L10.913 13.7211C10.7183 13.9087 10.5236 14.1589 10.5236 14.4716L10.3288 15.9725C10.3288 16.1601 10.0043 16.2227 9.93936 15.9725L9.16042 13.2208C8.96569 12.9081 9.09552 12.5329 9.42008 12.4078Z" fill="#A073A7"/>
</svg>
