<svg width="14" height="15" viewBox="0 0 14 15" fill="none" xmlns="http://www.w3.org/2000/svg">
<path d="M13.1245 6.15126C11.8344 6.15435 10.5759 5.75201 9.52683 5.00107V10.2383C9.52647 11.2083 9.22999 12.1551 8.67703 12.9521C8.12406 13.749 7.34097 14.3581 6.43247 14.698C5.52396 15.0379 4.53335 15.0923 3.59308 14.854C2.65282 14.6157 1.80772 14.096 1.17079 13.3644C0.533858 12.6328 0.135457 11.7242 0.0288566 10.7601C-0.077744 9.79595 0.112537 8.82226 0.574256 7.9692C1.03598 7.11614 1.74713 6.42437 2.61262 5.98639C3.4781 5.54841 4.45668 5.3851 5.41749 5.51829V8.15246C4.97782 8.01416 4.5057 8.01832 4.06854 8.16436C3.63138 8.31039 3.25154 8.59082 2.98326 8.96561C2.71499 9.34039 2.572 9.79037 2.57472 10.2513C2.57743 10.7122 2.72571 11.1604 2.99838 11.532C3.27105 11.9036 3.65417 12.1796 4.09302 12.3204C4.53186 12.4613 5.00401 12.4599 5.44202 12.3164C5.88002 12.173 6.2615 11.8948 6.53197 11.5216C6.80244 11.1484 6.94806 10.6992 6.94805 10.2383V0H9.52683C9.52504 0.217772 9.54328 0.435247 9.58134 0.649676C9.67095 1.12836 9.85727 1.58372 10.1289 1.98793C10.4005 2.39213 10.7518 2.73667 11.1611 3.00047C11.7435 3.38555 12.4263 3.5908 13.1245 3.59066V6.15126Z" fill="#A073A7"/>
</svg>
