<svg width="16" height="13" viewBox="0 0 16 13" fill="none" xmlns="http://www.w3.org/2000/svg">
<path d="M15.9916 1.54273C15.4205 1.78632 14.7678 1.94872 14.1151 2.02991C14.7678 1.62393 15.3389 0.974361 15.5837 0.243592C14.931 0.649575 14.2783 0.893165 13.4624 1.05556C12.8912 0.405985 11.9937 0 11.0962 0C9.30126 0 7.83263 1.46154 7.83263 3.24786C7.83263 3.49145 7.83264 3.73504 7.91423 3.97863C5.22176 3.81623 2.77406 2.51709 1.14226 0.568374C0.897485 1.05555 0.734305 1.62393 0.734305 2.19231C0.734305 3.32906 1.30544 4.30342 2.20293 4.87179C1.6318 4.87179 1.14226 4.7094 0.734305 4.46581C0.734305 6.00855 1.87656 7.38888 3.34518 7.63247C3.10041 7.71367 2.77406 7.71368 2.4477 7.71368C2.20293 7.71368 2.03975 7.71367 1.79498 7.63247C2.20293 8.93162 3.42678 9.90598 4.8954 9.90598C3.75314 10.7991 2.36611 11.2863 0.8159 11.2863C0.57113 11.2863 0.32636 11.2863 0 11.2051C1.46862 12.0983 3.18201 12.6667 5.05858 12.6667C11.0962 12.6667 14.3598 7.71367 14.3598 3.41025V3.00427C15.0126 2.76068 15.5837 2.1923 15.9916 1.54273Z" fill="#A073A7"/>
</svg>
