<svg width="24" height="24" viewBox="5 5 13 13" fill="none" xmlns="http://www.w3.org/2000/svg">
<path d="M19.6591 10.3502C19.6591 10.0067 19.6056 9.60606 19.6056 9.14815C19.5521 8.69023 19.4986 8.23232 19.4451 7.83165C19.3381 7.37373 19.1776 7.0303 18.8566 6.74411C18.5891 6.45791 18.2146 6.28619 17.8401 6.22895C16.6095 6.05724 14.7905 6 12.3295 6C9.86853 6 7.99601 6.05724 6.819 6.22895C6.4445 6.28619 6.07 6.45791 5.8025 6.74411C5.535 7.0303 5.321 7.37373 5.214 7.83165C5.107 8.23232 5.0535 8.63299 5.0535 9.14815C5 9.60606 5 10.0067 5 10.3502C5 10.6936 5 11.0943 5 11.6667C5 12.239 5 12.697 5 12.9832C5 13.3266 5.0535 13.7273 5.0535 14.1852C5.107 14.6431 5.1605 15.101 5.214 15.5017C5.321 15.9596 5.4815 16.303 5.8025 16.5892C6.07 16.8754 6.4445 17.0471 6.819 17.1044C8.04951 17.2761 9.86853 17.3333 12.3295 17.3333C14.7905 17.3333 16.663 17.2761 17.8401 17.1044C18.2146 17.0471 18.5891 16.8754 18.8566 16.5892C19.1241 16.303 19.3381 15.9596 19.4451 15.5017C19.5521 15.101 19.6056 14.7003 19.6056 14.1852C19.6591 13.7273 19.6591 13.3266 19.6591 12.9832C19.6591 12.6397 19.6591 12.239 19.6591 11.6667C19.6591 11.0943 19.6591 10.6364 19.6591 10.3502ZM15.165 12.1246L10.9385 14.9293C10.885 14.9865 10.778 15.0438 10.671 15.0438C10.564 15.0438 10.5105 15.0438 10.4035 14.9865C10.243 14.872 10.136 14.7003 10.136 14.4714V8.80471C10.136 8.57575 10.243 8.40404 10.4035 8.28956C10.564 8.17508 10.778 8.17508 10.9385 8.28956L15.165 11.0943C15.3255 11.2087 15.4325 11.3805 15.4325 11.5522C15.4325 11.7239 15.3255 12.0101 15.165 12.1246Z" fill="#A073A7"/>
</svg>
