<svg width="108" height="84" viewBox="0 0 108 84" fill="none" xmlns="http://www.w3.org/2000/svg">
<g opacity="0.2">
<rect x="42" width="6" height="6" fill="#A073A7"/>
<rect width="6" height="6" transform="matrix(-1 0 0 1 66 0)" fill="#A073A7"/>
<rect x="48" width="6" height="6" fill="#A073A7"/>
<rect width="6" height="6" transform="matrix(-1 0 0 1 60 0)" fill="#A073A7"/>
<rect x="36" y="6" width="6" height="6" fill="#A073A7"/>
<rect width="6" height="6" transform="matrix(-1 0 0 1 72 6)" fill="#A073A7"/>
<rect x="42" y="6" width="6" height="6" fill="#A073A7"/>
<rect width="6" height="6" transform="matrix(-1 0 0 1 66 6)" fill="#A073A7"/>
<rect x="48" y="6" width="6" height="6" fill="#A073A7"/>
<rect width="6" height="6" transform="matrix(-1 0 0 1 60 6)" fill="#A073A7"/>
<rect x="30" y="12" width="6" height="6" fill="#A073A7"/>
<rect width="6" height="6" transform="matrix(-1 0 0 1 78 12)" fill="#A073A7"/>
<rect x="36" y="12" width="6" height="6" fill="#A073A7"/>
<rect width="6" height="6" transform="matrix(-1 0 0 1 72 12)" fill="#A073A7"/>
<rect x="6" y="18" width="6" height="6" fill="#A073A7"/>
<rect width="6" height="6" transform="matrix(-1 0 0 1 102 18)" fill="#A073A7"/>
<rect x="12" y="18" width="6" height="6" fill="#A073A7"/>
<rect width="6" height="6" transform="matrix(-1 0 0 1 96 18)" fill="#A073A7"/>
<rect x="18" y="18" width="6" height="6" fill="#A073A7"/>
<rect width="6" height="6" transform="matrix(-1 0 0 1 90 18)" fill="#A073A7"/>
<rect x="24" y="18" width="6" height="6" fill="#A073A7"/>
<rect width="6" height="6" transform="matrix(-1 0 0 1 84 18)" fill="#A073A7"/>
<rect x="30" y="18" width="6" height="6" fill="#A073A7"/>
<rect width="6" height="6" transform="matrix(-1 0 0 1 78 18)" fill="#A073A7"/>
<rect y="24" width="6" height="6" fill="#A073A7"/>
<rect width="6" height="6" transform="matrix(-1 0 0 1 108 24)" fill="#A073A7"/>
<rect x="6" y="24" width="6" height="6" fill="#A073A7"/>
<rect width="6" height="6" transform="matrix(-1 0 0 1 102 24)" fill="#A073A7"/>
<rect y="30" width="6" height="6" fill="#A073A7"/>
<rect width="6" height="6" transform="matrix(-1 0 0 1 108 30)" fill="#A073A7"/>
<rect x="6" y="30" width="6" height="6" fill="#A073A7"/>
<rect width="6" height="6" transform="matrix(-1 0 0 1 102 30)" fill="#A073A7"/>
<rect x="42" y="32" width="6" height="6" fill="#A073A7"/>
<rect width="6" height="6" transform="matrix(-1 0 0 1 66 32)" fill="#A073A7"/>
<rect x="48" y="32" width="6" height="6" fill="#A073A7"/>
<rect width="6" height="6" transform="matrix(-1 0 0 1 60 32)" fill="#A073A7"/>
<rect y="36" width="6" height="6" fill="#A073A7"/>
<rect width="6" height="6" transform="matrix(-1 0 0 1 108 36)" fill="#A073A7"/>
<rect x="6" y="36" width="6" height="6" fill="#A073A7"/>
<rect width="6" height="6" transform="matrix(-1 0 0 1 102 36)" fill="#A073A7"/>
<rect x="36" y="38" width="6" height="6" fill="#A073A7"/>
<rect width="6" height="6" transform="matrix(-1 0 0 1 72 38)" fill="#A073A7"/>
<rect y="42" width="6" height="6" fill="#A073A7"/>
<rect width="6" height="6" transform="matrix(-1 0 0 1 108 42)" fill="#A073A7"/>
<rect x="6" y="42" width="6" height="6" fill="#A073A7"/>
<rect width="6" height="6" transform="matrix(-1 0 0 1 102 42)" fill="#A073A7"/>
<rect x="30" y="44" width="6" height="6" fill="#A073A7"/>
<rect width="6" height="6" transform="matrix(-1 0 0 1 78 44)" fill="#A073A7"/>
<rect x="36" y="44" width="6" height="6" fill="#A073A7"/>
<rect width="6" height="6" transform="matrix(-1 0 0 1 72 44)" fill="#A073A7"/>
<rect y="48" width="6" height="6" fill="#A073A7"/>
<rect width="6" height="6" transform="matrix(-1 0 0 1 108 48)" fill="#A073A7"/>
<rect x="6" y="48" width="6" height="6" fill="#A073A7"/>
<rect width="6" height="6" transform="matrix(-1 0 0 1 102 48)" fill="#A073A7"/>
<rect y="54" width="6" height="6" fill="#A073A7"/>
<rect width="6" height="6" transform="matrix(-1 0 0 1 108 54)" fill="#A073A7"/>
<rect x="6" y="54" width="6" height="6" fill="#A073A7"/>
<rect width="6" height="6" transform="matrix(-1 0 0 1 102 54)" fill="#A073A7"/>
<rect y="60" width="6" height="6" fill="#A073A7"/>
<rect width="6" height="6" transform="matrix(-1 0 0 1 108 60)" fill="#A073A7"/>
<rect x="6" y="60" width="6" height="6" fill="#A073A7"/>
<rect width="6" height="6" transform="matrix(-1 0 0 1 102 60)" fill="#A073A7"/>
<rect y="66" width="6" height="6" fill="#A073A7"/>
<rect width="6" height="6" transform="matrix(-1 0 0 1 108 66)" fill="#A073A7"/>
<rect x="6" y="66" width="6" height="6" fill="#A073A7"/>
<rect width="6" height="6" transform="matrix(-1 0 0 1 102 66)" fill="#A073A7"/>
<rect y="72" width="6" height="6" fill="#A073A7"/>
<rect width="6" height="6" transform="matrix(-1 0 0 1 108 72)" fill="#A073A7"/>
<rect x="6" y="72" width="6" height="6" fill="#A073A7"/>
<rect width="6" height="6" transform="matrix(-1 0 0 1 102 72)" fill="#A073A7"/>
<rect x="6" y="78" width="6" height="6" fill="#A073A7"/>
<rect width="6" height="6" transform="matrix(-1 0 0 1 102 78)" fill="#A073A7"/>
<rect x="12" y="78" width="6" height="6" fill="#A073A7"/>
<rect width="6" height="6" transform="matrix(-1 0 0 1 96 78)" fill="#A073A7"/>
<rect x="18" y="78" width="6" height="6" fill="#A073A7"/>
<rect width="6" height="6" transform="matrix(-1 0 0 1 90 78)" fill="#A073A7"/>
<rect x="24" y="78" width="6" height="6" fill="#A073A7"/>
<rect width="6" height="6" transform="matrix(-1 0 0 1 84 78)" fill="#A073A7"/>
<rect x="30" y="78" width="6" height="6" fill="#A073A7"/>
<rect width="6" height="6" transform="matrix(-1 0 0 1 78 78)" fill="#A073A7"/>
<rect x="36" y="78" width="6" height="6" fill="#A073A7"/>
<rect width="6" height="6" transform="matrix(-1 0 0 1 72 78)" fill="#A073A7"/>
<rect x="42" y="78" width="6" height="6" fill="#A073A7"/>
<rect width="6" height="6" transform="matrix(-1 0 0 1 66 78)" fill="#A073A7"/>
<rect x="48" y="78" width="6" height="6" fill="#A073A7"/>
<rect width="6" height="6" transform="matrix(-1 0 0 1 60 78)" fill="#A073A7"/>
<rect width="6" height="6" transform="matrix(1 0 0 -1 42 68)" fill="#A073A7"/>
<rect x="66" y="68" width="6" height="6" transform="rotate(-180 66 68)" fill="#A073A7"/>
<rect width="6" height="6" transform="matrix(1 0 0 -1 48 68)" fill="#A073A7"/>
<rect x="60" y="68" width="6" height="6" transform="rotate(-180 60 68)" fill="#A073A7"/>
<rect width="6" height="6" transform="matrix(1 0 0 -1 36 62)" fill="#A073A7"/>
<rect x="72" y="62" width="6" height="6" transform="rotate(-180 72 62)" fill="#A073A7"/>
<rect width="6" height="6" transform="matrix(1 0 0 -1 30 56)" fill="#A073A7"/>
<rect x="78" y="56" width="6" height="6" transform="rotate(-180 78 56)" fill="#A073A7"/>
<rect width="6" height="6" transform="matrix(1 0 0 -1 36 56)" fill="#A073A7"/>
<rect x="72" y="56" width="6" height="6" transform="rotate(-180 72 56)" fill="#A073A7"/>
</g>
</svg>
