<svg width="30" height="30" viewBox="0 0 30 30" fill="none" xmlns="http://www.w3.org/2000/svg">
<path d="M15 22C18.866 22 22 18.866 22 15C22 11.134 18.866 8 15 8C11.134 8 8 11.134 8 15C8 18.866 11.134 22 15 22Z" stroke="#A073A7" stroke-miterlimit="10"/>
<path d="M17.3536 13.3536L17.7071 13L17 12.2929L16.6464 12.6464L17.3536 13.3536ZM12.6464 16.6464L12.2929 17L13 17.7071L13.3536 17.3536L12.6464 16.6464ZM16.6464 17.3536L17 17.7071L17.7071 17L17.3536 16.6464L16.6464 17.3536ZM13.3536 12.6464L13 12.2929L12.2929 13L12.6464 13.3536L13.3536 12.6464ZM16.6464 12.6464L12.6464 16.6464L13.3536 17.3536L17.3536 13.3536L16.6464 12.6464ZM17.3536 16.6464L13.3536 12.6464L12.6464 13.3536L16.6464 17.3536L17.3536 16.6464Z" fill="#A073A7"/>
</svg>
