<svg width="30" height="30" viewBox="0 0 30 30" fill="none" xmlns="http://www.w3.org/2000/svg">
<path d="M9 9.94618H10.4208M10.4208 9.94618H21.7876M10.4208 9.94618V19.8921C10.4208 20.2689 10.5705 20.6303 10.837 20.8968C11.1035 21.1632 11.4649 21.3129 11.8417 21.3129H18.9459C19.3227 21.3129 19.6841 21.1632 19.9506 20.8968C20.2171 20.6303 20.3667 20.2689 20.3667 19.8921V9.94618H10.4208ZM12.5521 9.94618V8.52534C12.5521 8.1485 12.7018 7.78711 12.9683 7.52065C13.2347 7.25419 13.5961 7.10449 13.973 7.10449H16.8146C17.1915 7.10449 17.5529 7.25419 17.8193 7.52065C18.0858 7.78711 18.2355 8.1485 18.2355 8.52534V9.94618M13.973 13.4983V17.7608M16.8146 13.4983V17.7608" stroke="#379FFF" stroke-linecap="square"/>
</svg>
