<svg width="30" height="30" viewBox="0 0 30 30" fill="none" xmlns="http://www.w3.org/2000/svg">
<path d="M18.5909 23V21.4444C18.5909 20.6193 18.2653 19.828 17.6856 19.2446C17.1059 18.6611 16.3198 18.3333 15.5 18.3333H10.0909C9.27115 18.3333 8.48496 18.6611 7.90531 19.2446C7.32565 19.828 7 20.6193 7 21.4444V23M21.6818 12.8889V17.5556M24 15.2222H19.3636M15.8864 12.1111C15.8864 13.8293 14.5025 15.2222 12.7955 15.2222C11.0884 15.2222 9.70455 13.8293 9.70455 12.1111C9.70455 10.3929 11.0884 9 12.7955 9C14.5025 9 15.8864 10.3929 15.8864 12.1111Z" stroke="#FF41B3" stroke-linecap="square"/>
</svg>
