<svg width="210" height="40" viewBox="0 0 210 40" fill="none" xmlns="http://www.w3.org/2000/svg">
<path d="M56.7183 9.52036H73.3563L71.2498 12.967H57.0945C54.1996 12.967 51.8701 15.1715 51.8701 17.6925C51.8701 20.2135 53.3822 22.4176 56.4186 22.4176H61.785L63.8769 18.9011H56.4186L58.2344 15.902H69.6496L63.8769 25.8647L56.7183 25.8647C54.4566 25.8647 52.5263 25.067 50.9275 23.4714C49.3287 21.8759 48.5293 19.9496 48.5293 17.6925C48.5293 15.4355 49.3287 13.5092 50.9275 11.9136C52.5263 10.3181 54.4566 9.52036 56.7183 9.52036Z" fill="white"/>
<path d="M79.8527 18.9011L77.2057 14.2857L70.3675 25.8647H66.2346L75.8822 9.52037L78.9704 9.52036L88.1109 25.8647H83.6027L81.7386 22.4176H74.5586L76.5439 18.9705L79.8527 18.9011Z" fill="white"/>
<path d="M87.3527 15.3846V20.5651L84.1644 15.0011V9.52036H87.7939L93.5233 19.1209L99.0439 9.52036H102.882V25.8647L99.2644 25.8647V15.6044L93.5233 25.8647L87.3527 15.3846Z" fill="white"/>
<path d="M108.514 22.4176H118.789L116.767 25.8647H105.119V9.52036H126.176L123.97 13.1868H108.514V16.2477H122.306L120.441 19.577H108.514V22.4176Z" fill="white"/>
<path d="M138.887 13.1868V25.8647H135.645V13.1868H127.059L129.098 9.70248H145.327L142.424 13.1868H138.887Z" fill="white"/>
<path d="M142.424 13.1868L140.278 9.70248H150.862C154.632 9.70248 156.601 11.0439 156.601 14.7958C156.601 17.0403 154.572 18.635 152.542 19.0839L156.601 25.8647H152.862L148.473 19.1626H144.325V25.8647H141.084V15.4974H151.764C152.647 15.4974 152.867 14.7026 152.867 14.2857C152.867 13.8688 152.542 13.1868 151.764 13.1868H142.424Z" fill="white"/>
<path d="M166.764 19.0839L163.676 13.8072L157.5 23.7362L155.68 20.6551L162.573 9.7025L165.661 9.70248L175.074 25.8647H170.735L168.75 22.6097H160.367L162.573 19.1626L166.764 19.0839Z" fill="white"/>
<path d="M178.897 13.1868H169.874L167.838 9.70248H179.341C183.75 9.70248 187.892 13.3787 187.696 18.008C187.5 22.6373 184.023 25.8647 179.341 25.8647H177.309L172.704 17.9617V15.0765H175.945V22.1995H179.341C182.647 22.1995 184.023 20.3412 184.023 17.5685C184.023 14.7958 181.375 13.1868 178.897 13.1868Z" fill="white"/>
<path d="M192.946 22.6391H202.72L200.67 25.8647H189.704V9.70248H210L207.744 13.3677H192.946V16.3952H206.029L204.123 19.5328H192.946V22.6391Z" fill="white"/>
<path fill-rule="evenodd" clip-rule="evenodd" d="M13.7961 27.4912C10.1371 27.4912 6.62804 26.043 4.04078 23.4652C1.45351 20.8874 0 17.3911 0 13.7456C0 10.1 1.45351 6.60379 4.04078 4.02599C6.41027 1.66517 9.55294 0.251792 12.8758 0.0305897V1.12532e-05H13.7784H13.7961H38.8233L34.6321 7.33099H13.7961V7.33689C12.0901 7.33689 10.4541 8.01209 9.2478 9.21395C8.04152 10.4158 7.36384 12.0459 7.36384 13.7456C7.36384 15.4453 8.04152 17.0754 9.2478 18.2772C10.4541 19.4791 12.0901 20.1543 13.7961 20.1543H22.4999V27.4912H13.7961ZM44.5591 10.1099H34.4121V17.5824H40.473L44.5591 10.1099ZM24.707 17.5824L24.707 40L32.207 27.585V10.1099H25.5877H24.707H14.1172V17.5824H24.707Z" fill="url(#paint0_linear_251_701)"/>
<path d="M56.9983 37.1834L56.9884 33.0151L54.9439 36.449H54.2194L52.1848 33.1044V37.1834H50.6763V30.2361H52.0062L54.6065 34.5534L57.167 30.2361H58.487L58.5068 37.1834H56.9983ZM84.5797 35.6947H81.3542L80.7389 37.1834H79.0914L82.1879 30.2361H83.7758L86.8822 37.1834H85.195L84.5797 35.6947ZM84.0736 34.474L82.9719 31.8142L81.8703 34.474H84.0736ZM111.879 37.1834L110.539 35.2481H110.46H109.06V37.1834H107.452V30.2361H110.46C111.075 30.2361 111.607 30.3387 112.057 30.5438C112.514 30.7489 112.865 31.04 113.109 31.4172C113.354 31.7943 113.477 32.2409 113.477 32.757C113.477 33.2731 113.351 33.7197 113.099 34.0968C112.855 34.4674 112.504 34.7519 112.047 34.9504L113.606 37.1834H111.879ZM111.849 32.757C111.849 32.3666 111.723 32.0689 111.472 31.8638C111.22 31.6521 110.853 31.5462 110.37 31.5462H109.06V33.9678H110.37C110.853 33.9678 111.22 33.862 111.472 33.6502C111.723 33.4385 111.849 33.1408 111.849 32.757ZM137.131 34.4541L136.198 35.4267V37.1834H134.6V30.2361H136.198V33.4815L139.274 30.2361H141.061L138.183 33.3326L141.229 37.1834H139.354L137.131 34.4541ZM167.175 35.8932V37.1834H161.796V30.2361H167.046V31.5264H163.394V33.0349H166.619V34.2854H163.394V35.8932H167.175ZM189.743 31.5462H187.519V30.2361H193.573V31.5462H191.35V37.1834H189.743V31.5462Z" fill="white"/>
<defs>
<linearGradient id="paint0_linear_251_701" x1="5.07357" y1="25.9341" x2="44.4711" y2="-0.133124" gradientUnits="userSpaceOnUse">
<stop stop-color="#FF41B3"/>
<stop offset="1" stop-color="#379FFF"/>
</linearGradient>
</defs>
</svg>
