<svg width="24" height="25" viewBox="0 0 24 25" fill="none" xmlns="http://www.w3.org/2000/svg">
<path d="M10.5065 21.2951C6.25211 20.5733 3.00836 16.8428 3.00558 12.3513C3.0028 7.85984 6.24194 4.13335 10.4955 3.41674L10.4936 0.363408C4.57819 1.1032 0.00360587 6.18616 0.0074184 12.3495C0.0112309 18.5128 4.59211 23.6014 10.5084 24.3485L10.5065 21.2951Z" fill="url(#paint0_linear_5203_44491)"/>
<path d="M12.0038 18.3999C8.69213 18.3978 6.00581 15.6906 6.00375 12.3532C6.00168 9.01569 8.68466 6.3118 11.9963 6.31384C14.2158 6.31521 16.1544 7.53165 17.1923 9.33855L20.4809 9.34058C19.4053 6.27844 16.7445 3.97018 13.4936 3.41859L13.4917 0.365258C19.408 1.11235 23.9889 6.20096 23.9927 12.3643C23.9965 18.5276 19.422 23.6105 13.5066 24.3503L13.5047 21.297C17.2707 20.6625 20.2416 17.6685 20.8711 13.8731C20.9526 13.3818 20.9949 12.8771 20.9946 12.3624C20.9942 11.8477 20.9514 11.3429 20.8693 10.8516L17.8066 10.8497L11.9991 10.8461L12.001 13.8676L17.8084 13.8712C17.1444 16.4772 14.7979 18.4016 12.0038 18.3999Z" fill="url(#paint1_linear_5203_44491)"/>
<defs>
<linearGradient id="paint0_linear_5203_44491" x1="2.74062" y1="15.9094" x2="25.2637" y2="2.52263" gradientUnits="userSpaceOnUse">
<stop stop-color="#F6DA4A"/>
<stop offset="0.213542" stop-color="#D89C08"/>
<stop offset="0.411458" stop-color="#F5D838"/>
<stop offset="0.614583" stop-color="#D89C08"/>
<stop offset="0.838542" stop-color="#F5D838"/>
<stop offset="1" stop-color="#D89C08"/>
</linearGradient>
<linearGradient id="paint1_linear_5203_44491" x1="2.74062" y1="15.9094" x2="25.2637" y2="2.52263" gradientUnits="userSpaceOnUse">
<stop stop-color="#F6DA4A"/>
<stop offset="0.213542" stop-color="#D89C08"/>
<stop offset="0.411458" stop-color="#F5D838"/>
<stop offset="0.614583" stop-color="#D89C08"/>
<stop offset="0.838542" stop-color="#F5D838"/>
<stop offset="1" stop-color="#D89C08"/>
</linearGradient>
</defs>
</svg>
