<svg width="30" height="30" viewBox="0 0 30 30" fill="none" xmlns="http://www.w3.org/2000/svg">
<path d="M20.25 14.5L20.75 14.5L20.75 15.5L20.25 15.5L20.25 14.5ZM9.75 15L9.39645 15.3536L9.04289 15L9.39645 14.6464L9.75 15ZM14.6464 9.39645L15 9.04289L15.7071 9.75L15.3536 10.1036L14.6464 9.39645ZM15.3536 19.8964L15.7071 20.25L15 20.9571L14.6464 20.6036L15.3536 19.8964ZM20.25 15.5L9.75 15.5L9.75 14.5L20.25 14.5L20.25 15.5ZM15.3536 10.1036L10.1036 15.3536L9.39645 14.6464L14.6464 9.39645L15.3536 10.1036ZM10.1036 14.6464L15.3536 19.8964L14.6464 20.6036L9.39645 15.3536L10.1036 14.6464Z" fill="#379FFF"/>
</svg>
