<svg width="12" height="16" viewBox="0 0 12 16" fill="none" xmlns="http://www.w3.org/2000/svg">
<path d="M11 6.72727V8C11 9.18142 10.4732 10.3144 9.53553 11.1498C8.59785 11.9852 7.32608 12.4545 6 12.4545M6 12.4545C4.67392 12.4545 3.40215 11.9852 2.46447 11.1498C1.52678 10.3144 1 9.18142 1 8V6.72727M6 12.4545V15M3.14286 15H8.85714M6 1C5.43168 1 4.88663 1.20114 4.48477 1.55916C4.08291 1.91718 3.85714 2.40277 3.85714 2.90909V8C3.85714 8.50632 4.08291 8.99191 4.48477 9.34993C4.88663 9.70796 5.43168 9.90909 6 9.90909C6.56832 9.90909 7.11337 9.70796 7.51523 9.34993C7.91709 8.99191 8.14286 8.50632 8.14286 8V2.90909C8.14286 2.40277 7.91709 1.91718 7.51523 1.55916C7.11337 1.20114 6.56832 1 6 1Z" stroke="#A073A7" stroke-linecap="round" stroke-linejoin="round"/>
</svg>
