<svg width="14" height="10" viewBox="0 0 14 10" fill="none" xmlns="http://www.w3.org/2000/svg">
<path d="M12.264 0.198009C10.699 0.528009 9.18698 1.19201 8.17998 2.41401C7.6304 3.08614 7.22836 3.86637 6.99998 4.70401C6.7716 3.86637 6.36956 3.08614 5.81998 2.41401C4.81298 1.19201 3.30098 0.527009 1.73598 0.198009C1.37898 0.123009 0.98598 0.0170091 0.61998 0.00100908C-0.10002 -0.0299909 0.00797986 0.949009 0.00397986 1.44001C-0.00202014 2.10601 0.10698 2.76801 0.25298 3.41901C0.42398 4.18301 0.56398 4.99001 1.10398 5.61201C1.45998 6.02201 1.94998 6.30401 2.42498 6.58401C2.50798 6.63201 2.59398 6.68401 2.63798 6.76701C2.68798 6.86201 2.67098 6.97501 2.65398 7.08001L2.27098 9.32501C2.24198 9.49301 2.22298 9.69101 2.35198 9.80901C2.42165 9.86339 2.50381 9.89948 2.59098 9.91401C4.12498 10.281 5.80198 9.43601 6.60098 8.14001C6.77698 7.85401 6.90598 7.55501 6.99998 7.24701C7.09398 7.55501 7.22298 7.85401 7.39898 8.14001C8.19798 9.43601 9.87498 10.281 11.409 9.91401C11.4958 9.89936 11.5776 9.86327 11.647 9.80901C11.777 9.69101 11.757 9.49301 11.729 9.32501L11.346 7.08001C11.328 6.97501 11.312 6.86201 11.362 6.76701C11.406 6.68501 11.492 6.63201 11.574 6.58401C12.05 6.30401 12.54 6.02301 12.896 5.61201C13.436 4.99001 13.576 4.18201 13.747 3.41901C13.893 2.76901 14.002 2.10601 13.997 1.43901C13.992 0.949009 14.101 -0.0309909 13.38 0.00100908C13.014 0.0170091 12.621 0.123009 12.264 0.198009V0.198009Z" fill="#FF5341"/>
</svg>
