<svg width="17" height="15" viewBox="0 0 17 15" fill="none" xmlns="http://www.w3.org/2000/svg">
<path fill-rule="evenodd" clip-rule="evenodd" d="M7.69137 11.3454C6.74202 10.7688 5.09887 9.37616 5.06387 9.40612C4.19252 10.0984 3.27329 10.7283 2.31308 11.2909L1.01802 10.0447C1.02512 10.0415 3.05689 8.71639 3.73446 8.13074C2.94155 7.26905 2.31117 6.27096 1.87378 5.18473L3.55194 4.56102C3.91855 5.44355 4.4295 6.25891 5.06386 6.97366C5.92854 5.91727 6.54287 4.67885 6.86077 3.35124L0.5 3.33334V1.66096H4.51033V3.14179e-05L6.15308 3.05176e-05V1.66096H10.4617V3.33334H8.72295C8.29571 5.05595 7.5493 6.68319 6.52241 8.13075C7.11913 8.64836 7.76099 9.11151 8.44032 9.51465L10.3498 4.15341L12.1667 4.16667L14.6902 10.9636L16.2371 14.6178H14.1755L13.2734 12.5017H9.23942L8.49942 14.6178H6.33333L6.5725 14.0414L7.69137 11.3454ZM9.88951 10.8346L11.2856 7.03948L12.6817 10.8346H9.88951Z" fill="#FF41B3"/>
</svg>
