<svg width="20" height="19" viewBox="0 0 20 19" fill="none" xmlns="http://www.w3.org/2000/svg">
<path d="M4.12073 11.9121H3.28556C2.84257 11.9121 2.41771 11.7361 2.10446 11.4228C1.79121 11.1096 1.61523 10.6847 1.61523 10.2417V2.72526C1.61523 2.28226 1.79121 1.85741 2.10446 1.54416C2.41771 1.23091 2.84257 1.05493 3.28556 1.05493H10.802C11.245 1.05493 11.6699 1.23091 11.9831 1.54416C12.2964 1.85741 12.4724 2.28226 12.4724 2.72526V3.56043M9.13172 6.90109H16.6482C17.5707 6.90109 18.3185 7.64892 18.3185 8.57142V16.0879C18.3185 17.0104 17.5707 17.7582 16.6482 17.7582H9.13172C8.20922 17.7582 7.46139 17.0104 7.46139 16.0879V8.57142C7.46139 7.64892 8.20922 6.90109 9.13172 6.90109Z" stroke="#FF41B3" stroke-width="1.67033" stroke-linecap="round" stroke-linejoin="round"/>
</svg>
