<svg width="16" height="16" viewBox="0 0 16 16" fill="none" xmlns="http://www.w3.org/2000/svg">
<path fill-rule="evenodd" clip-rule="evenodd" d="M1 7.58333C1 3.94746 3.94746 1 7.58333 1C11.2192 1 14.1667 3.94746 14.1667 7.58333C14.1667 11.2192 11.2192 14.1667 7.58333 14.1667C3.94746 14.1667 1 11.2192 1 7.58333ZM7.58333 0C3.39517 0 0 3.39517 0 7.58333C0 11.7715 3.39517 15.1667 7.58333 15.1667C11.7715 15.1667 15.1667 11.7715 15.1667 7.58333C15.1667 3.39517 11.7715 0 7.58333 0ZM5.14924 8.69898L5.14958 8.69944L5.14977 8.6997L5.15439 8.70556C5.15978 8.71237 5.16905 8.72388 5.1821 8.73944C5.20824 8.77058 5.24934 8.81766 5.30468 8.8754C5.41576 8.99132 5.58177 9.14766 5.79669 9.30397C6.22845 9.61797 6.83568 9.91667 7.58333 9.91667C8.33098 9.91667 8.93822 9.61797 9.36998 9.30397C9.58489 9.14766 9.7509 8.99132 9.86199 8.8754C9.91732 8.81766 9.95843 8.77058 9.98457 8.73944C9.99762 8.72388 10.0069 8.71237 10.0123 8.70556L10.0169 8.6997L10.0171 8.69944L10.0174 8.69903C10.1833 8.47895 10.4961 8.43456 10.7167 8.6C10.9376 8.76569 10.9824 9.07909 10.8167 9.3L10.4167 9C10.8167 9.3 10.8165 9.30016 10.8164 9.30033L10.8161 9.30069L10.8155 9.30151L10.814 9.30355L10.8097 9.30915L10.7963 9.32626C10.7853 9.3402 10.77 9.35912 10.7505 9.38231C10.7117 9.42864 10.6559 9.49224 10.584 9.56731C10.4405 9.71702 10.2302 9.91484 9.95815 10.1127C9.41595 10.507 8.60652 10.9167 7.58333 10.9167C6.56015 10.9167 5.75072 10.507 5.20852 10.1127C4.93646 9.91484 4.72616 9.71702 4.58269 9.56731C4.51075 9.49224 4.45501 9.42864 4.41613 9.38231C4.39667 9.35912 4.38138 9.3402 4.37034 9.32626L4.35697 9.30915L4.35268 9.30355L4.35114 9.30151L4.35052 9.30069L4.35025 9.30033C4.35012 9.30016 4.35 9.3 4.75 9L4.35 9.3C4.18431 9.07909 4.22909 8.76569 4.45 8.6C4.67044 8.43467 4.98297 8.4789 5.14893 8.69858L5.14924 8.69898ZM4.45898 5.4585C4.45898 4.90621 4.9067 4.4585 5.45898 4.4585H5.46648C6.01877 4.4585 6.46648 4.90621 6.46648 5.4585C6.46648 6.01078 6.01877 6.4585 5.46648 6.4585H5.45898C4.9067 6.4585 4.45898 6.01078 4.45898 5.4585ZM9.70898 4.4585C9.1567 4.4585 8.70898 4.90621 8.70898 5.4585C8.70898 6.01078 9.1567 6.4585 9.70898 6.4585H9.71649C10.2688 6.4585 10.7165 6.01078 10.7165 5.4585C10.7165 4.90621 10.2688 4.4585 9.71649 4.4585H9.70898Z" fill="#A073A7"/>
</svg>
