<svg width="51" height="51" viewBox="0 0 51 51" fill="none" xmlns="http://www.w3.org/2000/svg">
<path d="M33.4821 18.9321L34.1892 18.225L32.775 16.8108L32.0679 17.5179L33.4821 18.9321ZM17.5179 32.0679L16.8108 32.775L18.225 34.1892L18.9321 33.4821L17.5179 32.0679ZM18.9321 17.5179L18.225 16.8108L16.8108 18.225L17.5179 18.9321L18.9321 17.5179ZM32.0679 33.4821L32.775 34.1892L34.1892 32.775L33.4821 32.0679L32.0679 33.4821ZM48.75 25.5C48.75 38.3406 38.3406 48.75 25.5 48.75V50.75C39.4452 50.75 50.75 39.4452 50.75 25.5H48.75ZM25.5 48.75C12.6594 48.75 2.25 38.3406 2.25 25.5H0.25C0.25 39.4452 11.5548 50.75 25.5 50.75V48.75ZM2.25 25.5C2.25 12.6594 12.6594 2.25 25.5 2.25V0.25C11.5548 0.25 0.25 11.5548 0.25 25.5H2.25ZM25.5 2.25C38.3406 2.25 48.75 12.6594 48.75 25.5H50.75C50.75 11.5548 39.4452 0.25 25.5 0.25V2.25ZM32.0679 17.5179L24.7929 24.7929L26.2071 26.2071L33.4821 18.9321L32.0679 17.5179ZM24.7929 24.7929L17.5179 32.0679L18.9321 33.4821L26.2071 26.2071L24.7929 24.7929ZM17.5179 18.9321L24.7929 26.2071L26.2071 24.7929L18.9321 17.5179L17.5179 18.9321ZM24.7929 26.2071L32.0679 33.4821L33.4821 32.0679L26.2071 24.7929L24.7929 26.2071Z" fill="#FF41B3"/>
</svg>
