<svg width="17" height="16" viewBox="0 0 17 16" fill="none" xmlns="http://www.w3.org/2000/svg">
<path d="M9.94545 9.34909C9.75819 9.53666 9.53238 9.6871 9.28147 9.79144C9.03056 9.89579 8.75971 9.95189 8.48506 9.95641C8.21042 9.96094 7.93761 9.91378 7.68292 9.81777C7.42822 9.72175 7.19686 9.57884 7.00262 9.39755C6.80839 9.21627 6.65527 9.00033 6.55239 8.76261C6.44952 8.5249 6.399 8.27028 6.40384 8.01394C6.40869 7.75761 6.4688 7.50481 6.5806 7.27063C6.69239 7.03645 6.85358 6.82569 7.05455 6.65091M1 1L16 15M12.55 11.78C11.3845 12.6092 9.9653 13.0685 8.5 13.0909C3.72727 13.0909 1 8 1 8C1.84811 6.52484 3.02441 5.23602 4.45 4.22L12.55 11.78ZM7.06818 3.06182C7.5375 2.95929 8.018 2.90803 8.5 2.90909C13.2727 2.90909 16 8 16 8C15.5861 8.72266 15.0925 9.40301 14.5273 10.03L7.06818 3.06182Z" stroke="#A073A7" stroke-linecap="square"/>
</svg>
