<svg width="41" height="40" viewBox="0 0 41 40" fill="none" xmlns="http://www.w3.org/2000/svg">
<path d="M11.748 11V10.5H11.248V11H11.748ZM18.748 11H19.248V10.5H18.748V11ZM18.748 18V18.5H19.248V18H18.748ZM11.748 18H11.248V18.5H11.748V18ZM22.748 11V10.5H22.248V11H22.748ZM29.748 11H30.248V10.5H29.748V11ZM29.748 18V18.5H30.248V18H29.748ZM22.748 18H22.248V18.5H22.748V18ZM22.748 22V21.5H22.248V22H22.748ZM29.748 22H30.248V21.5H29.748V22ZM29.748 29V29.5H30.248V29H29.748ZM22.748 29H22.248V29.5H22.748V29ZM11.748 22V21.5H11.248V22H11.748ZM18.748 22H19.248V21.5H18.748V22ZM18.748 29V29.5H19.248V29H18.748ZM11.748 29H11.248V29.5H11.748V29ZM11.748 11.5H18.748V10.5H11.748V11.5ZM18.248 11V18H19.248V11H18.248ZM18.748 17.5H11.748V18.5H18.748V17.5ZM12.248 18V11H11.248V18H12.248ZM22.748 11.5H29.748V10.5H22.748V11.5ZM29.248 11V18H30.248V11H29.248ZM29.748 17.5H22.748V18.5H29.748V17.5ZM23.248 18V11H22.248V18H23.248ZM22.748 22.5H29.748V21.5H22.748V22.5ZM29.248 22V29H30.248V22H29.248ZM29.748 28.5H22.748V29.5H29.748V28.5ZM23.248 29V22H22.248V29H23.248ZM11.748 22.5H18.748V21.5H11.748V22.5ZM18.248 22V29H19.248V22H18.248ZM18.748 28.5H11.748V29.5H18.748V28.5ZM12.248 29V22H11.248V29H12.248Z" fill="#0F0912"/>
</svg>
