<svg width="40" height="40" viewBox="0 0 40 40" fill="none" xmlns="http://www.w3.org/2000/svg">
<path d="M10.9648 11V10.5H10.4648V11H10.9648ZM15.3384 11H15.8384V10.5H15.3384V11ZM15.3384 15.2712V15.7712H15.8384V15.2712H15.3384ZM10.9648 15.2712H10.4648V15.7712H10.9648V15.2712ZM17.8375 11V10.5H17.3375V11H17.8375ZM22.2111 11H22.7111V10.5H22.2111V11ZM22.2111 15.2712V15.7712H22.7111V15.2712H22.2111ZM17.8375 15.2712H17.3375V15.7712H17.8375V15.2712ZM17.8375 17.7119V17.2119H17.3375V17.7119H17.8375ZM22.2111 17.7119H22.7111V17.2119H22.2111V17.7119ZM22.2111 21.9831V22.4831H22.7111V21.9831H22.2111ZM17.8375 21.9831H17.3375V22.4831H17.8375V21.9831ZM10.9648 17.7119V17.2119H10.4648V17.7119H10.9648ZM15.3384 17.7119H15.8384V17.2119H15.3384V17.7119ZM15.3384 21.9831V22.4831H15.8384V21.9831H15.3384ZM10.9648 21.9831H10.4648V22.4831H10.9648V21.9831ZM24.5913 11V10.5H24.0913V11H24.5913ZM28.9648 11H29.4648V10.5H28.9648V11ZM28.9648 15.2712V15.7712H29.4648V15.2712H28.9648ZM24.5913 15.2712H24.0913V15.7712H24.5913V15.2712ZM24.5913 17.7119V17.2119H24.0913V17.7119H24.5913ZM28.9648 17.7119H29.4648V17.2119H28.9648V17.7119ZM28.9648 21.9831V22.4831H29.4648V21.9831H28.9648ZM24.5913 21.9831H24.0913V22.4831H24.5913V21.9831ZM17.8375 24.7288V24.2288H17.3375V24.7288H17.8375ZM22.2111 24.7288H22.7111V24.2288H22.2111V24.7288ZM22.2111 29V29.5H22.7111V29H22.2111ZM17.8375 29H17.3375V29.5H17.8375V29ZM10.9648 24.7288V24.2288H10.4648V24.7288H10.9648ZM15.3384 24.7288H15.8384V24.2288H15.3384V24.7288ZM15.3384 29V29.5H15.8384V29H15.3384ZM10.9648 29H10.4648V29.5H10.9648V29ZM24.5913 24.7288V24.2288H24.0913V24.7288H24.5913ZM28.9648 24.7288H29.4648V24.2288H28.9648V24.7288ZM28.9648 29V29.5H29.4648V29H28.9648ZM24.5913 29H24.0913V29.5H24.5913V29ZM10.9648 11.5H15.3384V10.5H10.9648V11.5ZM14.8384 11V15.2712H15.8384V11H14.8384ZM15.3384 14.7712H10.9648V15.7712H15.3384V14.7712ZM11.4648 15.2712V11H10.4648V15.2712H11.4648ZM17.8375 11.5H22.2111V10.5H17.8375V11.5ZM21.7111 11V15.2712H22.7111V11H21.7111ZM22.2111 14.7712H17.8375V15.7712H22.2111V14.7712ZM18.3375 15.2712V11H17.3375V15.2712H18.3375ZM17.8375 18.2119H22.2111V17.2119H17.8375V18.2119ZM21.7111 17.7119V21.9831H22.7111V17.7119H21.7111ZM22.2111 21.4831H17.8375V22.4831H22.2111V21.4831ZM18.3375 21.9831V17.7119H17.3375V21.9831H18.3375ZM10.9648 18.2119H15.3384V17.2119H10.9648V18.2119ZM14.8384 17.7119V21.9831H15.8384V17.7119H14.8384ZM15.3384 21.4831H10.9648V22.4831H15.3384V21.4831ZM11.4648 21.9831V17.7119H10.4648V21.9831H11.4648ZM24.5913 11.5H28.9648V10.5H24.5913V11.5ZM28.4648 11V15.2712H29.4648V11H28.4648ZM28.9648 14.7712H24.5913V15.7712H28.9648V14.7712ZM25.0913 15.2712V11H24.0913V15.2712H25.0913ZM24.5913 18.2119H28.9648V17.2119H24.5913V18.2119ZM28.4648 17.7119V21.9831H29.4648V17.7119H28.4648ZM28.9648 21.4831H24.5913V22.4831H28.9648V21.4831ZM25.0913 21.9831V17.7119H24.0913V21.9831H25.0913ZM17.8375 25.2288H22.2111V24.2288H17.8375V25.2288ZM21.7111 24.7288V29H22.7111V24.7288H21.7111ZM22.2111 28.5H17.8375V29.5H22.2111V28.5ZM18.3375 29V24.7288H17.3375V29H18.3375ZM10.9648 25.2288H15.3384V24.2288H10.9648V25.2288ZM14.8384 24.7288V29H15.8384V24.7288H14.8384ZM15.3384 28.5H10.9648V29.5H15.3384V28.5ZM11.4648 29V24.7288H10.4648V29H11.4648ZM24.5913 25.2288H28.9648V24.2288H24.5913V25.2288ZM28.4648 24.7288V29H29.4648V24.7288H28.4648ZM28.9648 28.5H24.5913V29.5H28.9648V28.5ZM25.0913 29V24.7288H24.0913V29H25.0913Z" fill="#0F0912"/>
</svg>
