<svg width="17" height="16" viewBox="0 0 17 16" fill="none" xmlns="http://www.w3.org/2000/svg">
<path d="M4.74211 6.24862H5.24211V5.24862H4.74211V6.24862ZM1 5.74862H0.5V6.24862H1V5.74862ZM1.5 1.93008V1.43008H0.5V1.93008H1.5ZM12.9916 3.40142L13.3413 3.75878L14.056 3.05938L13.7063 2.70202L12.9916 3.40142ZM3.65066 3.05172L4.00726 3.4022L4.00803 3.40142L3.65066 3.05172ZM4.74211 5.24862H1V6.24862H4.74211V5.24862ZM1.5 5.74862V1.93008H0.5V5.74862H1.5ZM13.7063 2.70202C13.0239 2.00463 12.2129 1.45083 11.3194 1.07278L10.9297 1.99374C11.7004 2.3198 12.4011 2.79798 12.9916 3.40142L13.7063 2.70202ZM11.3194 1.07278C10.4259 0.69473 9.46772 0.5 8.49982 0.5V1.5C9.33343 1.5 10.1591 1.66769 10.9297 1.99374L11.3194 1.07278ZM8.49982 0.5C7.53192 0.5 6.57376 0.69473 5.68025 1.07278L6.06991 1.99374C6.84052 1.66769 7.66621 1.5 8.49982 1.5V0.5ZM5.68025 1.07278C4.78675 1.45083 3.97573 2.00463 3.2933 2.70202L4.00803 3.40142C4.59853 2.79798 5.29928 2.3198 6.06991 1.99374L5.68025 1.07278ZM3.29407 2.70124L0.643403 5.39813L1.3566 6.0991L4.00726 3.4022L3.29407 2.70124Z" fill="white"/>
<path d="M12.2577 9.75146H11.7577V10.7515H12.2577V9.75146ZM15.9999 10.2515H16.4999V9.75146H15.9999V10.2515ZM15.4999 14.07V14.57H16.4999V14.07H15.4999ZM4.00775 12.5986L3.65805 12.2412L2.94333 12.9406L3.29303 13.298L4.00775 12.5986ZM13.3487 12.9483L12.9921 12.5978L12.9913 12.5986L13.3487 12.9483ZM12.2577 10.7515H15.9999V9.75146H12.2577V10.7515ZM15.4999 10.2515V14.07H16.4999V10.2515H15.4999ZM3.29303 13.298C3.97546 13.9954 4.78648 14.5492 5.67997 14.9272L6.06964 14.0063C5.299 13.6802 4.59826 13.202 4.00775 12.5986L3.29303 13.298ZM5.67997 14.9272C6.57349 15.3053 7.53165 15.5 8.49955 15.5V14.5C7.66593 14.5 6.84025 14.3323 6.06964 14.0063L5.67997 14.9272ZM8.49955 15.5C9.46745 15.5 10.4256 15.3053 11.3191 14.9272L10.9295 14.0063C10.1588 14.3323 9.33316 14.5 8.49955 14.5V15.5ZM11.3191 14.9272C12.2126 14.5492 13.0236 13.9954 13.7061 13.298L12.9913 12.5986C12.4008 13.202 11.7001 13.6802 10.9295 14.0063L11.3191 14.9272ZM13.7053 13.2988L16.3564 10.602L15.6433 9.90094L12.9921 12.5978L13.7053 13.2988Z" fill="white"/>
</svg>
