<svg width="26" height="26" viewBox="0 0 26 26" fill="none" xmlns="http://www.w3.org/2000/svg">
<path d="M9.86938 5.53589L15.9923 5.53847L20.3201 9.86986L20.3175 15.9928L15.9861 20.3205L9.86315 20.318L5.5354 15.9866L5.53798 9.86363L9.86938 5.53589Z" fill="#FF41B3" stroke="#FF41B3"/>
<path d="M16.0335 13.4861V15.7131L14.8022 16.9566H13.6605V18.2H12.3845V16.9566H11.1757L9.9668 15.7357V14.6053H11.4667V15.2722L11.836 15.6453H12.3845V13.5766H11.198L9.98918 12.3557V10.2644L11.198 9.04353H12.3845V7.80005H13.6605V9.04353H14.7351L15.9439 10.2644V11.4061H14.444V10.7279L14.0747 10.3548H13.6605V12.2653H14.8246L16.0335 13.4861ZM12.3845 12.2653V10.3548H11.8584L11.4891 10.7279V11.8922L11.8584 12.2653H12.3845ZM14.5336 13.9496L14.1642 13.5766H13.6605V15.6453H14.153L14.5336 15.2609V13.9496Z" fill="white"/>
</svg>
