<svg width="12" height="13" viewBox="0 0 12 13" fill="none" xmlns="http://www.w3.org/2000/svg">
<path d="M11 12V12.5C11.2761 12.5 11.5 12.2761 11.5 12H11ZM1 12H0.5C0.5 12.2761 0.723858 12.5 1 12.5V12ZM2.5 5V5.5H3.5V5H2.5ZM3 3.22222H2.5H3ZM8.5 5V5.5H9.5V5H8.5ZM2.11111 5.5H9.88889V4.5H2.11111V5.5ZM9.88889 5.5C10.1648 5.5 10.5 5.78003 10.5 6.27273H11.5C11.5 5.35961 10.8403 4.5 9.88889 4.5V5.5ZM11 11.5H1V12.5H11V11.5ZM1.5 6.27273C1.5 5.78003 1.83522 5.5 2.11111 5.5V4.5C1.15971 4.5 0.5 5.35961 0.5 6.27273H1.5ZM3.5 5V3.22222H2.5V5H3.5ZM3.5 3.22222C3.5 2.82217 3.71394 2.39513 4.17629 2.05265L3.58107 1.2491C2.9182 1.74011 2.5 2.44354 2.5 3.22222H3.5ZM4.17629 2.05265C4.64128 1.70822 5.29626 1.5 6 1.5V0.5C5.11244 0.5 4.24129 0.760037 3.58107 1.2491L4.17629 2.05265ZM6 1.5C6.70374 1.5 7.35872 1.70822 7.82371 2.05265L8.41893 1.2491C7.75871 0.760037 6.88756 0.5 6 0.5V1.5ZM7.82371 2.05265C8.28606 2.39513 8.5 2.82217 8.5 3.22222H9.5C9.5 2.44354 9.0818 1.74011 8.41893 1.2491L7.82371 2.05265ZM8.5 3.22222V5H9.5V3.22222H8.5ZM10.5 6.27273V12H11.5V6.27273H10.5ZM1.5 12V6.27273H0.5V12H1.5Z" fill="#379FFF"/>
</svg>
