<svg width="12" height="13" viewBox="0 0 12 13" fill="none" xmlns="http://www.w3.org/2000/svg">
<path d="M10.5 12C10.5 12.2761 10.7239 12.5 11 12.5C11.2761 12.5 11.5 12.2761 11.5 12H10.5ZM8.5 8.33333V7.83333V8.33333ZM3.5 8.33333L3.5 7.83333L3.5 8.33333ZM1 10.7778H1.5H1ZM10.8867 12.5C11.1628 12.5 11.3867 12.2761 11.3867 12C11.3867 11.7239 11.1628 11.5 10.8867 11.5V12.5ZM1 12L0.5 12C0.5 12.1326 0.552678 12.2598 0.646447 12.3536C0.740215 12.4473 0.867392 12.5 1 12.5V12ZM11.5 12V10.7778H10.5V12H11.5ZM11.5 10.7778C11.5 9.99319 11.1811 9.24307 10.6173 8.69179L9.91821 9.4068C10.2921 9.77236 10.5 10.2658 10.5 10.7778H11.5ZM10.6173 8.69179C10.0539 8.14089 9.29207 7.83333 8.5 7.83333L8.5 8.83333C9.03401 8.83333 9.54395 9.04086 9.91821 9.4068L10.6173 8.69179ZM8.5 7.83333H3.5V8.83333H8.5V7.83333ZM3.5 7.83333C2.70793 7.83333 1.9461 8.14089 1.38267 8.69179L2.08179 9.4068C2.45605 9.04086 2.96599 8.83333 3.5 8.83333L3.5 7.83333ZM1.38267 8.69179C0.818865 9.24307 0.5 9.99319 0.5 10.7778H1.5C1.5 10.2658 1.70792 9.77236 2.08179 9.4068L1.38267 8.69179ZM8 3.44444C8 4.5078 7.11522 5.38889 6 5.38889V6.38889C7.6462 6.38889 9 5.08115 9 3.44444H8ZM6 5.38889C4.88478 5.38889 4 4.5078 4 3.44444H3C3 5.08115 4.3538 6.38889 6 6.38889V5.38889ZM4 3.44444C4 2.38109 4.88478 1.5 6 1.5V0.5C4.3538 0.5 3 1.80774 3 3.44444H4ZM6 1.5C7.11522 1.5 8 2.38109 8 3.44444H9C9 1.80774 7.6462 0.5 6 0.5V1.5ZM0.5 10.7778L0.5 12L1.5 12L1.5 10.7778L0.5 10.7778ZM1 12.5H10.8867V11.5H1V12.5Z" fill="#379FFF"/>
</svg>
