<svg width="12" height="12" viewBox="0 0 12 12" fill="none" xmlns="http://www.w3.org/2000/svg">
<path d="M10.606 6.44975L11.106 6.44975L11.106 5.44975L10.606 5.44975L10.606 6.44975ZM0.706503 5.44975L0.206503 5.44975L0.206503 6.44975L0.706503 6.44975L0.706503 5.44975ZM6.15625 1V0.5H5.15625V1H6.15625ZM5.15625 10.8995V11.3995H6.15625V10.8995H5.15625ZM10.606 5.44975L5.65625 5.44975V6.44975L10.606 6.44975L10.606 5.44975ZM5.65625 5.44975L0.706503 5.44975L0.706503 6.44975L5.65625 6.44975V5.44975ZM5.15625 1L5.15625 5.94975H6.15625L6.15625 1H5.15625ZM5.15625 5.94975V10.8995H6.15625V5.94975H5.15625Z" fill="#379FFF"/>
</svg>
