<svg width="15" height="16" viewBox="0 0 15 16" fill="none" xmlns="http://www.w3.org/2000/svg">
<path d="M1 3.94618H2.42084M2.42084 3.94618H13.7876M2.42084 3.94618V13.8921C2.42084 14.2689 2.42084 15.3129 2.42084 15.3129C2.42084 15.3129 3.46486 15.3129 3.84169 15.3129C4.21852 15.3129 10.9459 15.3129 10.9459 15.3129C11.3227 15.3129 12.3667 15.3129 12.3667 15.3129C12.3667 15.3129 12.3667 14.2689 12.3667 13.8921V3.94618H2.42084ZM4.55211 3.94618V2.52534C4.55211 2.1485 4.7018 1.78711 4.96826 1.52065C5.23472 1.25419 5.59612 1.10449 5.97295 1.10449H8.81464C9.19147 1.10449 9.55287 1.25419 9.81933 1.52065C10.0858 1.78711 10.2355 2.1485 10.2355 2.52534V3.94618M5.97295 7.49829V11.7608M8.81464 7.49829V11.7608" stroke="#379FFF" stroke-linecap="square"/>
</svg>
