<svg width="30" height="30" viewBox="0 0 30 30" fill="none" xmlns="http://www.w3.org/2000/svg">
<path d="M15.004 14V22M15.004 14L18 17.5577M15.004 14L12 17.5577" stroke="#379FFF" stroke-linecap="square"/>
<path d="M21.8674 20C22.6654 19.5508 23.2957 18.8399 23.659 17.9797C24.0223 17.1194 24.0978 16.1587 23.8736 15.2492C23.6494 14.3397 23.1384 13.5332 22.421 12.957C21.7037 12.3807 20.821 12.0676 19.9122 12.067H18.8814C18.6337 11.0779 18.1722 10.1596 17.5314 9.38121C16.8907 8.60282 16.0874 7.98457 15.182 7.57293C14.2765 7.16129 13.2925 6.96697 12.3039 7.00458C11.3152 7.0422 10.3477 7.31077 9.47409 7.7901C8.60045 8.26943 7.84339 8.94705 7.25985 9.77202C6.6763 10.597 6.28145 11.5478 6.10497 12.5531C5.9285 13.5583 5.975 14.5918 6.24097 15.5758C6.50694 16.5598 6.98547 17.4687 7.64057 18.2343" stroke="#379FFF" stroke-linecap="square" stroke-linejoin="round"/>
</svg>
