<svg width="30" height="31" viewBox="0 0 30 31" fill="none" xmlns="http://www.w3.org/2000/svg">
<path d="M11.8694 8.03589L17.9923 8.03847L22.3201 12.3699L22.3175 18.4928L17.9861 22.8205L11.8631 22.818L7.5354 18.4866L7.53798 12.3636L11.8694 8.03589Z" fill="#FF41B3" stroke="#FF41B3"/>
<path d="M18.2929 12.7929L19 12.0858L20.4142 13.5L19.7071 14.2071L18.2929 12.7929ZM14 18.5L14.7071 19.2071L14 19.9142L13.2929 19.2071L14 18.5ZM10.2929 16.2071L9.58579 15.5L11 14.0858L11.7071 14.7929L10.2929 16.2071ZM19.7071 14.2071L14.7071 19.2071L13.2929 17.7929L18.2929 12.7929L19.7071 14.2071ZM13.2929 19.2071L10.2929 16.2071L11.7071 14.7929L14.7071 17.7929L13.2929 19.2071Z" fill="white"/>
</svg>
