<svg width="21" height="13" viewBox="0 0 21 13" fill="none" xmlns="http://www.w3.org/2000/svg">
<path d="M4.30164 2.54049C7.72524 -0.846829 13.2748 -0.846829 16.7028 2.54049L17.1147 2.94768C17.2874 3.11772 17.2874 3.39067 17.1147 3.56071L15.7063 4.9568C15.6221 5.04182 15.4804 5.04182 15.3962 4.9568L14.8293 4.39747C12.4421 2.03485 8.56675 2.03485 6.17953 4.39747L5.57276 4.99707C5.48861 5.08209 5.34688 5.08209 5.26273 4.99707L3.84989 3.60098C3.67716 3.43094 3.67716 3.15799 3.84989 2.98795L4.30164 2.54049ZM19.6171 5.42217L20.8705 6.66165C21.0432 6.83168 21.0432 7.10464 20.8705 7.27468L15.2146 12.8725C15.0419 13.0425 14.7673 13.0425 14.5946 12.8725L10.5775 8.89898C10.5332 8.8587 10.4668 8.8587 10.4225 8.89898L6.40984 12.8725C6.23711 13.0425 5.96251 13.0425 5.78978 12.8725L0.129548 7.27915C-0.0431825 7.10911 -0.0431825 6.83616 0.129548 6.66612L1.38295 5.42664C1.55568 5.2566 1.83028 5.2566 2.00301 5.42664L6.02009 9.40014C6.06438 9.44041 6.13081 9.44041 6.1751 9.40014L10.1878 5.42664C10.3605 5.2566 10.6351 5.2566 10.8078 5.42664L14.8249 9.40014C14.8692 9.44041 14.9356 9.44041 14.9799 9.40014L18.997 5.42664C19.1653 5.25213 19.4443 5.25213 19.6171 5.42217Z" fill="#3A99FB"/>
</svg>
