<svg width="22" height="21" viewBox="0 0 22 21" fill="none" xmlns="http://www.w3.org/2000/svg">
<path d="M20.7167 0.63623L12.4609 6.8206L13.9962 3.17595L20.7167 0.63623Z" fill="#E17726" stroke="#E17726" stroke-width="0.25" stroke-linecap="round" stroke-linejoin="round"/>
<path d="M1.67383 0.63623L9.85604 6.87832L8.39436 3.17595L1.67383 0.63623Z" fill="#E27625" stroke="#E27625" stroke-width="0.25" stroke-linecap="round" stroke-linejoin="round"/>
<path d="M17.7435 14.9756L15.5469 18.3729L20.2504 19.684L21.5978 15.0499L17.7435 14.9756Z" fill="#E27625" stroke="#E27625" stroke-width="0.25" stroke-linecap="round" stroke-linejoin="round"/>
<path d="M0.800781 15.0499L2.13998 19.684L6.83538 18.3729L4.6469 14.9756L0.800781 15.0499Z" fill="#E27625" stroke="#E27625" stroke-width="0.25" stroke-linecap="round" stroke-linejoin="round"/>
<path d="M6.58191 9.23677L5.27539 11.2323L9.92993 11.4467L9.7748 6.37549L6.58191 9.23677Z" fill="#E27625" stroke="#E27625" stroke-width="0.25" stroke-linecap="round" stroke-linejoin="round"/>
<path d="M15.8089 9.23688L12.5671 6.31787L12.4609 11.4468L17.1154 11.2324L15.8089 9.23688Z" fill="#E27625" stroke="#E27625" stroke-width="0.25" stroke-linecap="round" stroke-linejoin="round"/>
<path d="M6.83496 18.3731L9.65216 16.996L7.22694 15.083L6.83496 18.3731Z" fill="#E27625" stroke="#E27625" stroke-width="0.25" stroke-linecap="round" stroke-linejoin="round"/>
<path d="M12.7383 16.996L15.5473 18.3731L15.1635 15.083L12.7383 16.996Z" fill="#E27625" stroke="#E27625" stroke-width="0.25" stroke-linecap="round" stroke-linejoin="round"/>
<path d="M15.5473 18.3731L12.7383 16.9961L12.9669 18.8431L12.9424 19.6265L15.5473 18.3731Z" fill="#D5BFB2" stroke="#D5BFB2" stroke-width="0.25" stroke-linecap="round" stroke-linejoin="round"/>
<path d="M6.83496 18.3731L9.44806 19.6265L9.43172 18.8431L9.65216 16.9961L6.83496 18.3731Z" fill="#D5BFB2" stroke="#D5BFB2" stroke-width="0.25" stroke-linecap="round" stroke-linejoin="round"/>
<path d="M9.49659 13.8628L7.16113 13.1702L8.81063 12.4033L9.49659 13.8628Z" fill="#233447" stroke="#233447" stroke-width="0.25" stroke-linecap="round" stroke-linejoin="round"/>
<path d="M12.8936 13.8628L13.5795 12.4033L15.2372 13.1702L12.8936 13.8628Z" fill="#233447" stroke="#233447" stroke-width="0.25" stroke-linecap="round" stroke-linejoin="round"/>
<path d="M6.83492 18.3729L7.24324 14.9756L4.64648 15.0499L6.83492 18.3729Z" fill="#CC6228" stroke="#CC6228" stroke-width="0.25" stroke-linecap="round" stroke-linejoin="round"/>
<path d="M15.1475 14.9756L15.5476 18.3729L17.7442 15.0499L15.1475 14.9756Z" fill="#CC6228" stroke="#CC6228" stroke-width="0.25" stroke-linecap="round" stroke-linejoin="round"/>
<path d="M17.1154 11.2324L12.4609 11.4468L12.8937 13.8629L13.5797 12.4033L15.2373 13.1702L17.1154 11.2324Z" fill="#CC6228" stroke="#CC6228" stroke-width="0.25" stroke-linecap="round" stroke-linejoin="round"/>
<path d="M7.1617 13.1702L8.8112 12.4033L9.49716 13.8629L9.92993 11.4468L5.27539 11.2324L7.1617 13.1702Z" fill="#CC6228" stroke="#CC6228" stroke-width="0.25" stroke-linecap="round" stroke-linejoin="round"/>
<path d="M5.27539 11.2324L7.22705 15.0832L7.16168 13.1702L5.27539 11.2324Z" fill="#E27525" stroke="#E27525" stroke-width="0.25" stroke-linecap="round" stroke-linejoin="round"/>
<path d="M15.2375 13.1702L15.1641 15.0832L17.1157 11.2324L15.2375 13.1702Z" fill="#E27525" stroke="#E27525" stroke-width="0.25" stroke-linecap="round" stroke-linejoin="round"/>
<path d="M9.92893 11.4468L9.49609 13.8629L10.0432 16.7159L10.1657 12.9558L9.92893 11.4468Z" fill="#E27525" stroke="#E27525" stroke-width="0.25" stroke-linecap="round" stroke-linejoin="round"/>
<path d="M12.4611 11.4463L12.2324 12.9471L12.3468 16.7154L12.8939 13.8624L12.4611 11.4463Z" fill="#E27525" stroke="#E27525" stroke-width="0.25" stroke-linecap="round" stroke-linejoin="round"/>
<path d="M12.8938 13.8626L12.3467 16.7156L12.7387 16.996L15.1639 15.083L15.2374 13.1699L12.8938 13.8626Z" fill="#F5841F" stroke="#F5841F" stroke-width="0.25" stroke-linecap="round" stroke-linejoin="round"/>
<path d="M7.16113 13.1699L7.2265 15.083L9.65172 16.996L10.0437 16.7156L9.49659 13.8626L7.16113 13.1699Z" fill="#F5841F" stroke="#F5841F" stroke-width="0.25" stroke-linecap="round" stroke-linejoin="round"/>
<path d="M12.943 19.6264L12.9675 18.8431L12.7552 18.6616H9.63588L9.43172 18.8431L9.44806 19.6264L6.83496 18.373L7.74953 19.1317L9.60319 20.4263H12.7797L14.6415 19.1317L15.5479 18.373L12.943 19.6264Z" fill="#C0AC9D" stroke="#C0AC9D" stroke-width="0.25" stroke-linecap="round" stroke-linejoin="round"/>
<path d="M12.7388 16.9961L12.3468 16.7158H10.0441L9.65214 16.9961L9.43164 18.8433L9.6358 18.6618H12.7551L12.9675 18.8433L12.7388 16.9961Z" fill="#161616" stroke="#161616" stroke-width="0.25" stroke-linecap="round" stroke-linejoin="round"/>
<path d="M21.0674 7.22463L21.7615 3.81088L20.7163 0.63623L12.7383 6.61448L15.8086 9.23662L20.1447 10.5148L21.1001 9.38509L20.6837 9.07995L21.3451 8.4698L20.8388 8.07398L21.5003 7.56273L21.0674 7.22463Z" fill="#763E1A" stroke="#763E1A" stroke-width="0.25" stroke-linecap="round" stroke-linejoin="round"/>
<path d="M0.628906 3.81088L1.33117 7.22463L0.882051 7.56273L1.55165 8.07398L1.04537 8.4698L1.7068 9.07995L1.29034 9.38509L2.24575 10.5148L6.58185 9.23662L9.65217 6.61448L1.67414 0.63623L0.628906 3.81088Z" fill="#763E1A" stroke="#763E1A" stroke-width="0.25" stroke-linecap="round" stroke-linejoin="round"/>
<path d="M20.1452 10.5149L15.8092 9.23682L17.1157 11.2323L15.1641 15.0831L17.7445 15.0501H21.5987L20.1452 10.5149Z" fill="#F5841F" stroke="#F5841F" stroke-width="0.25" stroke-linecap="round" stroke-linejoin="round"/>
<path d="M6.58219 9.23682L2.24614 10.5149L0.800781 15.0501H4.6469L7.22729 15.0831L5.27568 11.2323L6.58219 9.23682Z" fill="#F5841F" stroke="#F5841F" stroke-width="0.25" stroke-linecap="round" stroke-linejoin="round"/>
<path d="M12.4611 11.4464L12.7388 6.61426L13.9963 3.17578H8.39453L9.65205 6.61426L9.92969 11.4464L10.0359 12.9636L10.044 16.7155H12.3468L12.355 12.9636L12.4611 11.4464Z" fill="#F5841F" stroke="#F5841F" stroke-width="0.25" stroke-linecap="round" stroke-linejoin="round"/>
</svg>
