<svg width="37" height="36" viewBox="0 0 37 36" fill="none" xmlns="http://www.w3.org/2000/svg">
<path d="M24.6456 20.4507L28.1104 23.9162L18.7353 33.3002L9.36021 23.9174L12.825 20.4507L18.7353 26.3973L24.6456 20.4507ZM30.5572 14.5334L34.0499 18.0001L30.5878 21.4669L27.1244 18.0001L30.5572 14.5334ZM18.7354 14.5347L22.1987 17.9695L18.7353 21.4362L15.2719 18.0001L18.7354 14.5347ZM6.91336 14.5334L10.3462 18.0001L6.91464 21.4362L3.44995 18.0001L6.91336 14.5334ZM18.7353 2.7002L28.1104 12.0536L24.6457 15.519L18.7353 9.603L12.825 15.5495L9.36034 12.0841L18.7353 2.7002Z" fill="#379FFF"/>
</svg>
