<svg width="92" height="78" viewBox="0 0 92 78" fill="none" xmlns="http://www.w3.org/2000/svg">
<mask id="path-1-inside-1_5900_848" fill="white">
<rect x="40" y="19" width="11" height="13" rx="2"/>
</mask>
<rect x="40" y="19" width="11" height="13" rx="2" fill="#379FFF" stroke="#150C1A" stroke-width="6" mask="url(#path-1-inside-1_5900_848)"/>
<path d="M46 19C46 6.5 29 13.6316 29 2" stroke="#150C1A" stroke-width="3" stroke-linecap="round"/>
<path d="M1 53.5C1 40.5213 11.5213 30 24.5 30H67.5C80.4787 30 91 40.5213 91 53.5V54.5C91 66.9264 80.9264 77 68.5 77H65.5239C62.0443 77 58.6444 75.9584 55.7619 74.0093C49.8648 70.0216 42.1352 70.0216 36.2381 74.0093C33.3556 75.9584 29.9557 77 26.4761 77H23.5C11.0736 77 1 66.9264 1 54.5V53.5Z" fill="#FF41B3"/>
<path d="M90.5 55V53C90.5 40.5736 80.4264 30.5 68 30.5H24C11.5736 30.5 1.5 40.5736 1.5 53V55C1.5 66.8741 11.1259 76.5 23 76.5H26.0209C29.285 76.5 32.4719 75.5076 35.1589 73.6545C41.6855 69.1534 50.3145 69.1534 56.8411 73.6545C59.5281 75.5076 62.715 76.5 65.9791 76.5H69C76.6443 76.5 83.3569 72.5105 87.1692 66.5" stroke="#150C1A" stroke-width="3" stroke-linecap="round"/>
<mask id="path-5-inside-2_5900_848" fill="white">
<path fill-rule="evenodd" clip-rule="evenodd" d="M21 41C19.8954 41 19 41.8954 19 43V49L13 49C11.8954 49 11 49.8954 11 51V56C11 57.1046 11.8954 58 13 58H19V64C19 65.1046 19.8954 66 21 66H26C27.1046 66 28 65.1046 28 64V58H34C35.1046 58 36 57.1046 36 56V51C36 49.8954 35.1046 49 34 49L28 49V43C28 41.8954 27.1046 41 26 41H21Z"/>
</mask>
<path fill-rule="evenodd" clip-rule="evenodd" d="M21 41C19.8954 41 19 41.8954 19 43V49L13 49C11.8954 49 11 49.8954 11 51V56C11 57.1046 11.8954 58 13 58H19V64C19 65.1046 19.8954 66 21 66H26C27.1046 66 28 65.1046 28 64V58H34C35.1046 58 36 57.1046 36 56V51C36 49.8954 35.1046 49 34 49L28 49V43C28 41.8954 27.1046 41 26 41H21Z" fill="white"/>
<path d="M19 49V52L22 52V49H19ZM13 49L13 46H13V49ZM19 58H22V55H19V58ZM28 58V55H25V58H28ZM34 49V52V49ZM28 49H25V52H28V49ZM22 43C22 43.5523 21.5523 44 21 44V38C18.2386 38 16 40.2386 16 43H22ZM22 49V43H16V49H22ZM13 52H19V46L13 46L13 52ZM14 51C14 51.5523 13.5523 52 13 52V46C10.2386 46 8 48.2386 8 51H14ZM14 56V51H8V56H14ZM13 55C13.5523 55 14 55.4477 14 56H8C8 58.7614 10.2386 61 13 61V55ZM19 55H13V61H19V55ZM22 64V58H16V64H22ZM21 63C21.5523 63 22 63.4477 22 64H16C16 66.7614 18.2386 69 21 69V63ZM26 63H21V69H26V63ZM25 64C25 63.4477 25.4477 63 26 63V69C28.7614 69 31 66.7614 31 64H25ZM25 58V64H31V58H25ZM34 55H28V61H34V55ZM33 56C33 55.4477 33.4477 55 34 55V61C36.7614 61 39 58.7614 39 56H33ZM33 51V56H39V51H33ZM34 52C33.4477 52 33 51.5523 33 51H39C39 48.2386 36.7614 46 34 46V52ZM28 52L34 52V46L28 46V52ZM25 43V49H31V43H25ZM26 44C25.4477 44 25 43.5523 25 43H31C31 40.2386 28.7614 38 26 38V44ZM21 44H26V38H21V44Z" fill="#150C1A" mask="url(#path-5-inside-2_5900_848)"/>
<circle cx="68.5" cy="44.5" r="4" fill="white" stroke="#150C1A" stroke-width="3"/>
<circle cx="78.5" cy="53.5" r="4" transform="rotate(90 78.5 53.5)" fill="#379FFF" stroke="#150C1A" stroke-width="3"/>
<circle cx="68.5" cy="62.5" r="4" fill="white" stroke="#150C1A" stroke-width="3"/>
<circle cx="58.5" cy="53.5" r="4" transform="rotate(90 58.5 53.5)" fill="#379FFF" stroke="#150C1A" stroke-width="3"/>
</svg>
