<svg width="92" height="80" viewBox="0 0 92 80" fill="none" xmlns="http://www.w3.org/2000/svg">
<path d="M82 2H10C7.79086 2 6 3.79086 6 6V35C6 37.2091 7.79086 39 10 39H17H28H75.3431C76.404 39 77.4214 38.5786 78.1716 37.8284L84.8284 31.1716C85.5786 30.4214 86 29.404 86 28.3431V6C86 3.79086 84.2091 2 82 2Z" fill="#FF41B3"/>
<path d="M55.75 15H60M60 15H64.25M60 15V27M51.75 18.0698C51.75 16.6744 50.713 15 48.3796 15C46.0463 15 44.75 16.6744 44.75 18.0698C44.75 19.4651 46.0463 21.1395 48.3796 21.1395C50.713 21.1395 51.75 22.2558 51.75 24.2093C51.75 26.1628 49.9352 27 48.3796 27C46.8241 27 44.75 26.1628 44.75 24.2093M28 15V27H34.25M38.75 15V27" stroke="#150C1A" stroke-width="3" stroke-linecap="round" stroke-linejoin="round"/>
<path d="M17 39H10C7.79086 39 6 37.2091 6 35V6C6 3.79086 7.79086 2 10 2H82C84.2091 2 86 3.79086 86 6V28.3431C86 29.404 85.5786 30.4214 84.8284 31.1716L78.1716 37.8284C77.4214 38.5786 76.404 39 75.3431 39H28" stroke="black" stroke-width="3" stroke-linecap="round" stroke-linejoin="round"/>
<path d="M41.5 37V61C39.8333 59.8333 36.1031 56.6508 33.5 56C29.5 55 27.5 59.5 29 62C30.5 64.5 35.5 66 38.5 70C39.655 71.54 40.6617 72.8576 41.4632 74.01C43.0399 76.2771 45.7386 78.5 48.5 78.5H61.5C65.366 78.5 68.5 75.366 68.5 71.5V54C68.5 54 68.5 50 65.25 50C62 50 62 54 62 54V50C62 50 62 46 59 46C56 46 56 50 56 50V46.5C56 46.5 56 42.5 52.5 42.5C49 42.5 49 46.5 49 46.5V37C49 37 49 33 45.25 33C41.5 33 41.5 37 41.5 37Z" fill="white"/>
<path d="M49 59.5V46.5M49 46.5V37C49 37 49 33 45.25 33C41.5 33 41.5 37 41.5 37V61C39.8333 59.8333 36.1031 56.6508 33.5 56C29.5 55 27.5 59.5 29 62C30.5 64.5 35.5 66 38.5 70C39.655 71.54 40.6617 72.8576 41.4632 74.01C43.0399 76.2771 45.7386 78.5 48.5 78.5H61.5C65.366 78.5 68.5 75.366 68.5 71.5V54C68.5 54 68.5 50 65.25 50C62 50 62 54 62 54M49 46.5C49 46.5 49 42.5 52.5 42.5C56 42.5 56 46.5 56 46.5V50M56 59.5V50M56 50C56 50 56 46 59 46C62 46 62 50 62 50V54M62 59.5V54" stroke="#150C1A" stroke-width="3" stroke-linecap="round" stroke-linejoin="round"/>
</svg>
