<svg width="98" height="98" viewBox="0 0 98 98" fill="none" xmlns="http://www.w3.org/2000/svg">
<path d="M25.7709 62.256L25.7709 68.871L34.7766 77.8767C38.1219 81.222 42.6592 83.1015 47.3902 83.1015L53.2809 83.1015L25.7709 62.256Z" fill="#FF41B3"/>
<path d="M68.207 31.722L83.1013 53.2808L83.1013 47.3901C83.1013 42.6591 81.222 38.1219 77.8766 34.7765L74.822 31.722H68.207Z" fill="#FF41B3"/>
<path d="M23.4461 23.4216C21.4181 25.4495 19.7988 27.7312 18.5877 30.1644L31.7628 43.3394C34.9664 46.5431 40.1605 46.543 43.364 43.3394C46.5676 40.1358 46.5675 34.9418 43.364 31.7383L30.1889 18.5632C27.7557 19.7742 25.474 21.3937 23.4461 23.4216Z" fill="white"/>
<path d="M28.5733 15.9304L28.0645 16.4391L43.3336 31.7082C46.5371 34.9118 46.5371 40.1057 43.3336 43.3092C40.1301 46.5127 34.9362 46.5127 31.7326 43.3092L16.4635 28.0401L15.969 28.5346L16.8171 53.2529L39.3009 75.7367C49.3691 85.8049 65.6929 85.8049 75.7611 75.7367C85.8293 65.6685 85.8293 49.3447 75.7611 39.2765L53.2773 16.7927L28.5733 15.9304Z" fill="#722FFF"/>
<path d="M63.3431 36.6281L83.0848 56.3697L82.8363 53.6165C82.3722 48.4742 80.1199 43.6571 76.4712 40.0038L63.343 26.8584L63.3431 36.6281Z" fill="white"/>
<path d="M36.7044 63.2671L56.446 83.0087L53.6928 82.7603C48.5505 82.2961 43.7248 80.0525 40.0714 76.4039L26.9346 63.2671H36.7044Z" fill="white"/>
<path d="M39.9885 39.9637C38.624 41.3282 36.4117 41.3282 35.0472 39.9637L30.1059 35.0224C28.7414 33.6579 28.7414 31.4456 30.1059 30.0811C31.4704 28.7166 33.6828 28.7166 35.0473 30.0811L39.9885 35.0223C41.3531 36.3869 41.353 38.5992 39.9885 39.9637Z" fill="#379FFF"/>
<path d="M44.8942 16.0616L53.277 16.7922L75.7608 39.276C85.829 49.3442 85.829 65.668 75.7608 75.7362C65.6926 85.8044 49.3688 85.8044 39.3006 75.7362L16.8169 53.2524L15.9688 28.5342L16.4633 28.0396L31.7324 43.3087C34.9359 46.5122 40.1298 46.5122 43.3334 43.3087C46.5369 40.1052 46.5369 34.9113 43.3334 31.7077L28.0643 16.4387L28.5731 15.9299L37.3217 15.4015" stroke="#150C1A" stroke-width="3" stroke-miterlimit="10" stroke-linecap="round" stroke-linejoin="round"/>
<path d="M36.704 63.2762C43.5754 63.496 50.5181 60.9833 55.763 55.7384C61.0207 50.4807 63.5328 43.5171 63.2992 36.6295" stroke="#150C1A" stroke-width="3" stroke-miterlimit="10" stroke-linejoin="round"/>
<path d="M30.1889 18.5632C27.7557 19.7742 25.474 21.3937 23.4461 23.4216C21.4181 25.4495 19.7988 27.7312 18.5877 30.1644" stroke="#150C1A" stroke-width="3" stroke-miterlimit="10" stroke-linejoin="round"/>
<path d="M39.9883 39.9637C38.6238 41.3282 36.4114 41.3282 35.0469 39.9637L30.1057 35.0224C28.7412 33.6579 28.7412 31.4456 30.1057 30.0811C31.4702 28.7166 33.6825 28.7166 35.047 30.0811L39.9883 35.0223C41.3529 36.3869 41.3528 38.5992 39.9883 39.9637Z" stroke="#150C1A" stroke-width="3" stroke-miterlimit="10" stroke-linejoin="round"/>
<path d="M30.1058 30.0811L23.446 23.4214" stroke="#150C1A" stroke-width="3" stroke-miterlimit="10" stroke-linejoin="round"/>
<path d="M39.9883 39.9639L55.7631 55.7386" stroke="#150C1A" stroke-width="3" stroke-miterlimit="10" stroke-linejoin="round"/>
<path d="M49 75.8701L56.0711 82.9412" stroke="#150C1A" stroke-width="3" stroke-miterlimit="10" stroke-linecap="round" stroke-linejoin="round"/>
<path d="M26.9346 63.2666H36.7044L43.1435 69.7058" stroke="#150C1A" stroke-width="3" stroke-miterlimit="10" stroke-linecap="round" stroke-linejoin="round"/>
<path d="M63.3431 26.8583L63.3431 36.6281L83.0848 56.3697" stroke="#150C1A" stroke-width="3" stroke-miterlimit="10" stroke-linejoin="round"/>
<path d="M68.2068 31.722H74.8217L77.8763 34.7765C81.2216 38.1218 83.1011 42.6591 83.1011 47.3901L83.1011 53.2808" stroke="#150C1A" stroke-width="3" stroke-miterlimit="10" stroke-linejoin="round"/>
<path d="M25.3 61.3865L25.4223 67.849L35.0683 77.495C38.3983 80.825 42.8658 82.7451 47.4877 82.8325L53.2426 82.9414" stroke="#150C1A" stroke-width="3" stroke-miterlimit="10" stroke-linejoin="round"/>
</svg>
