<svg width="37" height="36" viewBox="0 0 37 36" fill="none" xmlns="http://www.w3.org/2000/svg">
<path d="M25.3768 13.0537L33.1501 17.4059V26.2321L25.3844 30.5999L17.6117 26.2449L17.6117 23.1669C17.6117 23.1657 17.6124 23.1645 17.6134 23.1639L19.7362 21.9082C19.7385 21.9068 19.7414 21.9085 19.7414 21.9112V24.9347L25.3001 27.8963L30.8574 24.8695V18.8178L25.3001 15.8559L12.1235 22.9489L4.3501 18.5889L4.35012 9.73581L12.2001 5.3999L19.8999 9.77218L19.8885 12.7572C19.8885 12.7585 19.8879 12.7596 19.8868 12.7603L18.7869 13.4238L17.687 14.0873C17.6847 14.0887 17.6818 14.087 17.6818 14.0843V11.0775L12.1235 8.11471L6.56474 11.0641V17.1918L12.1235 20.2341L25.3768 13.0537Z" fill="#722FFF"/>
</svg>
