<svg width="75" height="73" viewBox="0 0 75 73" fill="none" xmlns="http://www.w3.org/2000/svg">
<path d="M42.5 31C42.5 41.1826 34.0285 49.5 23.5 49.5C12.9715 49.5 4.5 41.1826 4.5 31C4.5 20.8174 12.9715 12.5 23.5 12.5C34.0285 12.5 42.5 20.8174 42.5 31Z" fill="#D9D9D9"/>
<path d="M42.5 31C42.5 41.1826 34.0285 49.5 23.5 49.5C12.9715 49.5 4.5 41.1826 4.5 31C4.5 20.8174 12.9715 12.5 23.5 12.5C34.0285 12.5 42.5 20.8174 42.5 31Z" fill="url(#paint0_linear_5900_28)"/>
<path d="M42.5 31C42.5 41.1826 34.0285 49.5 23.5 49.5C12.9715 49.5 4.5 41.1826 4.5 31C4.5 20.8174 12.9715 12.5 23.5 12.5C34.0285 12.5 42.5 20.8174 42.5 31Z" stroke="#150C1A" stroke-width="3"/>
<path d="M34.5 31C34.5 36.7419 29.6334 41.5 23.5 41.5C17.3666 41.5 12.5 36.7419 12.5 31C12.5 25.2581 17.3666 20.5 23.5 20.5C29.6334 20.5 34.5 25.2581 34.5 31Z" fill="#D9D9D9"/>
<path d="M34.5 31C34.5 36.7419 29.6334 41.5 23.5 41.5C17.3666 41.5 12.5 36.7419 12.5 31C12.5 25.2581 17.3666 20.5 23.5 20.5C29.6334 20.5 34.5 25.2581 34.5 31Z" fill="url(#paint1_linear_5900_28)"/>
<path d="M34.5 31C34.5 36.7419 29.6334 41.5 23.5 41.5C17.3666 41.5 12.5 36.7419 12.5 31C12.5 25.2581 17.3666 20.5 23.5 20.5C29.6334 20.5 34.5 25.2581 34.5 31Z" stroke="#150C1A" stroke-width="3"/>
<path d="M67.5 20C67.5 30.1826 59.0285 38.5 48.5 38.5C37.9715 38.5 29.5 30.1826 29.5 20C29.5 9.81743 37.9715 1.5 48.5 1.5C59.0285 1.5 67.5 9.81743 67.5 20Z" fill="#D9D9D9"/>
<path d="M67.5 20C67.5 30.1826 59.0285 38.5 48.5 38.5C37.9715 38.5 29.5 30.1826 29.5 20C29.5 9.81743 37.9715 1.5 48.5 1.5C59.0285 1.5 67.5 9.81743 67.5 20Z" fill="url(#paint2_linear_5900_28)"/>
<path d="M67.5 20C67.5 30.1826 59.0285 38.5 48.5 38.5C37.9715 38.5 29.5 30.1826 29.5 20C29.5 9.81743 37.9715 1.5 48.5 1.5C59.0285 1.5 67.5 9.81743 67.5 20Z" stroke="#150C1A" stroke-width="3"/>
<path d="M59.5 20C59.5 25.7419 54.6334 30.5 48.5 30.5C42.3666 30.5 37.5 25.7419 37.5 20C37.5 14.2581 42.3666 9.5 48.5 9.5C54.6334 9.5 59.5 14.2581 59.5 20Z" fill="#D9D9D9"/>
<path d="M59.5 20C59.5 25.7419 54.6334 30.5 48.5 30.5C42.3666 30.5 37.5 25.7419 37.5 20C37.5 14.2581 42.3666 9.5 48.5 9.5C54.6334 9.5 59.5 14.2581 59.5 20Z" fill="url(#paint3_linear_5900_28)"/>
<path d="M59.5 20C59.5 25.7419 54.6334 30.5 48.5 30.5C42.3666 30.5 37.5 25.7419 37.5 20C37.5 14.2581 42.3666 9.5 48.5 9.5C54.6334 9.5 59.5 14.2581 59.5 20Z" stroke="#150C1A" stroke-width="3"/>
<mask id="path-5-inside-1_5900_28" fill="white">
<path fill-rule="evenodd" clip-rule="evenodd" d="M69.8174 63.5863V36.3908H0.586284V63.5863V68C0.586284 70.7615 2.82486 73 5.58628 73H64.8174C67.5789 73 69.8174 70.7615 69.8174 68V63.5863Z"/>
<path d="M69.8174 31.9771C69.8174 29.2156 67.5789 26.9771 64.8174 26.9771H5.58628C2.82486 26.9771 0.586284 29.2156 0.586284 31.9771V36.3908H69.8174V31.9771Z"/>
</mask>
<path fill-rule="evenodd" clip-rule="evenodd" d="M69.8174 63.5863V36.3908H0.586284V63.5863V68C0.586284 70.7615 2.82486 73 5.58628 73H64.8174C67.5789 73 69.8174 70.7615 69.8174 68V63.5863Z" fill="#FF41B3"/>
<path d="M69.8174 31.9771C69.8174 29.2156 67.5789 26.9771 64.8174 26.9771H5.58628C2.82486 26.9771 0.586284 29.2156 0.586284 31.9771V36.3908H69.8174V31.9771Z" fill="white"/>
<path d="M69.8174 37.8908C70.6459 37.8908 71.3174 37.2193 71.3174 36.3908C71.3174 35.5624 70.6459 34.8908 69.8174 34.8908V37.8908ZM0.586284 34.8908C-0.242143 34.8908 -0.913716 35.5624 -0.913716 36.3908C-0.913716 37.2193 -0.242143 37.8908 0.586284 37.8908V34.8908ZM69.8174 65.0863C70.6459 65.0863 71.3174 64.4147 71.3174 63.5863C71.3174 62.7578 70.6459 62.0863 69.8174 62.0863V65.0863ZM0.586284 62.0863C-0.242143 62.0863 -0.913716 62.7578 -0.913716 63.5863C-0.913716 64.4147 -0.242143 65.0863 0.586284 65.0863V62.0863ZM8.97794 65.0863C9.80637 65.0863 10.4779 64.4147 10.4779 63.5863C10.4779 62.7578 9.80637 62.0863 8.97794 62.0863V65.0863ZM14.7472 62.0863C13.9188 62.0863 13.2472 62.7578 13.2472 63.5863C13.2472 64.4147 13.9188 65.0863 14.7472 65.0863V62.0863ZM69.8174 34.8908H0.586284V37.8908H69.8174V34.8908ZM8.97794 62.0863H0.586284V65.0863H8.97794V62.0863ZM69.8174 62.0863H14.7472V65.0863H69.8174V62.0863ZM5.58628 29.9771H64.8174V23.9771H5.58628V29.9771ZM64.8174 70H5.58628V76H64.8174V70ZM66.8174 31.9771V36.3908H72.8174V31.9771H66.8174ZM3.58628 36.3908V31.9771H-2.41372V36.3908H3.58628ZM66.8174 36.3908V63.5863H72.8174V36.3908H66.8174ZM66.8174 63.5863V68H72.8174V63.5863H66.8174ZM3.58628 68V63.5863H-2.41372V68H3.58628ZM3.58628 63.5863V36.3908H-2.41372V63.5863H3.58628ZM5.58628 70C4.48171 70 3.58628 69.1046 3.58628 68H-2.41372C-2.41372 72.4183 1.168 76 5.58628 76V70ZM64.8174 76C69.2357 76 72.8174 72.4183 72.8174 68H66.8174C66.8174 69.1046 65.922 70 64.8174 70V76ZM64.8174 29.9771C65.922 29.9771 66.8174 30.8725 66.8174 31.9771H72.8174C72.8174 27.5588 69.2357 23.9771 64.8174 23.9771V29.9771ZM5.58628 23.9771C1.168 23.9771 -2.41372 27.5588 -2.41372 31.9771H3.58628C3.58628 30.8725 4.48172 29.9771 5.58628 29.9771V23.9771Z" fill="#150C1A" mask="url(#path-5-inside-1_5900_28)"/>
<path d="M51.3873 49.9884C51.3873 46.1954 54.4621 43.1206 58.2551 43.1206H72.0133C72.2894 43.1206 72.5133 43.3445 72.5133 43.6206V56.3562C72.5133 56.6324 72.2894 56.8562 72.0133 56.8562H58.2551C54.4621 56.8562 51.3873 53.7814 51.3873 49.9884Z" fill="#722FFF" stroke="#150C1A" stroke-width="3"/>
<ellipse cx="59.3279" cy="49.9885" rx="3.14687" ry="3.13793" fill="white" stroke="#150C1A" stroke-width="3"/>
<defs>
<linearGradient id="paint0_linear_5900_28" x1="7.66831" y1="36.9341" x2="45.6947" y2="13.7837" gradientUnits="userSpaceOnUse">
<stop stop-color="#F6DA4A"/>
<stop offset="0.395833" stop-color="#D89C08"/>
<stop offset="0.682292" stop-color="#F9D82E"/>
<stop offset="1" stop-color="#D89C08"/>
</linearGradient>
<linearGradient id="paint1_linear_5900_28" x1="13.8465" y1="34.5604" x2="36.8296" y2="20.3409" gradientUnits="userSpaceOnUse">
<stop stop-color="#F6DA4A"/>
<stop offset="0.598958" stop-color="#D89C08"/>
</linearGradient>
<linearGradient id="paint2_linear_5900_28" x1="32.6683" y1="25.9341" x2="70.6947" y2="2.78369" gradientUnits="userSpaceOnUse">
<stop stop-color="#F6DA4A"/>
<stop offset="0.395833" stop-color="#D89C08"/>
<stop offset="0.682292" stop-color="#F9D82E"/>
<stop offset="1" stop-color="#D89C08"/>
</linearGradient>
<linearGradient id="paint3_linear_5900_28" x1="38.8465" y1="23.5604" x2="61.8296" y2="9.34089" gradientUnits="userSpaceOnUse">
<stop stop-color="#F6DA4A"/>
<stop offset="0.598958" stop-color="#D89C08"/>
</linearGradient>
</defs>
</svg>
