<svg width="20" height="20" viewBox="0 0 20 20" fill="none" xmlns="http://www.w3.org/2000/svg">
<path d="M13.8533 11.6004L16.1179 13.8633L9.99042 19.9908L3.86292 13.8641L6.1275 11.6004L9.99042 15.4833L13.8534 11.6004H13.8533ZM17.7172 7.7366L20 10.0003L17.7372 12.2639L15.4735 10.0003L17.7172 7.7366ZM9.9905 7.73743L12.2541 9.98026L9.99042 12.2448V12.2439L7.72675 10.0003L9.99042 7.73743H9.9905ZM2.26367 7.7366L4.50733 10.0003L2.2645 12.2439L0 10.0003L2.26367 7.7366ZM9.99042 0.00984896L16.1179 6.11735L13.8534 8.38018L9.99042 4.51718L6.1275 8.4001L3.863 6.13727L9.9905 0.00976562L9.99042 0.00984896Z" fill="white"/>
</svg>
