<svg width="16" height="14" viewBox="0 0 16 14" fill="none" xmlns="http://www.w3.org/2000/svg">
<path d="M11.6815 4.25209L16 6.66997V11.5734L11.6857 14L7.36753 11.5806L7.36757 9.87056C7.36757 9.86987 7.36793 9.86923 7.36852 9.86888L8.54783 9.17128C8.54911 9.17052 8.55072 9.17146 8.55072 9.17296V10.8527L11.6389 12.498L14.7263 10.8164V7.45438L11.6389 5.80886L4.31853 9.74946L0 7.32722L9.82716e-06 2.40884L4.36112 0L8.63878 2.42905L8.63245 4.08741C8.63245 4.0881 8.63209 4.08873 8.63151 4.08908L8.02046 4.45771L7.40942 4.82634C7.40814 4.82712 7.40651 4.82618 7.40651 4.82468V3.1542L4.31853 1.50823L1.23036 3.14677V6.55103L4.31853 8.24122L11.6815 4.25209Z" fill="white"/>
</svg>
