<svg width="29" height="16" viewBox="0 0 29 16" fill="none" xmlns="http://www.w3.org/2000/svg">
<path d="M20.8341 11.9537C20.182 11.9537 19.6516 11.4228 19.6516 10.7708C19.6516 10.1188 20.182 9.58836 20.8341 9.58836C21.4862 9.58836 22.0166 10.1186 22.0166 10.7708C22.0166 11.4229 21.4862 11.9537 20.8341 11.9537ZM7.76361 11.9537C7.11157 11.9537 6.58117 11.4228 6.58117 10.7708C6.58117 10.1188 7.11146 9.58836 7.76361 9.58836C8.41565 9.58836 8.94605 10.1186 8.94605 10.7708C8.94605 11.4229 8.41576 11.9537 7.76361 11.9537ZM21.2582 4.83046L23.6216 0.737266C23.6866 0.624303 23.7042 0.490147 23.6705 0.364233C23.6367 0.23832 23.5544 0.130933 23.4416 0.0656364C23.3286 0.000610398 23.1945 -0.0169603 23.0686 0.0167781C22.9427 0.0505165 22.8353 0.132809 22.77 0.24561L20.3771 4.39053C18.547 3.55549 16.4919 3.09024 14.2988 3.09024C12.1058 3.09024 10.0507 3.55549 8.22074 4.39053L5.82772 0.24561C5.7624 0.132809 5.65502 0.0505165 5.52911 0.0167781C5.40321 -0.0169603 5.26906 0.000610398 5.15609 0.0656364C5.04321 0.130872 4.96084 0.23826 4.92709 0.364199C4.89334 0.490138 4.91098 0.624324 4.97612 0.737266L7.33948 4.83046C3.28124 7.03766 0.505661 11.1461 0.0996094 16H28.4981C28.0917 11.1462 25.3161 7.03766 21.2582 4.83035" fill="white"/>
</svg>
