<svg width="21" height="25" viewBox="0 0 21 25" fill="none" xmlns="http://www.w3.org/2000/svg">
<path d="M17.4597 13.1409C17.4491 11.1809 18.3356 9.7016 20.13 8.61215C19.126 7.17557 17.6093 6.38518 15.6066 6.23031C13.7107 6.08077 11.6386 7.33578 10.8803 7.33578C10.0792 7.33578 8.24211 6.28371 6.80018 6.28371C3.82021 6.33178 0.65332 8.66021 0.65332 13.3972C0.65332 14.7964 0.909662 16.2419 1.42235 17.7336C2.10592 19.6936 4.57321 24.5 7.14731 24.4199C8.49311 24.3878 9.44371 23.464 11.1954 23.464C12.8936 23.464 13.7748 24.4199 15.2755 24.4199C17.8709 24.3825 20.1033 20.014 20.7548 18.0487C17.2728 16.4092 17.4597 13.2423 17.4597 13.1409ZM14.437 4.37183C15.895 2.64152 15.7615 1.06609 15.7187 0.5C14.4317 0.574766 12.9417 1.37583 12.0926 2.36382C11.158 3.42123 10.6079 4.72964 10.7254 6.2036C12.1193 6.31041 13.3903 5.59479 14.437 4.37183Z" fill="white"/>
</svg>
