<svg width="21" height="21" viewBox="0 0 21 21" fill="none" xmlns="http://www.w3.org/2000/svg">
<path fill-rule="evenodd" clip-rule="evenodd" d="M13.6624 21H21.0009V0.0403018H14.6154C12.7675 2.33705 9.79036 6.71333 9.34291 11.8206H13.2257C12.9205 12.9078 12.6764 14.0897 12.6191 15.3071C14.8485 15.0936 16.0065 14.8148 17.5939 13.9846L18.2006 14.8262C16.7665 15.6096 14.7678 16.1222 12.6191 16.2689C12.7035 17.8616 13.0187 19.4241 13.6624 21ZM13.4325 0L0 0.0403018V21H12.615C12.0456 19.4717 11.7533 17.888 11.689 16.3961C8.67196 16.535 5.49467 15.9912 3.5 14.8429L3.98426 14.0076C5.98974 15.0165 8.32111 15.5764 11.6787 15.4417C11.6999 14.4871 11.8158 13.5864 12.0124 12.7824H8.3722C8.45244 7.5934 11.255 2.79067 13.4325 0ZM5.43208 5.19931V7.60912H6.52413V5.19931H5.43208ZM14.4205 5.19931V7.60912H15.5125V5.19931H14.4205Z" fill="white"/>
</svg>
