<svg width="21" height="21" viewBox="0 0 21 21" fill="none" xmlns="http://www.w3.org/2000/svg">
<path fill-rule="evenodd" clip-rule="evenodd" d="M4.62457 1.52904V4.18688H1.96449L4.62457 1.52904ZM7.62457 0V4.18688H13.3746V0.00242287L7.62457 0ZM16.3746 1.52641V4.18688H19.0328L16.3746 1.52641ZM20.9991 7.18688H16.3746V13.8119H20.9963L20.9991 7.18688ZM19.0346 16.8119H16.3746V19.4697L19.0346 16.8119ZM13.3746 20.9988V16.8119H7.62457V20.9964L13.3746 20.9988ZM4.62457 19.4724V16.8119H1.96629L4.62457 19.4724ZM0 13.8119H4.62457V7.18688H0.00279228L0 13.8119ZM7.62457 13.8119V7.18688H13.3746V13.8119H7.62457Z" fill="white"/>
<path d="M4.62457 4.18688V4.68688H5.12457V4.18688H4.62457ZM4.62457 1.52904H5.12457V0.322649L4.27116 1.17534L4.62457 1.52904ZM1.96449 4.18688L1.61108 3.83318L0.756664 4.68688H1.96449V4.18688ZM7.62457 0L7.62478 -0.5L7.12457 -0.500211V0H7.62457ZM7.62457 4.18688H7.12457V4.68688H7.62457V4.18688ZM13.3746 4.18688V4.68688H13.8746V4.18688H13.3746ZM13.3746 0.00242287H13.8746V-0.497366L13.3748 -0.497577L13.3746 0.00242287ZM16.3746 1.52641L16.7283 1.17301L15.8746 0.318584V1.52641H16.3746ZM16.3746 4.18688H15.8746V4.68688H16.3746V4.18688ZM19.0328 4.18688V4.68688H20.2392L19.3865 3.83348L19.0328 4.18688ZM20.9991 7.18688L21.4991 7.18709L21.4993 6.68688H20.9991V7.18688ZM16.3746 7.18688V6.68688H15.8746V7.18688H16.3746ZM16.3746 13.8119H15.8746V14.3119H16.3746V13.8119ZM20.9963 13.8119V14.3119H21.4961L21.4963 13.8121L20.9963 13.8119ZM19.0346 16.8119L19.388 17.1656L20.2425 16.3119H19.0346V16.8119ZM16.3746 16.8119V16.3119H15.8746V16.8119H16.3746ZM16.3746 19.4697H15.8746V20.6761L16.728 19.8234L16.3746 19.4697ZM13.3746 20.9988L13.3744 21.4988L13.8746 21.499V20.9988H13.3746ZM13.3746 16.8119H13.8746V16.3119H13.3746V16.8119ZM7.62457 16.8119V16.3119H7.12457V16.8119H7.62457ZM7.62457 20.9964H7.12457V21.4962L7.62436 21.4964L7.62457 20.9964ZM4.62457 19.4724L4.27086 19.8258L5.12457 20.6802V19.4724H4.62457ZM4.62457 16.8119H5.12457V16.3119H4.62457V16.8119ZM1.96629 16.8119V16.3119H0.759911L1.61259 17.1653L1.96629 16.8119ZM0 13.8119L-0.5 13.8117L-0.500211 14.3119H0V13.8119ZM4.62457 13.8119V14.3119H5.12457V13.8119H4.62457ZM4.62457 7.18688H5.12457V6.68688H4.62457V7.18688ZM0.00279228 7.18688V6.68688H-0.496997L-0.497208 7.18667L0.00279228 7.18688ZM7.62457 7.18688V6.68688H7.12457V7.18688H7.62457ZM7.62457 13.8119H7.12457V14.3119H7.62457V13.8119ZM13.3746 7.18688H13.8746V6.68688H13.3746V7.18688ZM13.3746 13.8119V14.3119H13.8746V13.8119H13.3746ZM5.12457 4.18688V1.52904H4.12457V4.18688H5.12457ZM1.96449 4.68688H4.62457V3.68688H1.96449V4.68688ZM2.31789 4.54058L4.97797 1.88274L4.27116 1.17534L1.61108 3.83318L2.31789 4.54058ZM7.12457 0V4.18688H8.12457V0H7.12457ZM7.62457 4.68688H13.3746V3.68688H7.62457V4.68688ZM13.8746 4.18688V0.00242287H12.8746V4.18688H13.8746ZM7.62435 0.5L13.3744 0.502423L13.3748 -0.497577L7.62478 -0.5L7.62435 0.5ZM15.8746 1.52641V4.18688H16.8746V1.52641H15.8746ZM16.3746 4.68688H19.0328V3.68688H16.3746V4.68688ZM16.0209 1.87982L18.6791 4.54028L19.3865 3.83348L16.7283 1.17301L16.0209 1.87982ZM20.9991 6.68688H16.3746V7.68688H20.9991V6.68688ZM15.8746 7.18688V13.8119H16.8746V7.18688H15.8746ZM16.3746 14.3119H20.9963V13.3119H16.3746V14.3119ZM20.4991 7.18667L20.4963 13.8117L21.4963 13.8121L21.4991 7.18709L20.4991 7.18667ZM19.0346 16.3119H16.3746V17.3119H19.0346V16.3119ZM15.8746 16.8119V19.4697H16.8746V16.8119H15.8746ZM18.6812 16.4582L16.0212 19.116L16.728 19.8234L19.388 17.1656L18.6812 16.4582ZM13.8746 20.9988V16.8119H12.8746V20.9988H13.8746ZM13.3746 16.3119H7.62457V17.3119H13.3746V16.3119ZM7.12457 16.8119V20.9964H8.12457V16.8119H7.12457ZM13.3748 20.4988L7.62477 20.4964L7.62436 21.4964L13.3744 21.4988L13.3748 20.4988ZM5.12457 19.4724V16.8119H4.12457V19.4724H5.12457ZM4.62457 16.3119H1.96629V17.3119H4.62457V16.3119ZM4.97827 19.119L2.32 16.4585L1.61259 17.1653L4.27086 19.8258L4.97827 19.119ZM0 14.3119H4.62457V13.3119H0V14.3119ZM5.12457 13.8119V7.18688H4.12457V13.8119H5.12457ZM4.62457 6.68688H0.00279228V7.68688H4.62457V6.68688ZM0.5 13.8121L0.502792 7.18709L-0.497208 7.18667L-0.5 13.8117L0.5 13.8121ZM7.12457 7.18688V13.8119H8.12457V7.18688H7.12457ZM13.3746 6.68688H7.62457V7.68688H13.3746V6.68688ZM13.8746 13.8119V7.18688H12.8746V13.8119H13.8746ZM7.62457 14.3119H13.3746V13.3119H7.62457V14.3119Z" fill="white"/>
</svg>
