<svg viewBox="0 0 65 26" fill="none" xmlns="http://www.w3.org/2000/svg">
<path d="M0.16 21.932V4.868L4.228 0.799998H16.036L20.032 4.796V8.108H15.856V6.272L13.948 4.4H6.388L4.336 6.416V20.384L6.388 22.4H13.948L15.856 20.528V18.692H20.032V22.004L16.036 26H4.228L0.16 21.932ZM23.2886 22.292V19.124H27.3926V21.032L28.7606 22.4H36.6086L38.0486 20.96V16.316L36.6446 14.912H27.0686L23.3606 11.24V4.508L27.0686 0.799998H38.1566L41.8646 4.508V7.712H37.7606V5.768L36.3566 4.4H28.8686L27.4646 5.768V9.944L28.8686 11.312H38.4446L42.1526 15.02V22.22L38.3726 26H26.9966L23.2886 22.292ZM45.9292 22.292V19.124H50.0332V21.032L51.4012 22.4H59.2492L60.6892 20.96V16.316L59.2852 14.912H49.7092L46.0012 11.24V4.508L49.7092 0.799998H60.7972L64.5052 4.508V7.712H60.4012V5.768L58.9972 4.4H51.5092L50.1052 5.768V9.944L51.5092 11.312H61.0852L64.7932 15.02V22.22L61.0132 26H49.6372L45.9292 22.292Z" fill="url(#paint0_linear_307_710)"/>
<defs>
<linearGradient id="paint0_linear_307_710" x1="5.85644" y1="19.8791" x2="51.8197" y2="-23.9276" gradientUnits="userSpaceOnUse">
<stop stop-color="#FF41B3"/>
<stop offset="1" stop-color="#379FFF"/>
</linearGradient>
</defs>
</svg>
