<svg viewBox="0 0 57 32" fill="none" xmlns="http://www.w3.org/2000/svg">
<path d="M40.8246 14.2113C40.8246 12.7748 42.4444 11.6531 43.7211 11.6531C44.0192 11.6531 44.3173 11.6886 44.5292 11.829L55.3448 17.6105C56.3234 18.1366 56.6646 18.9775 56.6646 19.5731C56.6646 20.1687 56.3234 21.0096 55.3448 21.5357L44.5292 27.3172C44.3173 27.4576 44.0192 27.4931 43.7211 27.4931C42.4444 27.4931 40.8246 26.3714 40.8246 24.9349C40.8246 24.3393 41.1227 23.8132 41.5914 23.5678L49.0867 19.5731L41.5914 15.5784C41.1245 15.3331 40.8246 14.8069 40.8246 14.2113Z" fill="url(#paint0_linear_313_338)"/>
<path d="M22.0225 0.0371094C22.7299 0.0371094 23.3593 0.345824 23.6724 1.00572L37.4599 28.9289C37.5775 29.1608 37.657 29.432 37.657 29.6655C37.657 30.6325 36.7923 31.7171 35.4554 31.7171C34.71 31.7171 33.9629 31.33 33.6879 30.7501L19.8624 2.82534C19.7448 2.5934 19.705 2.32225 19.705 2.08867C19.7067 0.850548 20.9242 0.0371094 22.0225 0.0371094Z" fill="url(#paint1_linear_313_338)"/>
<path d="M1.92829 17.6105L12.0223 11.829C12.2218 11.6886 12.5 11.6531 12.7783 11.6531C13.97 11.6531 15.4803 12.7748 15.4803 14.2113C15.4803 14.8069 15.202 15.3331 14.7646 15.5784L7.76981 19.5731L14.7646 23.5678C15.202 23.8132 15.4803 24.3393 15.4803 24.9349C15.4803 26.3714 13.97 27.4931 12.7783 27.4931C12.5 27.4931 12.2218 27.4576 12.0223 27.3172L1.92829 21.5357C1.01309 21.0096 0.696289 20.1687 0.696289 19.5731C0.696289 18.9775 1.01309 18.1366 1.92829 17.6105Z" fill="url(#paint2_linear_313_338)"/>
<defs>
<linearGradient id="paint0_linear_313_338" x1="7.06892" y1="20.5769" x2="40.932" y2="-14.9561" gradientUnits="userSpaceOnUse">
<stop stop-color="#FF41B3"/>
<stop offset="1" stop-color="#379FFF"/>
</linearGradient>
<linearGradient id="paint1_linear_313_338" x1="7.06892" y1="20.5769" x2="40.932" y2="-14.9561" gradientUnits="userSpaceOnUse">
<stop stop-color="#FF41B3"/>
<stop offset="1" stop-color="#379FFF"/>
</linearGradient>
<linearGradient id="paint2_linear_313_338" x1="7.06892" y1="20.5769" x2="40.932" y2="-14.9561" gradientUnits="userSpaceOnUse">
<stop stop-color="#FF41B3"/>
<stop offset="1" stop-color="#379FFF"/>
</linearGradient>
</defs>
</svg>
