<svg viewBox="0 0 114 114" fill="none" xmlns="http://www.w3.org/2000/svg">
<g clip-path="url(#clip0_653_985)">
<path d="M112.174 44.6589C112.174 54.3578 104.311 62.2204 94.6123 62.2204H26.9694C13.1594 62.2204 1.96387 51.0249 1.96387 37.2122C1.96387 23.4022 13.1594 12.2041 26.9694 12.2041C31.2339 12.2041 35.2463 13.2726 38.7586 15.1539C44.1731 7.352 53.1952 2.2417 63.4114 2.2417C66.4766 2.2417 69.4334 2.70099 72.2169 3.55632C73.1667 3.84663 74.094 4.18374 74.9987 4.56417C84.3128 8.46818 91.2369 16.9391 92.9744 27.1753C93.5143 27.1259 94.0611 27.0965 94.6123 27.0965C98.7217 27.0965 102.5 28.5082 105.491 30.8705C109.562 34.0864 112.174 39.0685 112.174 44.6589Z" fill="url(#paint0_linear_653_985)"/>
<path opacity="0.2" d="M72.2169 3.58464C62.3828 1.7102 47.6542 14.2351 50.9195 27.4983C50.9195 27.4983 41.2656 19.1929 30.4887 25.0302C19.7143 30.8676 14.7747 54.1183 36.9994 62.2487H26.9694C13.1594 62.2487 1.96387 51.0532 1.96387 37.2406C1.96387 23.4305 13.1594 12.2324 26.9694 12.2324C31.2339 12.2324 35.2463 13.3009 38.7586 15.1823C44.1731 7.38032 53.1952 2.27002 63.4114 2.27002C66.4766 2.27002 69.4334 2.72931 72.2169 3.58464Z" fill="#150C19"/>
<path opacity="0.2" d="M105.49 30.899C91.3649 29.1346 81.4502 41.6422 81.4502 41.6422C81.4502 38.5008 83.9209 28.6216 92.9742 27.2039C93.514 27.1545 94.0609 27.125 94.612 27.125C98.7214 27.125 102.5 28.5367 105.49 30.899Z" fill="#150C19"/>
<path d="M106.316 88.608C106.316 91.3361 104.105 93.5468 101.377 93.5468C98.649 93.5468 96.4375 91.3361 96.4375 88.608C96.4375 85.88 98.649 83.6685 101.377 83.6685C104.105 83.6685 106.316 85.88 106.316 88.608Z" fill="#379FFF"/>
<path d="M82.2728 106.568C82.2728 109.295 80.0613 111.507 77.3332 111.507C74.6052 111.507 72.3945 109.295 72.3945 106.568C72.3945 103.84 74.6052 101.628 77.3332 101.628C80.0613 101.628 82.2728 103.84 82.2728 106.568Z" fill="#379FFF"/>
<path d="M31.4828 97.1384C31.4828 99.8665 29.2712 102.078 26.5441 102.078C23.816 102.078 21.6045 99.8665 21.6045 97.1384C21.6045 94.4113 23.816 92.1997 26.5441 92.1997C29.2712 92.1997 31.4828 94.4113 31.4828 97.1384Z" fill="#379FFF"/>
<path d="M22.8021 79.1785C22.8021 81.9065 20.5906 84.118 17.8634 84.118C15.1354 84.118 12.9238 81.9065 12.9238 79.1785C12.9238 76.4513 15.1354 74.2397 17.8634 74.2397C20.5906 74.2397 22.8021 76.4513 22.8021 79.1785Z" fill="#379FFF"/>
<path d="M94.6119 63.9361C105.226 63.9361 113.862 55.3005 113.862 44.6865C113.862 34.0724 105.226 25.4368 94.6119 25.4368C94.5253 25.4368 94.4378 25.4377 94.3502 25.4394C93.4888 21.499 91.8943 17.8047 89.6004 14.4389C89.0753 13.6693 88.0258 13.47 87.2554 13.9952C86.485 14.5195 86.2857 15.5698 86.8109 16.3402C89.1151 19.7208 90.6282 23.4705 91.3094 27.4863C91.4575 28.3555 92.2479 28.9647 93.1283 28.8841C93.6544 28.8365 94.1396 28.8122 94.6119 28.8122C103.365 28.8122 110.486 35.9339 110.486 44.6865C110.486 53.4399 103.365 60.5607 94.6119 60.5607H26.9691C14.1114 60.5607 3.65077 50.0992 3.65077 37.2398C3.65077 24.3822 14.1114 13.9224 26.9691 13.9224C30.8038 13.9224 34.6046 14.8722 37.9618 16.6703C38.7175 17.075 39.656 16.8489 40.1448 16.1443C45.4405 8.5131 54.1385 3.95741 63.4111 3.95741C70.5735 3.95741 77.4075 6.63866 82.6564 11.5072C83.3393 12.1407 84.4069 12.1008 85.0413 11.4179C85.6748 10.7342 85.6349 9.66654 84.952 9.03219C79.0774 3.58305 71.4271 0.582031 63.4111 0.582031C53.5224 0.582031 44.2178 5.21138 38.2357 13.035C34.7277 11.4032 30.8627 10.547 26.9691 10.547C12.25 10.547 0.275391 22.5216 0.275391 37.2398C0.275391 51.9607 12.25 63.9361 26.9691 63.9361H31.8896V74.6498C31.8896 76.2166 30.6157 77.4914 29.0489 77.4914H24.2705C23.5226 74.6524 20.9333 72.5518 17.8629 72.5518C14.2085 72.5518 11.2361 75.5251 11.2361 79.1786C11.2361 82.8331 14.2085 85.8055 17.8629 85.8055C20.9333 85.8055 23.5226 83.7057 24.2705 80.8668H29.0489C32.4763 80.8668 35.265 78.0781 35.265 74.6498V63.9361H45.3591V73.8352C45.3591 74.7677 46.1139 75.5233 47.0463 75.5233C47.9788 75.5233 48.7345 74.7677 48.7345 73.8352V63.9361H59.93V102.039C59.93 105.467 62.7187 108.255 66.1469 108.255H70.9245C71.6732 111.094 74.2617 113.195 77.3329 113.195C80.9874 113.195 83.9598 110.222 83.9598 106.568C83.9598 102.914 80.9874 99.9414 77.3329 99.9414C74.2617 99.9414 71.6732 102.041 70.9245 104.88H66.1469C64.5801 104.88 63.3054 103.605 63.3054 102.039V63.9361H76.5435V84.0792C76.5435 87.5066 79.3322 90.2953 82.7595 90.2953H94.9681C95.7169 93.1351 98.3054 95.2349 101.377 95.2349C105.03 95.2349 108.003 92.2616 108.003 88.608C108.003 84.9536 105.03 81.9812 101.377 81.9812C98.3054 81.9812 95.7169 84.081 94.9681 86.9199H82.7595C81.1927 86.9199 79.9188 85.6452 79.9188 84.0792V63.9361H94.6119ZM17.8629 82.4301C16.0699 82.4301 14.6115 80.9716 14.6115 79.1786C14.6115 77.3865 16.0699 75.928 17.8629 75.928C19.655 75.928 21.1135 77.3865 21.1135 79.1786C21.1135 80.9716 19.655 82.4301 17.8629 82.4301ZM77.3329 103.317C79.1259 103.317 80.5844 104.775 80.5844 106.568C80.5844 108.361 79.1259 109.819 77.3329 109.819C75.5399 109.819 74.0815 108.361 74.0815 106.568C74.0815 104.775 75.5399 103.317 77.3329 103.317ZM101.377 85.3566C103.17 85.3566 104.628 86.8151 104.628 88.608C104.628 90.4002 103.17 91.8595 101.377 91.8595C99.5836 91.8595 98.1251 90.401 98.1251 88.608C98.1251 86.8151 99.5836 85.3566 101.377 85.3566Z" fill="#150C19"/>
<path d="M47.0466 78.894C46.1141 78.894 45.3593 79.6497 45.3593 80.5813V92.6096C45.3593 94.1764 44.0854 95.4521 42.5195 95.4521H32.9523C32.2044 92.6122 29.615 90.5116 26.5438 90.5116C22.8894 90.5116 19.917 93.4849 19.917 97.1384C19.917 100.792 22.8894 103.765 26.5438 103.765C29.6142 103.765 32.2027 101.666 32.9514 98.8274H42.5195C45.946 98.8274 48.7347 96.0379 48.7347 92.6096V80.5813C48.7347 79.6497 47.979 78.894 47.0466 78.894ZM26.5438 100.39C24.7509 100.39 23.2924 98.9314 23.2924 97.1384C23.2924 95.3455 24.7509 93.8879 26.5438 93.8879C28.336 93.8879 29.7944 95.3463 29.7944 97.1384C29.7944 98.9314 28.336 100.39 26.5438 100.39Z" fill="#150C19"/>
</g>
<defs>
<linearGradient id="paint0_linear_653_985" x1="14.5125" y1="41.129" x2="78.454" y2="-28.655" gradientUnits="userSpaceOnUse">
<stop stop-color="#FF41B3"/>
<stop offset="1" stop-color="#379FFF"/>
</linearGradient>
<clipPath id="clip0_653_985">
<rect width="113.586" height="113.586" fill="white" transform="translate(0.275391 0.138184)"/>
</clipPath>
</defs>
</svg>
