<svg viewBox="0 0 144 87" fill="none" xmlns="http://www.w3.org/2000/svg">
<rect x="0.620117" y="0.51709" width="59.9483" height="5.25862" rx="1" fill="#FF41B3"/>
<rect x="0.620117" y="35.2241" width="59.9483" height="5.25862" rx="1" fill="#7E5D84"/>
<rect x="83.707" y="69.9307" width="59.9483" height="5.25862" rx="1" fill="#7E5D84"/>
<rect x="0.620117" y="12.0859" width="29.4483" height="5.25862" rx="1" fill="#7E5D84"/>
<rect x="0.620117" y="58.3618" width="29.4483" height="5.25862" rx="1" fill="#FF41B3"/>
<rect x="65.8271" y="69.9307" width="14.7241" height="5.25862" rx="1" fill="#FF41B3"/>
<rect x="0.620117" y="23.6553" width="36.8103" height="5.25862" rx="1" fill="#FF41B3"/>
<rect x="0.620117" y="46.793" width="36.8103" height="5.25862" rx="1" fill="#7E5D84"/>
<rect x="33.2236" y="12.0859" width="29.4483" height="5.25862" rx="1" fill="#379FFF"/>
<rect x="0.620117" y="81.5" width="29.4483" height="5.25862" rx="1" fill="#379FFF"/>
<rect x="33.2236" y="58.3618" width="29.4483" height="5.25862" rx="1" fill="#7E5D84"/>
<rect x="40.5859" y="23.6553" width="36.8103" height="5.25862" rx="1" fill="#7E5D84"/>
<rect x="40.5859" y="46.793" width="36.8103" height="5.25862" rx="1" fill="#7E5D84"/>
<rect x="65.8271" y="12.0859" width="29.4483" height="5.25862" rx="1" fill="#7E5D84"/>
<rect x="65.8271" y="58.3618" width="62.0517" height="5.25862" rx="1" fill="#379FFF"/>
<rect x="0.620117" y="69.9307" width="62.0517" height="5.25862" rx="1" fill="#7E5D84"/>
<rect x="63.7236" y="35.2241" width="41.0172" height="5.25862" rx="1" fill="#7E5D84"/>
</svg>
