<svg width="69" height="74" viewBox="0 0 69 74" fill="none" xmlns="http://www.w3.org/2000/svg">
<rect x="8.45764" y="7.94629" width="38.7448" height="64.5543" rx="8" fill="#FF41B3"/>
<rect x="8.4574" y="7.94629" width="38.7448" height="64.5543" rx="8" fill="#FF41B3"/>
<path d="M8.45764 59.7593H47.2024V64.5003C47.2024 68.9185 43.6207 72.5003 39.2024 72.5003H16.4577C12.0394 72.5003 8.45764 68.9185 8.45764 64.5003V59.7593Z" fill="#379FFF"/>
<path d="M15.0443 72.5006V72.5006C11.4066 72.5006 8.45764 69.5517 8.45764 65.914V64.0066V15.9463C8.45764 11.528 12.0394 7.94629 16.4576 7.94629H39.2024C43.6207 7.94629 47.2024 11.528 47.2024 15.9463V64.5006C47.2024 68.9189 43.6207 72.5006 39.2024 72.5006H25.1179" stroke="black" stroke-width="3" stroke-linecap="round"/>
<path d="M8.45764 61.0332H47.2024" stroke="black" stroke-width="3" stroke-linecap="round" stroke-linejoin="round"/>
<path d="M49.1384 37.358L49.1384 37.3581L49.1475 37.3675L52.1643 40.4872C52.1638 40.4891 52.1632 40.4912 52.1622 40.4936C52.16 40.4991 52.1551 40.509 52.1427 40.522C52.1304 40.535 52.121 40.5402 52.1158 40.5425C52.1134 40.5435 52.1113 40.5442 52.1096 40.5447L47.4154 35.605C46.2873 34.4179 44.445 34.4377 43.3209 35.6206C42.2053 36.7945 42.1567 38.7198 43.306 39.9292L46.6497 43.4478C46.6493 43.4497 46.6486 43.4519 46.6476 43.4543C46.6454 43.4598 46.6405 43.4697 46.6281 43.4827C46.6158 43.4957 46.6064 43.5009 46.6012 43.5032C46.5988 43.5042 46.5967 43.5049 46.595 43.5054L41.9008 38.5657C40.7727 37.3786 38.9304 37.3984 37.8063 38.5813C36.6908 39.7552 36.6421 41.6806 37.7914 42.89L41.1479 46.4219C41.1474 46.4238 41.1467 46.426 41.1458 46.4285C41.1436 46.4339 41.1386 46.4438 41.1263 46.4568C41.1139 46.4698 41.1045 46.475 41.0993 46.4773C41.097 46.4784 41.0949 46.4791 41.0931 46.4795L31.4428 36.3245C30.3147 35.1374 28.4724 35.1573 27.3483 36.3402C26.2328 37.5141 26.1842 39.4394 27.3335 40.6488L42.2684 56.3648C42.2682 56.3662 42.2678 56.3679 42.2674 56.3699C42.2545 56.3894 42.2372 56.4068 42.2177 56.4192C42.1995 56.4308 42.1882 56.4327 42.1859 56.433L33.5431 55.9599C33.5112 55.9582 33.4792 55.9575 33.4472 55.958C32.6839 55.969 31.9623 56.3146 31.4465 56.8574C30.9247 57.4065 30.5893 58.1634 30.5788 58.9765L32.0399 58.9975L30.5788 58.9765C30.5637 60.135 31.2619 60.8783 31.8133 61.2688C32.3619 61.6573 32.9994 61.8808 33.4904 62.0101C36.7447 62.9151 40.0065 63.5834 42.8576 64.1656C42.9392 64.1825 43.0206 64.1993 43.1017 64.2161C45.1742 64.6444 47.0865 65.0395 48.6264 65.4493L48.6314 65.4506C49.6283 65.7119 51.9865 66.5408 53.3675 67.0263L53.4212 67.0451C53.9465 67.2298 54.5258 67.0861 54.9174 66.674L66.9121 54.052C67.3613 53.5793 67.4688 52.8554 67.1782 52.261C66.3649 50.5979 65.1302 48.1701 63.8774 45.9225C62.6611 43.7403 61.3218 41.53 60.3061 40.4612L53.2478 33.0338C52.1197 31.8467 50.2774 31.8665 49.1533 33.0494C48.0378 34.2233 47.9891 36.1487 49.1384 37.358Z" fill="white" stroke="#0F0912" stroke-width="3" stroke-linejoin="round"/>
<ellipse cx="11.6862" cy="12.1928" rx="9.6862" ry="10.1928" fill="#722FFF"/>
<path d="M21.3724 9.64459C20.2799 5.24837 16.4268 2 11.8412 2C6.40606 2 2 6.56347 2 12.1928C2 17.8221 6.40606 22.3856 11.8412 22.3856C16.4268 22.3856 20.2799 19.1372 21.3724 14.741" stroke="black" stroke-width="3" stroke-linecap="round"/>
<path d="M7.65039 12.1932L10.8791 15.5908L16.5294 9.64502" stroke="black" stroke-width="3" stroke-linecap="round" stroke-linejoin="round"/>
<path d="M18.9675 47.8901L22.9629 43.6858" stroke="black" stroke-width="3" stroke-linecap="round" stroke-linejoin="round"/>
<path d="M38.3448 27.4995L34.3495 31.7038" stroke="black" stroke-width="3" stroke-linecap="round" stroke-linejoin="round"/>
<path d="M14.9723 37.6797H20.6226" stroke="black" stroke-width="3" stroke-linecap="round" stroke-linejoin="round"/>
<path d="M28.642 23.2954V29.2412" stroke="black" stroke-width="3" stroke-linecap="round" stroke-linejoin="round"/>
<path d="M22.963 31.6738L18.9676 27.4695" stroke="black" stroke-width="3" stroke-linecap="round" stroke-linejoin="round"/>
</svg>
