<svg width="50" height="50" viewBox="0 0 50 50" fill="none" xmlns="http://www.w3.org/2000/svg">
<g clip-path="url(#clip0_604_667)">
<path d="M17.4997 19.9998C17.4997 15.3973 13.7688 11.6665 9.16641 11.6665C4.56396 11.6665 0.833008 15.3973 0.833008 19.9998C0.833008 23.0823 2.51133 25.7673 4.99971 27.209V25.0123C4.99971 24.0848 5.78301 23.3331 6.74883 23.3331H11.5838C12.5496 23.3331 13.3329 24.0848 13.3329 25.0123V27.2073C15.8222 25.7682 17.4997 23.0823 17.4997 19.9998Z" fill="#FF41B3"/>
<path d="M46.666 15.8335C48.0467 15.8335 49.166 14.7142 49.166 13.3335C49.166 11.9528 48.0467 10.8335 46.666 10.8335C45.2853 10.8335 44.166 11.9528 44.166 13.3335C44.166 14.7142 45.2853 15.8335 46.666 15.8335Z" fill="#FF41B3"/>
<path d="M3.33301 43.3335C4.71372 43.3335 5.83301 42.2142 5.83301 40.8335C5.83301 39.4528 4.71372 38.3335 3.33301 38.3335C1.9523 38.3335 0.833008 39.4528 0.833008 40.8335C0.833008 42.2142 1.9523 43.3335 3.33301 43.3335Z" fill="#FF41B3"/>
<path d="M37.5 49.167C38.8807 49.167 40 48.0477 40 46.667C40 45.2863 38.8807 44.167 37.5 44.167C36.1193 44.167 35 45.2863 35 46.667C35 48.0477 36.1193 49.167 37.5 49.167Z" fill="#FF41B3"/>
<path d="M25 28.3335C26.3807 28.3335 27.5 27.2142 27.5 25.8335C27.5 24.4528 26.3807 23.3335 25 23.3335C23.6193 23.3335 22.5 24.4528 22.5 25.8335C22.5 27.2142 23.6193 28.3335 25 28.3335Z" fill="#379FFF"/>
<path d="M9.16699 20C10.5477 20 11.667 18.8807 11.667 17.5C11.667 16.1193 10.5477 15 9.16699 15C7.78628 15 6.66699 16.1193 6.66699 17.5C6.66699 18.8807 7.78628 20 9.16699 20Z" fill="white"/>
<path d="M11.5841 23.3335H6.74912C5.7833 23.3335 5 24.0852 5 25.0127V27.2094C6.22666 27.9202 7.64668 28.3335 9.1667 28.3335C10.6867 28.3335 12.1067 27.9201 13.3334 27.2094V25.0127C13.3332 24.0852 12.5499 23.3335 11.5841 23.3335Z" fill="white"/>
<path d="M37.4996 9.16679C37.4996 4.56426 33.7687 0.833496 29.1663 0.833496C24.5639 0.833496 20.833 4.56435 20.833 9.16679C20.833 12.2493 22.5113 14.9343 24.9997 16.376V14.1793C24.9997 13.2518 25.783 12.5001 26.7488 12.5001H31.5838C32.5496 12.5001 33.3329 13.2518 33.3329 14.1793V16.3743C35.8221 14.9351 37.4996 12.2492 37.4996 9.16679Z" fill="#379FFF"/>
<path d="M29.167 9.1665C30.5477 9.1665 31.667 8.04722 31.667 6.6665C31.667 5.28579 30.5477 4.1665 29.167 4.1665C27.7863 4.1665 26.667 5.28579 26.667 6.6665C26.667 8.04722 27.7863 9.1665 29.167 9.1665Z" fill="white"/>
<path d="M31.5841 12.5H26.7491C25.7833 12.5 25 13.2517 25 14.1792V16.3759C26.2267 17.0867 27.6467 17.5 29.1667 17.5C30.6867 17.5 32.1067 17.0866 33.3334 16.3759V14.1792C33.3332 13.2517 32.5499 12.5 31.5841 12.5Z" fill="white"/>
<path d="M48.3336 30.8333C48.3336 26.2308 44.6027 22.5 40.0003 22.5C35.3979 22.5 31.667 26.2309 31.667 30.8333C31.667 33.9158 33.3453 36.6008 35.8337 38.0425V35.8458C35.8337 34.9183 36.617 34.1666 37.5828 34.1666H42.4178C43.3836 34.1666 44.1669 34.9183 44.1669 35.8458V38.0408C46.6561 36.6017 48.3336 33.9158 48.3336 30.8333Z" fill="#FF41B3"/>
<path d="M40 30.8335C41.3807 30.8335 42.5 29.7142 42.5 28.3335C42.5 26.9528 41.3807 25.8335 40 25.8335C38.6193 25.8335 37.5 26.9528 37.5 28.3335C37.5 29.7142 38.6193 30.8335 40 30.8335Z" fill="white"/>
<path d="M42.4171 34.167H37.5821C36.6163 34.167 35.833 34.9187 35.833 35.8462V38.0429C37.0597 38.7537 38.4797 39.167 39.9997 39.167C41.5197 39.167 42.9397 38.7536 44.1664 38.0429V35.8462C44.1663 34.9187 43.3829 34.167 42.4171 34.167Z" fill="white"/>
<path d="M28.3336 40.8333C28.3336 36.2308 24.6027 32.5 20.0003 32.5C15.3979 32.5 11.667 36.2309 11.667 40.8333C11.667 43.9158 13.3453 46.6008 15.8337 48.0425V45.8458C15.8337 44.9183 16.617 44.1666 17.5828 44.1666H22.4178C23.3836 44.1666 24.1669 44.9183 24.1669 45.8458V48.0408C26.6562 46.6017 28.3336 43.9158 28.3336 40.8333Z" fill="#379FFF"/>
<path d="M20.001 40.833C21.3817 40.833 22.501 39.7137 22.501 38.333C22.501 36.9523 21.3817 35.833 20.001 35.833C18.6203 35.833 17.501 36.9523 17.501 38.333C17.501 39.7137 18.6203 40.833 20.001 40.833Z" fill="white"/>
<path d="M22.4181 44.1665H17.5831C16.6173 44.1665 15.834 44.9182 15.834 45.8457V48.0424C17.0606 48.7532 18.4807 49.1665 20.0007 49.1665C21.5207 49.1665 22.9407 48.7531 24.1674 48.0424V45.8457C24.1673 44.9182 23.3839 44.1665 22.4181 44.1665Z" fill="white"/>
<path d="M9.16699 5.8335C10.5477 5.8335 11.667 4.71421 11.667 3.3335C11.667 1.95278 10.5477 0.833496 9.16699 0.833496C7.78628 0.833496 6.66699 1.95278 6.66699 3.3335C6.66699 4.71421 7.78628 5.8335 9.16699 5.8335Z" fill="#379FFF"/>
<path fill-rule="evenodd" clip-rule="evenodd" d="M20.1541 10.8446C20.941 15.0806 24.6509 18.3032 29.1044 18.3331L29.1668 18.3333L29.2184 18.3332C30.9613 18.3235 32.5907 17.8248 33.976 16.9677L37.9529 22.2703C33.9645 23.2632 31 26.8755 31 31.1667C31 32.0679 31.1308 32.9392 31.3743 33.7625L27.9729 36.3133C26.3947 33.5406 23.412 31.6665 20.0001 31.6665C15.2267 31.6665 11.2933 35.3348 10.8709 40.0001H6.56122C6.19039 38.5638 4.88397 37.5 3.3333 37.5C1.49502 37.5 0 38.995 0 40.8333C0 42.6717 1.49502 44.1667 3.3333 44.1667C4.88401 44.1667 6.1904 43.103 6.56123 41.6667H10.871C11.2839 46.2265 15.0509 49.8336 19.6779 49.9943C19.7851 49.9982 19.8925 50.0001 20 50.0001C20.1052 50.0001 20.2104 49.9982 20.3155 49.9946C24.5257 49.8515 28.0251 46.8549 28.9358 42.8826L34.374 45.508C34.2398 45.8691 34.1664 46.2595 34.1664 46.6668C34.1664 48.5051 35.6614 50.0001 37.4997 50.0001C39.3381 50.0001 40.833 48.5051 40.833 46.6668C40.833 44.8285 39.3381 43.3335 37.4997 43.3335C36.6785 43.3335 35.9257 43.6319 35.3442 44.1259L29.1617 41.1411C29.1651 41.0389 29.1668 40.9363 29.1668 40.8332C29.1668 39.7965 28.9937 38.7993 28.675 37.8692L32.0179 35.3623C33.543 38.3122 36.6234 40.3334 40.1667 40.3334C45.2209 40.3334 49.3334 36.2209 49.3334 31.1667C49.3334 26.1125 45.2209 22 40.1667 22C40.0564 22 39.9466 22.002 39.8373 22.0059L39.8336 22.0009L35.3078 15.9664C37.052 14.3897 38.189 12.1531 38.3207 9.65473L43.5409 12.1749C43.4067 12.5359 43.3334 12.9262 43.3334 13.3334C43.3334 15.1717 44.8283 16.6667 46.6667 16.6667C48.505 16.6667 50 15.1717 50 13.3334C50 11.4951 48.5051 10.0001 46.6667 10.0001C45.8453 10.0001 45.0925 10.2986 44.5109 10.7928L38.2255 7.7583C37.5459 3.3702 33.7422 0 29.1669 0C24.2433 0 20.2135 3.90248 20.0084 8.77648L15.0757 12.9974C13.6783 11.8164 11.9241 11.0451 10.0003 10.8709V6.56121C11.4364 6.19021 12.5 4.88382 12.5 3.3333C12.5 1.49502 11.0051 0 9.16671 0C7.32833 0 5.8334 1.49512 5.8334 3.3334C5.8334 4.88417 6.89727 6.19065 8.33373 6.56139V10.8708C3.66832 11.2931 0 15.2265 0 20C0 25.0369 4.08446 29.1386 9.11496 29.1666L9.1666 29.1667L9.20993 29.1666C13.7 29.1458 17.4383 25.8793 18.194 21.5976L21.9378 24.5155C21.7631 24.9199 21.6663 25.3655 21.6663 25.8334C21.6663 27.6717 23.1612 29.1667 24.9996 29.1667C26.838 29.1667 28.3329 27.6717 28.3329 25.8334C28.3329 23.9951 26.838 22.5001 24.9996 22.5001C24.2319 22.5001 23.5241 22.7608 22.96 23.1983L18.3241 19.5851C18.2326 17.5415 17.4687 15.6697 16.2488 14.1864L20.1541 10.8446ZM21.6669 9.19986C21.6765 11.4032 22.6409 13.3851 24.1668 14.7524V14.1791C24.1668 12.7941 25.3251 11.6666 26.7493 11.6666H31.5842C33.0084 11.6666 34.1668 12.7941 34.1668 14.18V14.7526C35.7004 13.3784 36.6669 11.3834 36.6669 9.1667C36.6669 5.03086 33.3027 1.6667 29.1669 1.6667C25.0427 1.6667 21.6859 5.01184 21.6669 9.1316C21.6679 9.15436 21.6679 9.17713 21.6669 9.19986ZM23.6698 24.8295L23.6801 24.8166L23.6933 24.7991C23.9989 24.414 24.4708 24.1667 24.9996 24.1667C25.9187 24.1667 26.6663 24.9141 26.6663 25.8334C26.6663 26.7526 25.9187 27.5001 24.9996 27.5001C24.0803 27.5001 23.3329 26.7525 23.3329 25.8334C23.3329 25.4567 23.4584 25.1089 23.6698 24.8295ZM46.6667 11.6667C45.7476 11.6667 45 12.4141 45 13.3334C45 14.2525 45.7475 15.0001 46.6667 15.0001C47.5858 15.0001 48.3334 14.2526 48.3334 13.3334C48.3334 12.4141 47.5858 11.6667 46.6667 11.6667ZM29.1667 9.99999C27.3283 9.99999 25.8334 8.50497 25.8334 6.66669C25.8334 4.82841 27.3284 3.33339 29.1667 3.33339C31.005 3.33339 32.5 4.82831 32.5 6.66669C32.5 8.50507 31.005 9.99999 29.1667 9.99999ZM29.1667 4.99999C28.2476 4.99999 27.5 5.74745 27.5 6.66669C27.5 7.58593 28.2475 8.33339 29.1667 8.33339C30.0858 8.33339 30.8334 7.58593 30.8334 6.66669C30.8334 5.74745 30.0858 4.99999 29.1667 4.99999ZM32.5001 15.8792C30.4258 16.9125 27.9075 16.9125 25.8334 15.8792H25.8335V14.1801C25.8335 13.7134 26.2443 13.3334 26.7493 13.3334H31.5842C32.0892 13.3334 32.5001 13.7134 32.5001 14.1801V15.8792ZM32.6667 31.1667C32.6667 27.0309 36.0309 23.6667 40.1667 23.6667C44.3025 23.6667 47.6667 27.0309 47.6667 31.1667C47.6667 33.4626 46.63 35.5206 45.0002 36.8974V35.8467C45.0002 34.4608 43.8418 33.3333 42.4177 33.3333H37.5827C36.1585 33.3333 35.0002 34.4608 35.0002 35.8458V36.5988C33.5634 35.2316 32.6667 33.302 32.6667 31.1667ZM39.9997 31.6667C38.1614 31.6667 36.6664 30.1717 36.6664 28.3334C36.6664 26.495 38.1615 25.0001 39.9997 25.0001C41.8381 25.0001 43.333 26.4951 43.333 28.3334C43.333 30.1717 41.8381 31.6667 39.9997 31.6667ZM39.9997 26.6667C39.0806 26.6667 38.333 27.4141 38.333 28.3334C38.333 29.2525 39.0805 30.0001 39.9997 30.0001C40.9189 30.0001 41.6664 29.2526 41.6664 28.3334C41.6664 27.4141 40.9189 26.6667 39.9997 26.6667ZM43.3336 37.5458C41.2593 38.5791 38.741 38.5791 36.6669 37.5458H36.667V35.8467C36.667 35.38 37.0778 35 37.5828 35H42.4177C42.9227 35 43.3336 35.38 43.3336 35.8467V37.5458ZM27.5001 40.8332C27.5001 43.0499 26.5337 45.045 25 46.4191V45.8468C25 44.4609 23.8416 43.3334 22.4175 43.3334H17.5825C16.1583 43.3334 15 44.4609 15 45.8459V46.419C13.4664 45.0448 12.5001 43.0498 12.5001 40.8332C12.5001 36.6974 15.8643 33.3332 20.0001 33.3332C24.1359 33.3332 27.5001 36.6974 27.5001 40.8332ZM3.3333 39.1667C2.41416 39.1667 1.6666 39.9142 1.6666 40.8334C1.6666 41.7525 2.41406 42.5001 3.3333 42.5001C4.25254 42.5001 5 41.7525 5 40.8333C5 39.9142 4.25254 39.1667 3.3333 39.1667ZM37.4997 45.0001C36.5806 45.0001 35.833 45.7475 35.833 46.6668C35.833 47.5859 36.5805 48.3335 37.4997 48.3335C38.4189 48.3335 39.1664 47.586 39.1664 46.6668C39.1664 45.7475 38.4189 45.0001 37.4997 45.0001ZM16.6668 38.3335C16.6668 40.1718 18.1617 41.6668 20.0001 41.6668C21.8384 41.6668 23.3334 40.1717 23.3334 38.3334C23.3334 36.4951 21.8384 35.0001 20.0001 35.0001C18.1617 35.0001 16.6668 36.4952 16.6668 38.3335ZM18.3334 38.3335C18.3334 37.4142 19.0809 36.6668 20.0001 36.6668C20.9192 36.6668 21.6668 37.4141 21.6668 38.3334C21.6668 39.2526 20.9192 40.0001 20.0001 40.0001C19.0809 40.0001 18.3334 39.2527 18.3334 38.3335ZM16.6667 47.5459C18.7408 48.5792 21.2592 48.5792 23.3334 47.5459V45.8468C23.3334 45.3801 22.9226 45.0001 22.4176 45.0001H17.5826C17.0776 45.0001 16.6668 45.3801 16.6668 45.8468V47.5459H16.6667ZM4.1666 25.5857V25.0125C4.1666 23.6275 5.3249 22.5 6.74912 22.5H11.5841C13.0082 22.5 14.1666 23.6275 14.1666 25.0134V25.5859C15.6976 24.2142 16.6633 22.2238 16.6667 20.0118C16.6666 20.0037 16.6666 19.9956 16.6667 19.9876C16.6599 15.8574 13.2984 12.5 9.1667 12.5C5.03086 12.5 1.6667 15.8642 1.6667 20C1.6667 22.2166 2.63303 24.2116 4.1666 25.5857ZM9.16671 20.8333C7.32833 20.8333 5.8334 19.3383 5.8334 17.5C5.8334 15.6617 7.32842 14.1667 9.16671 14.1667C11.005 14.1667 12.5 15.6616 12.5 17.5C12.5 19.3384 11.005 20.8333 9.16671 20.8333ZM9.16671 15.8333C8.24756 15.8333 7.50001 16.5808 7.50001 17.5C7.50001 18.4192 8.24747 19.1667 9.16671 19.1667C10.0859 19.1667 10.8334 18.4192 10.8334 17.5C10.8334 16.5808 10.0858 15.8333 9.16671 15.8333ZM12.4999 26.7125C10.4257 27.7458 7.90732 27.7458 5.8332 26.7125H5.8333V25.0134C5.8333 24.5467 6.24414 24.1667 6.74912 24.1667H11.5841C12.0891 24.1667 12.4999 24.5467 12.4999 25.0134V26.7125ZM9.16671 1.6667C8.24756 1.6667 7.50001 2.41416 7.50001 3.3334C7.50001 4.25264 8.24747 5 9.16671 5C10.0859 5 10.8334 4.25254 10.8334 3.3333C10.8334 2.41406 10.0858 1.6667 9.16671 1.6667Z" fill="#221629"/>
</g>
<defs>
<clipPath id="clip0_604_667">
<rect width="50" height="50" fill="white"/>
</clipPath>
</defs>
</svg>
