<svg width="50" height="50" viewBox="0 0 50 50" fill="none" xmlns="http://www.w3.org/2000/svg">
<g clip-path="url(#clip0_301_2971)">
<path d="M24.9869 18.5472H31.3616L35.7375 14.8936C37.0208 13.8223 38.6394 13.2354 40.311 13.2354C44.0602 13.2354 47.17 16.1367 47.4298 19.8769L49.0088 42.615C49.2493 46.0793 46.504 49.0219 43.0314 49.0219C41.2439 49.0219 39.5498 48.2238 38.4115 46.8457L33.5907 41.0086C32.5567 39.7568 31.0178 39.0318 29.3942 39.0318H24.9995H20.6049C18.9813 39.0318 17.4423 39.7567 16.4084 41.0086L11.5876 46.8457C10.4493 48.2239 8.75518 49.0219 6.96764 49.0219C3.49502 49.0219 0.749651 46.0793 0.990281 42.615L2.56932 19.8769C2.82909 16.1367 5.93891 13.2354 9.68811 13.2354C11.3597 13.2354 12.9783 13.8222 14.2615 14.8936L18.6375 18.5472H25.0121" fill="#FF41B3"/>
<path d="M18.2277 26.3609H15.884V24.0171C15.884 22.9384 15.0095 22.064 13.9308 22.064C12.8521 22.064 11.9776 22.9384 11.9776 24.0171V26.3609H9.63383C8.5551 26.3609 7.68066 27.2354 7.68066 28.3141C7.68066 29.3928 8.5551 30.2673 9.63383 30.2673H11.9776V32.6111C11.9776 33.6898 12.8521 34.5642 13.9308 34.5642C15.0095 34.5642 15.884 33.6898 15.884 32.6111V30.2673H18.2277C19.3065 30.2673 20.1809 29.3928 20.1809 28.3141C20.1809 27.2354 19.3065 26.3609 18.2277 26.3609Z" fill="#379FFF"/>
<path d="M33.4329 33.109C34.6622 33.109 35.6588 32.1124 35.6588 30.8831C35.6588 29.6538 34.6622 28.6572 33.4329 28.6572C32.2036 28.6572 31.207 29.6538 31.207 30.8831C31.207 32.1124 32.2036 33.109 33.4329 33.109Z" fill="white"/>
<path d="M39.7288 26.8136C40.9581 26.8136 41.9547 25.817 41.9547 24.5877C41.9547 23.3584 40.9581 22.3618 39.7288 22.3618C38.4995 22.3618 37.5029 23.3584 37.5029 24.5877C37.5029 25.817 38.4995 26.8136 39.7288 26.8136Z" fill="white"/>
<path d="M49.9834 42.5529L48.4043 19.8116C48.1103 15.5772 44.5554 12.2603 40.3114 12.2603C38.4145 12.2603 36.5681 12.9298 35.1121 14.1456L31.0079 17.5726H25.989V13.7277C25.989 11.9235 27.4566 10.4557 29.2605 10.4557H31.5919C34.4728 10.4557 36.8166 8.11159 36.8166 5.23029C36.8166 2.34899 34.4728 0.00488281 31.5919 0.00488281H25.0124C24.473 0.00488281 24.0358 0.442156 24.0358 0.981594C24.0358 1.52093 24.4731 1.95831 25.0124 1.95831H31.5919C33.3958 1.95831 34.8634 3.42611 34.8634 5.23029C34.8634 7.03447 33.3958 8.50227 31.5919 8.50227H29.2605C26.3796 8.50227 24.0358 10.8464 24.0358 13.7277V17.5726H18.992L14.888 14.1456C13.432 12.9298 11.5856 12.2602 9.68864 12.2602C5.44461 12.2602 1.88976 15.5772 1.59571 19.8117L0.0165763 42.5528C-0.116825 44.4733 0.559751 46.3822 1.87286 47.7898C3.18607 49.1975 5.04324 50.0049 6.96818 50.0049C9.05425 50.0049 11.0126 49.0823 12.3411 47.4736L17.1619 41.6358C18.0132 40.6048 19.2683 40.0135 20.6055 40.0135C21.1448 40.0135 21.582 39.5761 21.582 39.0368C21.582 38.4975 21.1448 38.0601 20.6055 38.0601C18.6835 38.0601 16.8796 38.91 15.6559 40.392L10.8352 46.2298C9.87907 47.3876 8.46957 48.0516 6.96818 48.0516C5.56239 48.0516 4.26012 47.4854 3.30102 46.4574C2.34211 45.4294 1.86759 44.0909 1.96495 42.6882L3.54399 19.9471C3.76733 16.732 6.46631 14.2137 9.68854 14.2137C11.1287 14.2137 12.5307 14.7221 13.6361 15.6452L18.012 19.2991C18.1877 19.4457 18.4091 19.526 18.6379 19.526H31.3621C31.5909 19.526 31.8123 19.4457 31.988 19.2991L36.364 15.6451C37.4694 14.7221 38.8713 14.2137 40.3115 14.2137C43.5337 14.2137 46.2327 16.732 46.4561 19.947L48.0351 42.6882C48.1325 44.0907 47.658 45.4293 46.699 46.4573C45.74 47.4853 44.4377 48.0515 43.0319 48.0515C41.5305 48.0515 40.121 47.3874 39.1648 46.2297L34.3442 40.392C33.1205 38.9099 31.3165 38.06 29.3946 38.06C28.8553 38.06 28.418 38.4974 28.418 39.0367C28.418 39.576 28.8553 40.0134 29.3946 40.0134C30.7316 40.0134 31.9868 40.6048 32.8382 41.6358L37.6589 47.4736C38.9875 49.0823 40.9457 50.0049 43.0319 50.0049C44.9568 50.0049 46.814 49.1975 48.1272 47.7898C49.4402 46.3822 50.1168 44.4733 49.9834 42.5529Z" fill="#180F1D"/>
<path d="M13.9318 35.5408C15.5472 35.5408 16.8615 34.2265 16.8615 32.6111V31.2438H18.2287C19.8442 31.2438 21.1585 29.9296 21.1585 28.3141C21.1585 26.6986 19.8442 25.3844 18.2287 25.3844H16.8615V24.0171C16.8615 22.4017 15.5472 21.0874 13.9318 21.0874C12.3163 21.0874 11.002 22.4017 11.002 24.0171V25.3844H9.63482C8.01936 25.3844 6.70508 26.6986 6.70508 28.3141C6.70508 29.9296 8.01936 31.2438 9.63482 31.2438H11.002V32.6111C11.002 34.2265 12.3163 35.5408 13.9318 35.5408ZM9.63482 29.2907C9.09634 29.2907 8.65824 28.8526 8.65824 28.3141C8.65824 27.7756 9.09634 27.3375 9.63482 27.3375H11.9786C12.518 27.3375 12.9552 26.9003 12.9552 26.3609V24.0171C12.9552 23.4787 13.3933 23.0406 13.9318 23.0406C14.4703 23.0406 14.9084 23.4787 14.9084 24.0171V26.3609C14.9084 26.9003 15.3457 27.3375 15.8849 27.3375H18.2287C18.7672 27.3375 19.2053 27.7756 19.2053 28.3141C19.2053 28.8526 18.7672 29.2907 18.2287 29.2907H15.8849C15.3457 29.2907 14.9084 29.728 14.9084 30.2673V32.6111C14.9084 33.1495 14.4703 33.5876 13.9318 33.5876C13.3933 33.5876 12.9552 33.1495 12.9552 32.6111V30.2673C12.9552 29.728 12.518 29.2907 11.9786 29.2907H9.63482Z" fill="#180F1D"/>
<path d="M31.1689 28.619C29.9203 29.8677 29.9203 31.8995 31.1689 33.1481C31.7933 33.7725 32.6134 34.0846 33.4335 34.0846C34.2535 34.0846 35.0737 33.7725 35.698 33.1481C36.9467 31.8995 36.9467 29.8677 35.698 28.619C34.4493 27.3705 32.4177 27.3705 31.1689 28.619ZM34.3168 31.767C33.8297 32.2541 33.0371 32.2541 32.55 31.767C32.0629 31.2798 32.0629 30.4872 32.55 30.0001C32.7936 29.7566 33.1135 29.6348 33.4334 29.6348C33.7533 29.6348 34.0733 29.7566 34.3168 30.0001C34.804 30.4873 34.804 31.2798 34.3168 31.767Z" fill="#180F1D"/>
<path d="M37.4638 22.3231C36.2152 23.5718 36.2152 25.6036 37.4638 26.8522C38.0882 27.4766 38.9083 27.7888 39.7283 27.7888C40.5485 27.7888 41.3686 27.4766 41.993 26.8521C43.2415 25.6036 43.2415 23.5718 41.993 22.3232C41.993 22.3231 41.993 22.3231 41.993 22.3231C40.7444 21.0746 38.7127 21.0746 37.4638 22.3231ZM40.6118 25.4711C40.1248 25.9583 39.3321 25.9584 38.8449 25.4711C38.3578 24.984 38.3578 24.1914 38.8449 23.7043C39.0885 23.4608 39.4085 23.339 39.7283 23.339C40.0483 23.339 40.3683 23.4608 40.6118 23.7042C41.0989 24.1913 41.0989 24.984 40.6118 25.4711Z" fill="#180F1D"/>
</g>
<defs>
<clipPath id="clip0_301_2971">
<rect width="50" height="50" fill="white"/>
</clipPath>
</defs>
</svg>
