<svg width="50" height="50" viewBox="0 0 50 50" fill="none" xmlns="http://www.w3.org/2000/svg">
<g clip-path="url(#clip0_604_112)">
<path d="M42.033 17.5529C41.5749 15.6915 41.191 14.1317 41.0811 13.6857C39.1705 5.92253 29.3121 2.6657 24.9987 8.88562L21.7188 12.1656V23.8316H35.7657L42.033 17.5529Z" fill="#379FFF"/>
<path d="M23.0464 23.8315V14.5474C23.0464 12.4949 23.7339 10.5016 24.9991 8.88546C20.6903 2.67198 10.8276 5.9214 8.9166 13.6856C8.80645 14.1329 8.42275 15.6921 7.96484 17.5527L14.2435 23.8314H23.0464V23.8315Z" fill="#379FFF"/>
<path d="M42.033 17.5527L40.137 18.5923C35.3704 21.2058 30.3617 22.5727 23.046 22.2316L21.7188 23.7732V28.0769L24.9987 30.4081C32.2663 30.4875 38.4324 28.7894 44.0417 25.714C43.8275 24.8439 42.8204 20.7521 42.033 17.5527V17.5527Z" fill="white"/>
<path d="M23.0463 24.2968V22.2316C15.5835 21.8839 11.8763 19.6973 7.96475 17.5527C7.17754 20.7512 6.1708 24.8416 5.95605 25.714C11.5652 28.7894 17.7313 30.4875 24.999 30.4081C23.7288 28.6234 23.0463 26.4873 23.0463 24.2968Z" fill="white"/>
<path d="M25.0005 33.6209C24.2269 33.629 23.4604 33.6201 22.7007 33.5944C15.3571 33.3446 8.64777 31.5061 2.25324 28.0002C0.834491 27.2223 0.314862 25.4416 1.09279 24.0228C1.87082 22.6038 3.65168 22.0845 5.07023 22.8623C11.2182 26.2331 17.7383 27.8462 24.9658 27.7615C24.9878 27.7614 25.0098 27.7614 25.0318 27.7615C32.0212 27.8392 38.5654 26.3514 44.929 22.8623C46.3474 22.0846 48.1285 22.6038 48.9065 24.0228C49.6844 25.4415 49.1649 27.2223 47.746 28.0002C40.6943 31.8664 33.2545 33.7073 25.0005 33.6209Z" fill="#379FFF"/>
<path d="M44.82 34.0924C44.641 33.5948 44.3896 33.1601 44.0562 32.8201C41.2279 29.9357 30.6027 29.9077 27.8217 32.8332C27.615 33.0506 27.4418 33.306 27.3003 33.5943C26.5942 33.1249 25.7955 32.8941 25.0005 32.8937C24.2055 32.8941 23.4067 33.1249 22.7007 33.5943L21.1904 35.644L22.8347 38.2312C23.1286 37.4284 24.1326 36.8205 25.0004 36.8194C25.9755 36.8206 27.1251 37.5876 27.2429 38.5369L27.2431 38.5254C27.7127 40.247 28.6059 42.0769 29.8117 42.9458C32.4039 44.8134 40.0576 44.9033 42.6508 42.9268C43.4959 42.2827 44.2 41.0453 44.6471 39.6291C45.2031 37.8682 45.4451 35.8298 44.82 34.0924V34.0924Z" fill="#FF41B3"/>
<path d="M5.18134 34.0924C5.36035 33.5948 5.61171 33.1601 5.94521 32.8201C8.77343 29.9357 19.3986 29.9077 22.1797 32.8332C22.3863 33.0506 22.5596 33.306 22.7011 33.5943C23.3809 34.9798 23.2158 36.7122 22.8352 38.2312C22.8133 38.3184 22.7905 38.4047 22.7674 38.4903C22.7643 38.5019 22.7613 38.5139 22.7582 38.5254C22.2886 40.247 21.3954 42.0769 20.1895 42.9458C17.5974 44.8134 9.94365 44.9033 7.35048 42.9268C6.50537 42.2827 5.80126 41.0453 5.35419 39.6291C4.79824 37.8682 4.55615 35.8298 5.18134 34.0924V34.0924Z" fill="#FF41B3"/>
<path d="M19.5365 36.7635C19.3063 38.105 18.6744 39.6847 18.1253 40.0803C16.7252 41.089 10.7608 41.1168 9.49244 40.119C8.96656 39.7053 8.47027 38.0158 8.37848 36.6659C8.31861 35.786 8.86744 34.9757 9.71324 34.7259C12 34.0509 15.7025 33.9824 18.1647 34.6407C19.0998 34.8908 19.7002 35.8096 19.5365 36.7635Z" fill="#B9F0FF"/>
<path d="M41.6233 36.6658C41.5315 38.0157 41.0352 39.7053 40.5094 40.1189C39.241 41.1166 33.2766 41.0889 31.8766 40.0803C31.3273 39.6845 30.6955 38.1049 30.4653 36.7634C30.3016 35.8095 30.9021 34.8907 31.8371 34.6407C34.2993 33.9824 38.0019 34.0509 40.2886 34.726C41.1344 34.9756 41.6832 35.7858 41.6233 36.6658V36.6658Z" fill="#B9F0FF"/>
<path d="M31.648 33.9336C30.348 34.2812 29.5152 35.5606 29.7437 36.8875C29.9373 38.0165 30.5715 40.043 31.4486 40.6749C33.0888 41.8567 39.4064 41.9191 40.9623 40.695C41.9173 39.944 42.3604 37.3969 42.3604 36.5353C42.3604 35.3807 41.5937 34.3479 40.4961 34.0237C38.024 33.2942 34.1848 33.2555 31.648 33.9336ZM40.8929 36.6166C40.7952 38.0512 40.2883 39.346 40.0567 39.5438C39.0758 40.3156 33.4583 40.3173 32.305 39.4865C32.0518 39.3042 31.4353 38.0849 31.1875 36.6398C31.0881 36.0626 31.4523 35.5023 32.0265 35.3487C34.3294 34.7332 37.8976 34.7841 40.0814 35.4288C40.5259 35.5601 40.8929 35.9571 40.8929 36.6166V36.6166Z" fill="#150C19"/>
<path d="M9.50553 34.0239C8.36617 34.3604 7.56373 35.4711 7.64762 36.7159C7.72769 37.8941 8.17652 40.0163 9.03941 40.6949C10.595 41.9185 16.9121 41.8573 18.5532 40.6748C19.4304 40.0428 20.0646 38.0163 20.2582 36.8874C20.2583 36.8873 20.2583 36.8872 20.2583 36.8871C20.4866 35.5542 19.6491 34.2798 18.3538 33.9335C15.8344 33.2599 11.9937 33.2894 9.50553 34.0239ZM18.8144 36.6399C18.5665 38.0848 17.95 39.304 17.6969 39.4864C16.55 40.3123 10.931 40.3189 9.94625 39.5445C9.59918 39.2482 9.10631 37.4283 9.10631 36.5353C9.10631 36.0253 9.44117 35.5703 9.92037 35.4288C12.077 34.7922 15.6446 34.7255 17.9753 35.3487C18.5409 35.4998 18.9145 36.0521 18.8144 36.6399Z" fill="#150C19"/>
<path d="M49.5477 23.6707C48.5771 21.9 46.3469 21.2493 44.5763 22.2201C44.3882 22.3232 44.1998 22.4246 44.0112 22.5243L41.7928 13.5108C39.8225 5.50408 29.9567 1.98982 24.9999 7.69334C22.5044 4.82293 18.6668 4.22312 15.1461 5.58758C14.769 5.73377 14.5817 6.15799 14.7279 6.53513C14.8741 6.91228 15.298 7.09949 15.6754 6.95339C18.8983 5.70457 22.3666 6.37332 24.3982 9.3031C24.6891 9.72263 25.3108 9.72283 25.6019 9.3031C29.5793 3.56717 38.632 6.79656 40.3705 13.8609L41.1878 17.1815C37.1823 19.3775 33.1101 21.5511 25.2 21.5511C16.8474 21.5511 12.9711 19.4684 8.81224 17.1819L9.62962 13.8609C10.175 11.6439 11.4806 9.66199 13.3057 8.28025C13.6282 8.03611 13.6916 7.57673 13.4475 7.25418C13.2034 6.93172 12.7441 6.86814 12.4215 7.11238C10.3294 8.69627 8.83284 10.9685 8.20735 13.5108L5.989 22.5244C5.80023 22.4247 5.61195 22.3232 5.42386 22.2202C3.64964 21.2471 1.42562 21.8956 0.452277 23.6708C-0.520672 25.4452 0.127668 27.6694 1.90277 28.6425C3.63079 29.5899 5.40364 30.4254 7.19437 31.1379C6.48987 31.4551 5.8804 31.8413 5.42327 32.3076C2.84378 34.9386 4.36487 41.5715 6.90745 43.5095C9.74544 45.6727 17.7398 45.6141 20.6178 43.5401C22.4032 42.2539 23.2459 39.5884 23.5346 38.4535C23.7299 37.9787 24.4181 37.5526 24.9999 37.5519C25.6722 37.5528 26.4517 38.1054 26.5163 38.6272C26.5413 38.827 27.4059 42.1151 29.3839 43.5402C32.2623 45.6142 40.2563 45.6728 43.0944 43.5096C43.4955 43.2038 43.8738 42.7877 44.2185 42.2729C44.4435 41.9369 44.3534 41.4818 44.0174 41.2568C43.6814 41.0319 43.2264 41.1218 43.0014 41.458C42.7466 41.8385 42.479 42.1368 42.2064 42.3447C39.8832 44.1155 32.5777 44.0361 30.2401 42.3518C29.3281 41.6947 28.4546 40.1666 27.9574 38.3598C27.7335 37.0179 26.2408 36.0888 24.9998 36.0873C23.6201 36.0891 22.3527 37.1488 22.1247 38.0536C21.7411 39.5848 20.9188 41.5181 19.7615 42.3519C17.4287 44.033 10.1237 44.1195 7.79525 42.3448C5.8638 40.8726 4.59944 35.2403 6.46907 33.3335C9.12405 30.6256 20.444 30.6569 22.0435 33.9175C22.2387 34.3152 22.7391 34.4488 23.1065 34.2047C24.2652 33.4343 25.7354 33.4338 26.8948 34.2047C27.2622 34.449 27.7628 34.315 27.9578 33.9175C29.5584 30.6552 40.8783 30.6265 43.5323 33.3335C44.671 34.4949 44.6246 36.9961 44.0704 38.9955C43.9624 39.3852 44.1908 39.7888 44.5807 39.8968C44.9706 40.005 45.3742 39.7765 45.4821 39.3866C46.127 37.0599 46.2133 33.9756 44.5783 32.3078C44.1205 31.8411 43.5105 31.4545 42.8053 31.1371C44.5971 30.4244 46.3701 29.5897 48.0971 28.6427C49.8718 27.6696 50.521 25.4456 49.5477 23.6707V23.6707ZM8.44984 18.6541C12.4812 20.8658 16.6975 23.016 25.1999 23.016C32.5467 23.016 36.8835 21.2117 41.5499 18.6534L42.6692 23.2011C37.1847 25.845 31.3873 27.1009 25.0074 27.0292C25.002 27.0292 24.9963 27.0291 24.9907 27.0293C18.6215 27.104 12.8216 25.8486 7.33079 23.2011L8.44984 18.6541ZM47.3931 27.3579C45.1742 28.5745 42.8784 29.5998 40.5666 30.41C36.0862 29.3847 29.2822 29.8695 27.0607 32.6211C25.7529 32.0085 24.2509 32.0076 22.9411 32.6211C20.7277 29.8787 13.945 29.3776 9.43353 30.4105C7.12337 29.6007 4.82757 28.5754 2.60687 27.3578C1.54212 26.7739 1.15267 25.4396 1.73655 24.3748C2.32025 23.3101 3.65452 22.9203 4.71946 23.5044C11.2515 27.0859 17.9446 28.5788 24.9992 28.4938C32.1689 28.5761 38.8578 27.0258 45.2803 23.5044C46.3427 22.9219 47.6809 23.3123 48.2632 24.3747C48.8471 25.4396 48.4581 26.7739 47.3931 27.3579V27.3579Z" fill="#150C19"/>
</g>
<defs>
<clipPath id="clip0_604_112">
<rect width="50" height="50" fill="white"/>
</clipPath>
</defs>
</svg>
