<svg width="72" height="72" viewBox="0 0 72 72" fill="none" xmlns="http://www.w3.org/2000/svg">
<g clip-path="url(#clip0_31_407)">
<path d="M16.885 24.261H2.68326C2.53648 24.2611 2.39111 24.2322 2.25547 24.1759C2.11982 24.1196 1.99656 24.037 1.89272 23.9328C1.78889 23.8286 1.70652 23.7049 1.65031 23.5688C1.59411 23.4326 1.56519 23.2867 1.56519 23.1393V19.9914C1.56519 17.8028 2.43094 15.7038 3.972 14.1563C5.51306 12.6087 7.60319 11.7393 9.78258 11.7393C11.962 11.7393 14.0521 12.6087 15.5931 14.1563C17.1342 15.7038 18 17.8028 18 19.9914V23.1393C18 23.7587 17.4998 24.261 16.8829 24.261H16.885Z" fill="#379FFF"/>
<path d="M25.262 50.5804C23.71 49.5764 22.7133 48.4249 22.2984 47.1589C19.6862 46.0715 18 43.5275 18 40.6691C18 36.8008 21.1111 33.6523 24.9352 33.6523H33.7604C37.5845 33.6523 40.6957 36.8008 40.6957 40.6691C40.6957 44.5375 37.5845 47.6849 33.7604 47.6849H26.9174C26.8589 48.283 26.8823 48.8861 26.9871 49.478L27.3047 51.3113C27.3141 51.3675 27.3067 51.4251 27.2833 51.4773C27.2599 51.5294 27.2216 51.5737 27.1729 51.6048C27.1242 51.6359 27.0673 51.6524 27.0093 51.6523C26.9512 51.6523 26.8943 51.6357 26.8457 51.6045L25.262 50.5804Z" fill="#FF41B3"/>
<path d="M43.2345 45.5864C43.4562 44.6627 43.5212 43.7549 43.4273 42.8899H34.801C29.9495 42.8899 25.9003 39.1722 25.8271 34.4909C25.7518 29.7261 29.7463 25.8262 34.6659 25.8262H45.818C50.6799 25.8262 54.7249 29.5638 54.7816 34.255C54.8076 35.9663 54.2977 37.6452 53.3187 39.0722C52.3398 40.4992 50.9373 41.6078 49.2948 42.2529C48.5697 44.372 46.507 45.882 44.9012 46.7778L43.2458 47.7006C43.195 47.7288 43.1367 47.742 43.0782 47.7387C43.0197 47.7354 42.9634 47.7157 42.9163 47.682C42.8692 47.6483 42.8333 47.602 42.8131 47.5489C42.7928 47.4958 42.7891 47.4382 42.8023 47.383L43.2345 45.5864Z" fill="#379FFF"/>
<path d="M69.3294 23.8585H55.2912C54.9983 23.8585 54.7174 23.7441 54.5103 23.5405C54.3032 23.3369 54.1869 23.0607 54.1869 22.7728V19.7261C54.1869 17.6079 55.0428 15.5764 56.5663 14.0786C58.0899 12.5807 60.1562 11.7393 62.3108 11.7393C64.4654 11.7393 66.5318 12.5807 68.0553 14.0786C69.5788 15.5764 70.4347 17.6079 70.4347 19.7261V22.7728C70.4347 23.3723 69.9403 23.8585 69.3294 23.8585ZM16.7108 66.5219H2.67054C2.52534 66.522 2.38155 66.494 2.24738 66.4394C2.11321 66.3848 1.9913 66.3048 1.88863 66.2039C1.78596 66.1029 1.70455 65.9831 1.64905 65.8512C1.59355 65.7193 1.56505 65.5779 1.56519 65.4352V62.3885C1.56519 60.2703 2.4211 58.2388 3.94463 56.7409C5.46816 55.2431 7.53452 54.4016 9.68912 54.4016C11.8437 54.4016 13.9101 55.2431 15.4336 56.7409C16.9571 58.2388 17.8131 60.2703 17.8131 62.3885V65.4352C17.8131 66.0347 17.3186 66.5219 16.7087 66.5219H16.7108Z" fill="#FF41B3"/>
<path d="M69.3167 66.5217H55.117C54.9702 66.5217 54.8249 66.4927 54.6893 66.4363C54.5537 66.3798 54.4305 66.2971 54.3268 66.1928C54.2231 66.0886 54.1408 65.9648 54.0847 65.8286C54.0287 65.6924 53.9999 65.5464 54 65.399V62.2515C54 60.063 54.8658 57.9642 56.4068 56.4168C57.9479 54.8694 60.038 54 62.2174 54C64.3968 54 66.4869 54.8694 68.028 56.4168C69.569 57.9642 70.4348 60.063 70.4348 62.2515V65.399C70.4348 66.0184 69.9346 66.5217 69.3167 66.5217Z" fill="#379FFF"/>
<path d="M9.91453 15.8699C8.53073 15.8683 7.20409 15.3203 6.22569 14.3462C5.24729 13.3721 4.69704 12.0514 4.69568 10.674C4.69704 9.29651 5.24729 7.97585 6.22569 7.00174C7.20409 6.02764 8.53073 5.47966 9.91453 5.47803C11.2985 5.47938 12.6254 6.02725 13.604 7.00138C14.5827 7.97552 15.133 9.29634 15.1344 10.674C15.1328 12.0515 14.5823 13.3722 13.6037 14.3463C12.6252 15.3203 11.2984 15.8683 9.91453 15.8699ZM62.0845 15.8699C60.7005 15.8686 59.3736 15.3207 58.395 14.3466C57.4164 13.3724 56.866 12.0516 56.8646 10.674C56.866 9.29634 57.4164 7.97552 58.395 7.00138C59.3736 6.02725 60.7005 5.47938 62.0845 5.47803C63.4685 5.47938 64.7954 6.02725 65.774 7.00138C66.7526 7.97552 67.303 9.29634 67.3044 10.674C67.3027 12.0515 66.7523 13.3722 65.7737 14.3463C64.7951 15.3203 63.4684 15.8683 62.0845 15.8699ZM9.91453 58.6954C8.53099 58.6935 7.20466 58.1456 6.22635 57.1718C5.24804 56.1979 4.69759 54.8777 4.69568 53.5005C4.69731 52.1231 5.24765 50.8026 6.22599 49.8286C7.20433 48.8545 8.53081 48.3065 9.91453 48.3046C11.2985 48.3059 12.6254 48.8538 13.604 49.8279C14.5827 50.802 15.133 52.1229 15.1344 53.5005C15.1325 54.8779 14.5819 56.1983 13.6034 57.1721C12.6248 58.146 11.2982 58.6938 9.91453 58.6954ZM62.0845 58.6954C60.7008 58.6938 59.3742 58.146 58.3956 57.1721C57.4171 56.1983 56.8665 54.8779 56.8646 53.5005C56.8662 52.123 57.4167 50.8023 58.3953 49.8282C59.3739 48.8541 60.7006 48.3062 62.0845 48.3046C63.4685 48.3059 64.7954 48.8538 65.774 49.8279C66.7526 50.802 67.303 52.1229 67.3044 53.5005C67.3025 54.8779 66.7519 56.1983 65.7733 57.1721C64.7948 58.146 63.4682 58.6938 62.0845 58.6954Z" fill="#FFE07D"/>
<path d="M18.5444 7.03276C18.7439 7.03276 18.9455 6.98129 19.1307 6.87321C20.2592 6.21819 21.4248 5.62942 22.6217 5.10987C22.7641 5.04948 22.8931 4.96146 23.0014 4.85091C23.1096 4.74035 23.1949 4.60944 23.2523 4.46573C23.3098 4.32202 23.3382 4.16835 23.336 4.01358C23.3338 3.85882 23.301 3.70603 23.2395 3.56402C23.1779 3.42201 23.0889 3.29359 22.9776 3.18618C22.8662 3.07876 22.7347 2.99448 22.5907 2.93818C22.4466 2.88188 22.2928 2.85469 22.1382 2.85817C21.9836 2.86165 21.8312 2.89573 21.6898 2.95845C20.4097 3.51446 19.163 4.14447 17.956 4.84532C17.7332 4.9748 17.5592 5.17418 17.4611 5.4126C17.3629 5.65101 17.346 5.91516 17.413 6.16415C17.48 6.41314 17.6272 6.63308 17.8317 6.78992C18.0362 6.94676 18.2867 7.03175 18.5444 7.03173V7.03276ZM41.7915 2.8411C43.0741 3.06345 44.3557 3.36403 45.6013 3.73358C45.8991 3.82181 46.2197 3.78823 46.4927 3.64021C46.7658 3.4922 46.969 3.24183 47.0578 2.94404C47.1463 2.64605 47.1128 2.32511 46.9649 2.05178C46.817 1.77844 46.5666 1.57509 46.2689 1.48643C44.9298 1.089 43.5688 0.770036 42.1926 0.531163C41.8891 0.483942 41.5793 0.557853 41.3298 0.736985C41.0802 0.916118 40.9109 1.18615 40.8583 1.48895C40.8058 1.79175 40.8741 2.10311 41.0486 2.356C41.2231 2.60889 41.4899 2.78309 41.7915 2.8411ZM33.9197 2.40567C33.9423 2.40567 33.966 2.40567 33.9896 2.40362C34.6578 2.36408 35.327 2.34417 35.9964 2.34391H36.0005C36.6341 2.34391 37.2749 2.36244 37.9034 2.39744C38.2099 2.40842 38.5084 2.2987 38.7349 2.09186C38.9615 1.88501 39.0979 1.59751 39.115 1.2911C39.1321 0.984682 39.0285 0.68377 38.8264 0.452964C38.6243 0.222158 38.3398 0.079859 38.034 0.0566162C37.3568 0.0189262 36.6787 4.68357e-05 36.0005 0H35.9964C35.2836 0 34.5615 0.0205877 33.8518 0.0627925C33.5478 0.080844 33.2627 0.216685 33.057 0.441519C32.8514 0.666353 32.7413 0.962504 32.7501 1.26719C32.7589 1.57188 32.886 1.86115 33.1043 2.07368C33.3227 2.2862 33.6151 2.40529 33.9197 2.40567ZM69.6106 26.7784C68.9811 26.9287 68.5923 27.5608 68.7425 28.1908C69.0446 29.4618 69.2727 30.7493 69.4255 32.0468C69.4664 32.3518 69.6255 32.6284 69.8684 32.817C70.1113 33.0056 70.4186 33.0911 70.7239 33.055C71.0292 33.0189 71.3082 32.8642 71.5005 32.6242C71.6929 32.3842 71.7832 32.0781 71.7521 31.772C71.5888 30.3844 71.3449 29.0075 71.0218 27.6483C70.9863 27.4984 70.9216 27.357 70.8314 27.2322C70.7412 27.1073 70.6274 27.0015 70.4963 26.9207C70.3652 26.8399 70.2196 26.7858 70.0676 26.7614C69.9156 26.737 69.7603 26.7428 69.6106 26.7784ZM67.6378 47.5494C67.5809 47.695 67.5537 47.8504 67.5578 48.0066C67.5619 48.1629 67.5971 48.3167 67.6614 48.4591C67.7258 48.6015 67.8179 48.7296 67.9324 48.8359C68.0469 48.9421 68.1815 49.0244 68.3282 49.0779C68.475 49.1313 68.6309 49.1549 68.7869 49.1472C68.9428 49.1394 69.0957 49.1006 69.2364 49.0329C69.3772 48.9652 69.503 48.87 69.6065 48.753C69.7099 48.6359 69.789 48.4993 69.8389 48.3513C70.3168 47.0369 70.7176 45.6957 71.0393 44.3346C71.1067 44.0334 71.0527 43.7178 70.8891 43.4562C70.7254 43.1945 70.4652 43.0081 70.1651 42.9372C69.8649 42.8663 69.5489 42.9168 69.2856 43.0776C69.0224 43.2384 68.8331 43.4967 68.7589 43.7962C68.4585 45.0681 68.0841 46.3212 67.6378 47.5494ZM49.2816 5.06767C50.481 5.58432 51.6494 6.17034 52.7809 6.82277C52.9141 6.89962 53.0612 6.94945 53.2137 6.96942C53.3662 6.98939 53.5211 6.9791 53.6696 6.93914C53.8182 6.89919 53.9574 6.83035 54.0793 6.73655C54.2012 6.64276 54.3035 6.52584 54.3803 6.39249C54.4571 6.25913 54.5069 6.11194 54.5269 5.95933C54.5468 5.80672 54.5365 5.65166 54.4966 5.50302C54.4567 5.35439 54.3879 5.21507 54.2942 5.09304C54.2004 4.97101 54.0836 4.86864 53.9504 4.79179C52.7398 4.09372 51.4897 3.46679 50.2063 2.91419C50.065 2.85343 49.9132 2.82111 49.7594 2.81908C49.6056 2.81705 49.453 2.84536 49.3101 2.90238C49.1673 2.95939 49.0371 3.04401 48.9269 3.15139C48.8167 3.25877 48.7288 3.38682 48.6681 3.52822C48.6073 3.66962 48.5751 3.8216 48.573 3.97549C48.571 4.12938 48.5993 4.28216 48.6563 4.42511C48.7132 4.56806 48.7978 4.69838 48.9051 4.80863C49.0124 4.91888 49.1403 5.0069 49.2816 5.06767ZM1.84117 42.9604C1.21065 43.1096 0.821841 43.7427 0.970986 44.3717C1.2937 45.7318 1.69554 47.072 2.17443 48.3853C2.22138 48.5372 2.29871 48.6781 2.40172 48.7992C2.50473 48.9203 2.63128 49.0193 2.77367 49.0899C2.91607 49.1606 3.07133 49.2016 3.23004 49.2104C3.38874 49.2191 3.54757 49.1955 3.69688 49.141C3.84618 49.0864 3.98285 49.002 4.09857 48.893C4.21428 48.784 4.30664 48.6525 4.37003 48.5066C4.43341 48.3607 4.4665 48.2035 4.46728 48.0444C4.46806 47.8854 4.43652 47.7278 4.37458 47.5813C3.92724 46.3542 3.55185 45.1021 3.25033 43.8312C3.21501 43.6814 3.15053 43.54 3.06058 43.4152C2.97063 43.2903 2.85697 43.1844 2.7261 43.1035C2.59523 43.0227 2.44971 42.9684 2.29787 42.9438C2.14603 42.9193 1.99084 42.9249 1.84117 42.9604ZM25.9584 3.8149C26.0705 3.8149 26.1847 3.79946 26.2968 3.76549C27.5414 3.3908 28.821 3.0861 30.1026 2.85963C30.4044 2.80115 30.6711 2.62634 30.8452 2.37288C31.0194 2.11942 31.087 1.80762 31.0336 1.5047C30.9801 1.20179 30.8099 0.932019 30.5595 0.753564C30.3092 0.575108 29.9988 0.502258 29.6953 0.550721C28.3199 0.794037 26.9598 1.11747 25.6221 1.51937C25.3527 1.60022 25.1214 1.77535 24.9703 2.01277C24.8193 2.25019 24.7586 2.53407 24.7994 2.81254C24.8402 3.09102 24.9798 3.34551 25.1926 3.52954C25.4054 3.71358 25.6772 3.81486 25.9584 3.8149ZM70.8284 34.7819C70.1815 34.7819 69.6579 35.3069 69.6579 35.9544V36.0285C69.6579 37.3353 69.583 38.6409 69.4337 39.9391C69.407 40.2433 69.4999 40.5459 69.6927 40.7825C69.8855 41.0192 70.1629 41.1712 70.466 41.2064C70.769 41.2415 71.0738 41.1569 71.3155 40.9706C71.5573 40.7843 71.7168 40.511 71.7603 40.2088C71.9198 38.8295 72 37.4233 72 36.0285V35.9544C72 35.3059 71.4754 34.7809 70.8295 34.7809L70.8284 34.7819ZM41.8635 69.2025C40.5773 69.4284 39.2791 69.5796 37.9754 69.6554C37.8184 69.6595 37.6639 69.6951 37.521 69.7602C37.378 69.8252 37.2496 69.9183 37.1433 70.034C37.0371 70.1497 36.9551 70.2855 36.9024 70.4335C36.8496 70.5815 36.8271 70.7386 36.8362 70.8955C36.8453 71.0524 36.8858 71.2058 36.9554 71.3467C37.0249 71.4876 37.122 71.6131 37.2409 71.7156C37.3599 71.8182 37.4982 71.8958 37.6477 71.9439C37.7972 71.9919 37.9548 72.0094 38.1112 71.9952C39.5052 71.9145 40.8934 71.7529 42.2687 71.5114C42.4202 71.4848 42.565 71.4286 42.6947 71.3459C42.8245 71.2633 42.9368 71.1559 43.0251 71.0299C43.1134 70.9039 43.176 70.7617 43.2094 70.6114C43.2428 70.4612 43.2463 70.3058 43.2197 70.1542C43.193 70.0026 43.1368 69.8577 43.0543 69.7278C42.9717 69.598 42.8644 69.4856 42.7385 69.3973C42.6126 69.3089 42.4705 69.2462 42.3203 69.2128C42.1702 69.1794 42.0149 69.1759 41.8635 69.2025ZM34.0606 69.6565C32.7574 69.5822 31.4596 69.4327 30.1736 69.2087C30.022 69.1822 29.8667 69.1858 29.7166 69.2194C29.5664 69.253 29.4244 69.3158 29.2985 69.4043C29.1726 69.4928 29.0654 69.6053 28.9829 69.7353C28.9004 69.8653 28.8444 70.0102 28.8179 70.1619C28.7914 70.3136 28.7951 70.469 28.8286 70.6192C28.8621 70.7695 28.9249 70.9117 29.0134 71.0377C29.1018 71.1637 29.2142 71.271 29.3441 71.3535C29.474 71.436 29.6188 71.4921 29.7704 71.5186C31.1682 71.7616 32.5791 71.9221 33.9958 71.9994C34.3001 71.9982 34.5921 71.8786 34.8098 71.6658C35.0276 71.453 35.154 71.1638 35.1625 70.8593C35.1709 70.5549 35.0606 70.2591 34.8549 70.0346C34.6493 69.8101 34.3644 69.6745 34.0606 69.6565ZM26.3647 68.3121C25.1136 67.9381 23.8855 67.4913 22.6865 66.9739C22.4011 66.8508 22.0786 66.8461 21.7898 66.961C21.5011 67.0759 21.2697 67.3008 21.1467 67.5864C21.0237 67.8719 21.019 68.1947 21.1338 68.4837C21.2486 68.7727 21.4734 69.0042 21.7587 69.1274C23.0419 69.6805 24.3563 70.1583 25.6951 70.5582C25.8425 70.6022 25.9971 70.6167 26.15 70.601C26.303 70.5852 26.4514 70.5394 26.5867 70.4662C26.722 70.393 26.8415 70.2939 26.9386 70.1745C27.0356 70.0551 27.1081 69.9177 27.1521 69.7702C27.1961 69.6227 27.2106 69.468 27.1948 69.3149C27.179 69.1618 27.1333 69.0134 27.0602 68.878C26.987 68.7426 26.888 68.6229 26.7687 68.5258C26.6494 68.4287 26.5121 68.3561 26.3647 68.3121ZM1.26516 33.1843C1.57383 33.2196 1.88387 33.1308 2.12711 32.9374C2.37034 32.744 2.52685 32.4618 2.56221 32.1529C2.71086 30.8552 2.93478 29.5674 3.23285 28.2958C3.29449 27.9966 3.23702 27.6851 3.07269 27.4277C2.90835 27.1703 2.65012 26.9872 2.35295 26.9175C2.05579 26.8477 1.74315 26.8968 1.48159 27.0542C1.22002 27.2117 1.03018 27.4651 0.952471 27.7605C0.63354 29.1207 0.393819 30.4982 0.234518 31.8863C0.199223 32.1952 0.287973 32.5054 0.48125 32.7489C0.674528 32.9923 0.956503 33.1489 1.26516 33.1843ZM49.3454 66.9615C48.1512 67.4773 46.9148 67.9292 45.6692 68.3018C45.3742 68.3933 45.1272 68.5976 44.982 68.8704C44.8368 69.1432 44.805 69.4623 44.8937 69.7584C44.9824 70.0544 45.1843 70.3035 45.4555 70.4514C45.7267 70.5992 46.0453 70.6339 46.3419 70.5479C47.6798 70.1467 48.9932 69.6675 50.2752 69.113C50.4206 69.0548 50.5528 68.968 50.6641 68.8577C50.7754 68.7475 50.8635 68.6161 50.9232 68.4712C50.9829 68.3263 51.0129 68.171 51.0116 68.0143C51.0102 67.8576 50.9775 67.7028 50.9153 67.5589C50.8532 67.4151 50.7628 67.2852 50.6497 67.1769C50.5365 67.0686 50.4028 66.9841 50.2564 66.9285C50.1101 66.8728 49.954 66.847 49.7976 66.8527C49.6411 66.8584 49.4873 66.8954 49.3454 66.9615ZM1.54288 41.2743C1.69572 41.2565 1.84358 41.2088 1.97799 41.1338C2.1124 41.0589 2.23075 40.9582 2.32626 40.8374C2.42178 40.7167 2.4926 40.5783 2.53467 40.4302C2.57674 40.2821 2.58924 40.1271 2.57147 39.9741C2.42071 38.676 2.34447 37.3703 2.34312 36.0635C2.34285 35.7525 2.21915 35.4544 1.99925 35.2347C1.77935 35.0151 1.48125 34.8918 1.17053 34.8921C0.859815 34.8923 0.561932 35.0161 0.342415 35.2362C0.122898 35.4563 -0.000272341 35.7546 4.52166e-07 36.0656C0.00102904 37.4614 0.0833159 38.8675 0.243775 40.2459C0.261523 40.3989 0.309205 40.5468 0.3841 40.6813C0.458994 40.8159 0.559633 40.9343 0.68027 41.0299C0.800906 41.1255 0.939177 41.1964 1.08718 41.2385C1.23519 41.2806 1.39004 41.2931 1.54288 41.2753V41.2743Z" fill="white"/>
<path d="M3.26418 24.5922H16.7505C17.4081 24.5914 18.0386 24.3299 18.5036 23.865C18.9686 23.4001 19.2302 22.7698 19.231 22.1123V19.2984C19.232 18.3705 19.0796 17.4488 18.78 16.5705C18.6816 16.317 18.489 16.1114 18.2424 15.9966C17.9959 15.8818 17.7145 15.8668 17.4571 15.9547C17.1997 16.0426 16.9863 16.2266 16.8614 16.4682C16.7366 16.7098 16.7101 16.9902 16.7874 17.2509C17.0129 17.9068 17.1256 18.5964 17.1256 19.2984V22.1103C17.1256 22.2097 17.0861 22.3051 17.0158 22.3755C16.9454 22.4458 16.85 22.4853 16.7505 22.4853H3.26418C3.16469 22.4853 3.06926 22.4458 2.99891 22.3755C2.92855 22.3051 2.88902 22.2097 2.88902 22.1103V19.2984C2.88902 17.4877 3.66805 15.7722 5.00058 14.5764C5.57525 15.343 6.32064 15.9654 7.17767 16.394C8.03471 16.8227 8.97983 17.0459 9.93814 17.046C11.5762 17.0441 13.1466 16.3927 14.3048 15.2346C15.463 14.0765 16.1144 12.5065 16.116 10.8688C16.1135 9.23169 15.4616 7.66235 14.3033 6.50509C13.1449 5.34783 11.5747 4.69716 9.93712 4.6958C8.29941 4.6977 6.72931 5.34886 5.57118 6.50648C4.41305 7.66409 3.76144 9.23365 3.75927 10.8709C3.75927 11.4909 3.85153 12.0883 4.02271 12.654C3.01426 13.4443 2.19859 14.4533 1.63729 15.6049C1.076 16.7564 0.783742 18.0204 0.782593 19.3015V22.1133C0.783407 22.7708 1.04501 23.4011 1.51003 23.866C1.97505 24.3309 2.60552 24.5924 3.26316 24.5932L3.26418 24.5922ZM9.93814 6.7996C11.0176 6.80068 12.0526 7.22986 12.8159 7.99295C13.5792 8.75604 14.0085 9.7907 14.0096 10.8699C14.0085 11.949 13.5792 12.9837 12.8159 13.7468C12.0526 14.5099 11.0176 14.9391 9.93814 14.9402C8.85867 14.9391 7.82372 14.5099 7.06042 13.7468C6.29712 12.9837 5.86782 11.949 5.86673 10.8699C5.86782 9.7907 6.29712 8.75604 7.06042 7.99295C7.82372 7.22986 8.85867 6.80068 9.93814 6.7996ZM52.7679 19.2994V22.1113C52.7687 22.7688 53.0303 23.399 53.4953 23.8639C53.9604 24.3288 54.5908 24.5904 55.2485 24.5912H68.7358C69.3934 24.5904 70.0239 24.3288 70.4889 23.8639C70.9539 23.399 71.2155 22.7688 71.2164 22.1113V19.2994C71.2164 18.3659 71.0657 17.4477 70.7653 16.5715C70.6669 16.318 70.4743 16.1124 70.2277 15.9976C69.9812 15.8829 69.6998 15.8678 69.4424 15.9557C69.185 16.0436 68.9716 16.2276 68.8467 16.4692C68.7219 16.7108 68.6954 16.9913 68.7727 17.252C68.9972 17.9078 69.1109 18.5975 69.1109 19.2994V22.1113C69.1109 22.2108 69.0714 22.3062 69.0011 22.3765C68.9307 22.4468 68.8353 22.4864 68.7358 22.4864H55.2505C55.151 22.4864 55.0556 22.4468 54.9852 22.3765C54.9149 22.3062 54.8754 22.2108 54.8754 22.1113V19.2994C54.8754 17.4887 55.6544 15.7733 56.9869 14.5774C57.5616 15.3441 58.307 15.9664 59.164 16.3951C60.021 16.8237 60.9662 17.0469 61.9245 17.047C63.5625 17.0451 65.1329 16.3937 66.2911 15.2356C67.4493 14.0776 68.1007 12.5075 68.1023 10.8699C68.0999 9.23263 67.448 7.66318 66.2897 6.50576C65.1314 5.34833 63.5612 4.69743 61.9235 4.6958C60.2857 4.69743 58.7154 5.34851 57.5572 6.50618C56.399 7.66385 55.7475 9.23357 55.7456 10.8709C55.7456 11.4909 55.8379 12.0883 56.009 12.654C55.0004 13.4439 54.1846 14.4527 53.6231 15.6042C53.0616 16.7556 52.7692 18.0195 52.7679 19.3004V19.2994ZM61.9235 6.7996C63.0029 6.80068 64.0379 7.22986 64.8012 7.99295C65.5645 8.75604 65.9938 9.7907 65.9949 10.8699C65.9938 11.949 65.5645 12.9837 64.8012 13.7468C64.0379 14.5099 63.0029 14.9391 61.9235 14.9402C60.844 14.9391 59.809 14.5099 59.0457 13.7468C58.2824 12.9837 57.8531 11.949 57.852 10.8699C57.8531 9.7907 58.2824 8.75604 59.0457 7.99295C59.809 7.22986 60.844 6.80068 61.9235 6.7996ZM69.4297 58.628C69.2989 58.6727 69.1781 58.7427 69.0743 58.834C68.9705 58.9253 68.8858 59.0362 68.8248 59.1603C68.7639 59.2844 68.7281 59.4192 68.7193 59.5572C68.7105 59.6951 68.729 59.8335 68.7737 59.9643C68.9972 60.6201 69.1109 61.3097 69.1109 62.0117V64.8246C69.1107 64.9239 69.071 65.019 69.0007 65.0892C68.9304 65.1593 68.8351 65.1986 68.7358 65.1986H55.2505C55.1512 65.1986 55.0559 65.1593 54.9856 65.0892C54.9153 65.019 54.8756 64.9239 54.8754 64.8246V62.0127C54.8754 60.201 55.6544 58.4856 56.9869 57.2897C57.5616 58.0564 58.307 58.6787 59.164 59.1074C60.021 59.536 60.9662 59.7592 61.9245 59.7593C63.5624 59.7574 65.1326 59.1061 66.2908 57.9483C67.4489 56.7904 68.1004 55.2206 68.1023 53.5832C68.1004 51.9458 67.4489 50.3759 66.2908 49.2181C65.1326 48.0603 63.5624 47.409 61.9245 47.4071C60.2865 47.4087 58.7161 48.0599 57.5579 49.2178C56.3997 50.3757 55.7483 51.9457 55.7466 53.5832C55.7466 54.2021 55.8389 54.7996 56.0101 55.3642C55.0013 56.1545 54.1853 57.1637 53.6239 58.3154C53.0624 59.4672 52.77 60.7315 52.7689 62.0127V64.8246C52.7697 65.4821 53.0313 66.1124 53.4964 66.5773C53.9614 67.0421 54.5919 67.3037 55.2495 67.3045H68.7368C69.3944 67.3037 70.0249 67.0421 70.4899 66.5773C70.955 66.1124 71.2166 65.4821 71.2174 64.8246V62.0127C71.2174 61.0782 71.0667 60.161 70.7664 59.2838C70.6759 59.0201 70.4845 58.8029 70.2341 58.6799C69.9838 58.557 69.6949 58.5383 69.4307 58.628H69.4297ZM61.9235 49.5129C63.0027 49.514 64.0375 49.943 64.8008 50.7059C65.5641 51.4688 65.9935 52.5032 65.9949 53.5822C65.9938 54.6613 65.5645 55.696 64.8012 56.4591C64.0379 57.2222 63.0029 57.6514 61.9235 57.6524C60.8442 57.6514 59.8094 57.2223 59.0461 56.4594C58.2828 55.6966 57.8534 54.6622 57.852 53.5832C57.8531 52.504 58.2824 51.4694 59.0457 50.7063C59.809 49.9432 60.844 49.514 61.9235 49.5129ZM17.4444 58.628C17.3136 58.6727 17.1928 58.7427 17.089 58.834C16.9852 58.9253 16.9005 59.0362 16.8395 59.1603C16.7786 59.2844 16.7427 59.4192 16.734 59.5572C16.7252 59.6951 16.7437 59.8335 16.7884 59.9643C17.0119 60.6201 17.1256 61.3097 17.1256 62.0117V64.8246C17.1254 64.9239 17.0857 65.019 17.0154 65.0892C16.9451 65.1593 16.8498 65.1986 16.7505 65.1986H3.26418C3.16486 65.1986 3.0696 65.1593 2.99927 65.0892C2.92894 65.019 2.8893 64.9239 2.88902 64.8246V62.0127C2.88902 60.201 3.66805 58.4856 5.00058 57.2897C5.57531 58.0563 6.3207 58.6786 7.17773 59.1072C8.03475 59.5359 8.97984 59.7592 9.93814 59.7593C11.576 59.7574 13.1463 59.1061 14.3044 57.9483C15.4626 56.7904 16.1141 55.2206 16.116 53.5832C16.1141 51.9458 15.4626 50.3759 14.3044 49.2181C13.1463 48.0603 11.576 47.409 9.93814 47.4071C8.30017 47.4087 6.72976 48.0599 5.57154 49.2178C4.41333 50.3757 3.76193 51.9457 3.7603 53.5832C3.7603 54.2021 3.85255 54.7996 4.02373 55.3642C3.01514 56.1546 2.1994 57.1638 1.6381 58.3156C1.07679 59.4673 0.784612 60.7315 0.783618 62.0127V64.8246C0.784432 65.4821 1.04604 66.1124 1.51106 66.5773C1.97608 67.0421 2.60655 67.3037 3.26418 67.3045H16.7515C17.4091 67.3037 18.0396 67.0421 18.5046 66.5773C18.9696 66.1124 19.2313 65.4821 19.2321 64.8246V62.0127C19.2321 61.0782 19.0804 60.161 18.7811 59.2838C18.6906 59.0198 18.499 58.8025 18.2484 58.6795C17.9978 58.5565 17.7087 58.538 17.4444 58.628ZM9.93814 49.5129C11.0174 49.514 12.0522 49.943 12.8155 50.7059C13.5788 51.4688 14.0082 52.5032 14.0096 53.5822C14.0085 54.6613 13.5792 55.696 12.8159 56.4591C12.0526 57.2222 11.0176 57.6514 9.93814 57.6524C8.85885 57.6514 7.82405 57.2223 7.06078 56.4594C6.29751 55.6966 5.86809 54.6622 5.86673 53.5832C5.86782 52.504 6.29712 51.4694 7.06042 50.7063C7.82372 49.9432 8.85867 49.514 9.93814 49.5129ZM45.9607 24.3657H34.7541C29.9118 24.3657 25.8835 27.9072 25.1188 32.535H24.7365C20.3678 32.535 16.814 36.1882 16.814 40.6786C16.814 43.842 18.5668 46.6754 21.317 48.026C22.669 51.299 26.887 52.8689 27.0735 52.9376C27.2683 53.0095 27.4801 53.0218 27.682 52.9731C27.8838 52.9244 28.0666 52.8168 28.2072 52.664C28.4952 52.3525 28.569 51.8995 28.3938 51.5132C27.9694 50.5807 27.7316 49.6789 27.6803 48.8222H33.5671C36.8226 48.8222 39.625 46.7922 40.8417 43.8983H42.5187C42.4879 45.0512 42.1763 46.2706 41.5828 47.5341C41.4952 47.7221 41.465 47.9317 41.496 48.1368C41.527 48.3418 41.6179 48.5331 41.7573 48.6868C41.8966 48.8404 42.0782 48.9495 42.2793 49.0004C42.4804 49.0513 42.692 49.0417 42.8877 48.9729C43.1214 48.8909 48.4372 46.9746 50.069 42.9935C51.7628 42.2142 53.1969 40.9647 54.2006 39.3937C55.2042 37.8228 55.7352 35.9966 55.7302 34.1326C55.7302 28.7465 51.3472 24.3657 45.9617 24.3657H45.9607ZM48.841 41.232C48.6998 41.2878 48.5726 41.3741 48.4684 41.4846C48.3643 41.5951 48.2857 41.7271 48.2383 41.8714C47.6469 43.7159 45.8479 45.0891 44.3637 45.9458C44.616 44.8953 44.6863 43.8095 44.5718 42.7353C44.544 42.4769 44.4219 42.2378 44.2288 42.0639C44.0357 41.8899 43.7852 41.7933 43.5252 41.7925H34.7551C33.7771 41.7931 32.8082 41.6052 31.9014 41.2391C31.7108 41.1611 31.5014 41.1409 31.2994 41.1812C31.0974 41.2215 30.9117 41.3204 30.7657 41.4656L30.7513 41.481C30.6294 41.6031 30.5397 41.7536 30.4901 41.9188C30.4406 42.0841 30.4327 42.2591 30.4672 42.4281C30.5017 42.5972 30.5775 42.7551 30.6879 42.8877C30.7983 43.0203 30.9398 43.1236 31.0998 43.1882C32.2606 43.6585 33.5016 43.8997 34.7541 43.8983H38.4831C37.4519 45.5902 35.6335 46.7164 33.5671 46.7164H26.6553C26.1223 46.7164 25.6682 47.116 25.6098 47.6469C25.5305 48.3834 25.5547 49.1274 25.6815 49.8572C24.6596 49.1819 23.5679 48.2074 23.1671 46.9593C23.1216 46.8089 23.0439 46.6701 22.9395 46.5527C22.8351 46.4352 22.7064 46.3418 22.5624 46.2788C20.3493 45.3525 18.9205 43.1534 18.9205 40.6786C18.9205 37.3482 21.5292 34.6408 24.7354 34.6408H24.9989C25.0537 35.7144 25.2868 36.7713 25.6887 37.7683C25.7526 37.9292 25.8554 38.0716 25.988 38.1829C26.1205 38.2942 26.2786 38.3709 26.4481 38.406C26.6175 38.4411 26.7931 38.4337 26.959 38.3843C27.1249 38.3349 27.2759 38.245 27.3985 38.1229L27.4138 38.1075C27.7111 37.8104 27.7982 37.3656 27.6414 36.9772C27.2559 36.0195 27.0693 34.9935 27.093 33.9614C27.1853 29.7805 30.6786 26.4706 34.8627 26.4706H45.8315C50.0608 26.4706 53.6371 29.9301 53.6238 34.1561C53.6229 35.6779 53.167 37.1648 52.3146 38.4256C51.4621 39.6864 50.2521 40.6637 48.84 41.232H48.841Z" fill="#150C19"/>
</g>
<defs>
<clipPath id="clip0_31_407">
<rect width="72" height="72" fill="white"/>
</clipPath>
</defs>
</svg>
