<svg width="19" height="16" viewBox="0 0 19 16" fill="none" xmlns="http://www.w3.org/2000/svg">
<path d="M12.5909 15V13.4444C12.5909 12.6193 12.2653 11.828 11.6856 11.2446C11.1059 10.6611 10.3198 10.3333 9.5 10.3333H4.09091C3.27115 10.3333 2.48496 10.6611 1.90531 11.2446C1.32565 11.828 1 12.6193 1 13.4444V15M15.6818 4.88889V9.55556M18 7.22222H13.3636M9.88636 4.11111C9.88636 5.82933 8.50252 7.22222 6.79545 7.22222C5.08839 7.22222 3.70455 5.82933 3.70455 4.11111C3.70455 2.39289 5.08839 1 6.79545 1C8.50252 1 9.88636 2.39289 9.88636 4.11111Z" stroke="white" stroke-linecap="square"/>
</svg>
