<svg width="70" height="64" viewBox="0 0 70 64" fill="none" xmlns="http://www.w3.org/2000/svg">
<path d="M40.4688 12.8594H68.6328V51.1406H40.4688V12.8594Z" fill="#379FFF"/>
<path d="M60.0195 12.8594V27.8984L57.2852 29.2656L54.5508 27.8984L51.8164 29.2656L49.082 27.8984V12.8594H60.0195Z" fill="white"/>
<path d="M28.1791 40.735C28.5195 39.3787 28.7109 38.0826 28.7109 37.4688C28.7109 32.0957 25.5938 27.4869 21.0807 25.2639C19.7736 24.6201 19.1337 23.1287 19.6752 21.7762L23.2422 15.5938C21.1914 15.5938 21.1914 12.8594 19.1406 12.8594C17.0898 12.8594 17.0898 15.5938 15.0391 15.5938C12.9883 15.5938 12.9883 12.8594 10.9375 12.8594C8.88672 12.8594 8.88672 15.5938 6.83594 15.5938L10.4029 21.7762C10.945 23.13 10.3046 24.6199 8.99746 25.2639C4.48438 27.4869 1.36719 32.0957 1.36719 37.4688C1.36719 38.0826 1.55859 39.3787 1.89902 40.735C2.33516 42.4699 2.24766 44.2773 1.63926 45.9604C1.46426 46.4471 1.36719 46.8641 1.36719 47.0391C1.36719 49.3045 3.20332 51.1406 5.46875 51.1406C5.64375 51.1406 6.06074 51.0436 6.54746 50.8686C8.22363 50.2629 10.0447 50.1754 11.7729 50.6088C13.1291 50.9492 14.4252 51.1406 15.0391 51.1406C15.6529 51.1406 16.949 50.9492 18.3053 50.6088C20.0402 50.1727 21.8477 50.2602 23.5307 50.8686C24.0174 51.0436 24.4344 51.1406 24.6094 51.1406C26.8748 51.1406 28.7109 49.3045 28.7109 47.0391C28.7109 46.8641 28.6139 46.4471 28.4389 45.9604C27.8332 44.2842 27.7457 42.4631 28.1791 40.735Z" fill="#FF41B3"/>
<path d="M0 47.0391C0 50.0545 2.45328 52.5078 5.46875 52.5078C5.95643 52.5078 6.64385 52.2867 7.01189 52.1544C8.43363 51.6409 9.96502 51.5649 11.4401 51.935C12.8052 52.2776 14.2516 52.5078 15.0391 52.5078C15.8266 52.5078 17.2729 52.2776 18.6385 51.9347C20.1127 51.5643 21.6434 51.6401 23.0679 52.1549C23.4343 52.2867 24.1216 52.5078 24.6092 52.5078C27.6247 52.5078 30.078 50.0545 30.078 47.0391C30.078 46.5514 29.8571 45.864 29.7246 45.4958C29.2109 44.0743 29.135 42.5431 29.5051 41.0677C29.8479 39.7022 30.078 38.2558 30.078 37.4688C30.078 31.7342 26.862 26.5876 21.6847 24.0374C21.0506 23.725 20.6922 23.0308 20.9162 22.3606L24.4263 16.2769C24.6704 15.8539 24.6702 15.3328 24.4259 14.9099C24.1819 14.487 23.7305 14.2266 23.2422 14.2266C22.9547 14.2266 22.8026 14.0963 22.2852 13.4062C21.7134 12.644 20.8496 11.4922 19.1406 11.4922C17.4316 11.4922 16.5679 12.644 15.9961 13.4062C15.4786 14.0963 15.3266 14.2266 15.0391 14.2266C14.7515 14.2266 14.5995 14.0963 14.082 13.4062C13.5103 12.644 12.6465 11.4922 10.9375 11.4922C9.22852 11.4922 8.36473 12.644 7.79297 13.4062C7.27549 14.0963 7.12346 14.2266 6.83594 14.2266C6.34758 14.2266 5.89627 14.487 5.65209 14.91C5.40777 15.3329 5.40764 15.8541 5.65168 16.2771L9.1618 22.3608C9.16959 22.3842 9.17451 22.4069 9.1808 22.4298H4.10156C3.3477 22.4298 2.73438 21.8165 2.73438 21.0626C2.73438 20.3075 2.12215 19.6954 1.36719 19.6954C0.612227 19.6954 0 20.3075 0 21.0626C0 23.3242 1.83996 25.1628 4.10156 25.1628H6.47158C2.43291 27.9395 0 32.4819 0 37.4688C0 38.2558 0.230234 39.7022 0.572988 41.0684C0.943633 42.5424 0.867617 44.0732 0.352734 45.4977C0.220937 45.864 0 46.5514 0 47.0391H0ZM8.82164 16.2998C9.32955 15.9149 9.69213 15.4313 9.98047 15.0469C10.4979 14.3569 10.65 14.2266 10.9375 14.2266C11.225 14.2266 11.3771 14.3569 11.8945 15.0469C12.4663 15.8091 13.3301 16.9609 15.0391 16.9609C16.748 16.9609 17.6118 15.8091 18.1836 15.0469C18.7011 14.3569 18.8531 14.2266 19.1406 14.2266C19.4281 14.2266 19.5802 14.3569 20.0977 15.0469C20.3859 15.4313 20.7486 15.9148 21.2565 16.2998L18.4909 21.093C18.3564 21.3264 18.1781 21.8631 18.1299 22.4297H11.9483C11.9 21.863 11.7217 21.3264 11.5872 21.093L8.82164 16.2998ZM9.60162 26.4904C10.2359 26.178 10.7755 25.7209 11.1789 25.1641H18.9038C19.3065 25.7196 19.8425 26.1781 20.4765 26.4904C24.7125 28.5768 27.3438 32.7835 27.3438 37.4688C27.3438 37.9429 27.1718 39.1322 26.8531 40.4025C26.3501 42.4076 26.4538 44.4901 27.1522 46.423C27.2688 46.7472 27.3276 46.9907 27.3432 47.0828C27.32 48.556 26.1261 49.7501 24.6529 49.7732C24.5607 49.7576 24.3175 49.6987 23.9952 49.5829C22.0585 48.8827 19.9757 48.7792 17.9721 49.2828C16.7027 49.6014 15.5135 49.7734 15.0391 49.7734C14.5646 49.7734 13.3755 49.6014 12.1055 49.2826C11.271 49.0733 10.4232 48.9693 9.57824 48.9693C8.39303 48.9693 7.21328 49.1743 6.08467 49.582C5.76064 49.6985 5.51729 49.7574 5.42514 49.773C3.95199 49.7499 2.75803 48.5558 2.73479 47.0827C2.75023 46.9905 2.80916 46.7472 2.9251 46.4251C3.6251 44.4886 3.72887 42.4057 3.22506 40.402C2.90637 39.1322 2.73438 37.9429 2.73438 37.4688C2.73438 32.7835 5.36566 28.5768 9.60162 26.4904Z" fill="#150C19"/>
<path d="M15.0391 38.8359C15.7929 38.8359 16.4062 39.4493 16.4062 40.2031C16.4062 40.957 15.7929 41.5703 15.0391 41.5703C14.605 41.5703 14.2062 41.3707 13.9448 41.0226C13.4911 40.419 12.6342 40.2969 12.0304 40.7505C11.4267 41.204 11.3049 42.061 11.7584 42.6647C12.2471 43.3154 12.919 43.7992 13.6719 44.0668V45.6719C13.6719 46.427 14.2841 47.0391 15.0391 47.0391C15.794 47.0391 16.4062 46.427 16.4062 45.6719V44.0695C17.9975 43.5052 19.1406 41.9855 19.1406 40.2031C19.1406 37.9415 17.3007 36.1016 15.0391 36.1016C14.2852 36.1016 13.6719 35.4882 13.6719 34.7344C13.6719 33.9805 14.2852 33.3672 15.0391 33.3672C15.4731 33.3672 15.872 33.5668 16.1334 33.9149C16.5869 34.5185 17.4438 34.6404 18.0477 34.187C18.6514 33.7335 18.7733 32.8765 18.3198 32.2728C17.831 31.6221 17.1592 31.1383 16.4062 30.8707V29.2656C16.4062 28.5105 15.794 27.8984 15.0391 27.8984C14.2841 27.8984 13.6719 28.5105 13.6719 29.2656V30.868C12.0806 31.4323 10.9375 32.952 10.9375 34.7344C10.9375 36.996 12.7775 38.8359 15.0391 38.8359Z" fill="#150C19"/>
<path d="M54.5508 44.3047C53.7958 44.3047 53.1836 44.9168 53.1836 45.6719C53.1836 46.427 53.7958 47.0391 54.5508 47.0391H57.2852C58.0401 47.0391 58.6523 46.427 58.6523 45.6719C58.6523 44.9168 58.0401 44.3047 57.2852 44.3047H54.5508Z" fill="#150C19"/>
<path d="M64.5312 40.2031C64.5312 39.448 63.919 38.8359 63.1641 38.8359H54.5508C53.7958 38.8359 53.1836 39.448 53.1836 40.2031C53.1836 40.9582 53.7958 41.5703 54.5508 41.5703H63.1641C63.919 41.5703 64.5312 40.9582 64.5312 40.2031Z" fill="#150C19"/>
<path d="M51.5104 55.4918C46.6625 58.9064 40.9534 60.7112 35.0001 60.7112C30.1073 60.7112 25.3639 59.4859 21.1353 57.1483L21.6821 57.0019C22.4115 56.8065 22.8443 56.0567 22.6488 55.3275C22.4533 54.5981 21.7035 54.1651 20.9744 54.3607L17.2392 55.3615C16.5104 55.5567 16.077 56.3066 16.2725 57.036L17.2733 60.7712C17.4688 61.5009 18.2191 61.9334 18.9477 61.7379C19.6771 61.5426 20.1099 60.7928 19.9144 60.0634L19.7679 59.5165C24.4119 62.0939 29.6239 63.4455 35.0001 63.4455C41.5199 63.4455 47.7737 61.4683 53.085 57.7274C53.7023 57.2927 53.8502 56.4397 53.4154 55.8224C52.9807 55.2051 52.1281 55.057 51.5104 55.4918Z" fill="white"/>
<path d="M16.9149 6.27281C16.2976 6.70758 16.1497 7.56057 16.5845 8.17785C17.0172 8.7924 17.8692 8.94498 18.4897 8.5083C23.3374 5.09389 29.0467 3.28906 34.9998 3.28906C39.8917 3.28906 44.6355 4.51461 48.8643 6.85195L48.3179 6.99838C47.5885 7.19375 47.1556 7.94352 47.3511 8.67277C47.5466 9.40244 48.2968 9.83502 49.0255 9.63951L52.7607 8.63873C53.4895 8.4435 53.9229 7.69359 53.7274 6.9642L52.7266 3.22904C52.5311 2.49979 51.7815 2.06666 51.0522 2.2623C50.3228 2.45768 49.89 3.20744 50.0855 3.93684L50.2322 4.48398C45.5879 1.90656 40.3753 0.554688 34.9998 0.554688C28.48 0.554688 22.2262 2.53191 16.9149 6.27281Z" fill="white"/>
<path d="M68.6328 11.4922H40.4688C39.7138 11.4922 39.1016 12.1043 39.1016 12.8594V51.1406C39.1016 51.8957 39.7138 52.5078 40.4688 52.5078H68.6328C69.3878 52.5078 70 51.8957 70 51.1406V38.1523C70 37.3972 69.3878 36.7852 68.6328 36.7852C67.8779 36.7852 67.2656 37.3972 67.2656 38.1523V49.7734H41.8359V14.2266H47.7148V27.8984C47.7148 28.4163 48.0074 28.8896 48.4706 29.1213L51.205 30.4884C51.5897 30.6808 52.043 30.6808 52.4277 30.4884L54.5508 29.427L56.6738 30.4884C57.0579 30.6805 57.5109 30.6812 57.8964 30.4884L60.6308 29.1213C61.0941 28.8896 61.3867 28.4163 61.3867 27.8984V14.2266H67.2656V25.8477C67.2656 26.6028 67.8779 27.2148 68.6328 27.2148C69.3878 27.2148 70 26.6028 70 25.8477V12.8594C70 12.1043 69.3878 11.4922 68.6328 11.4922ZM58.6523 27.0535L57.2852 27.7371L55.1622 26.6756C54.7775 26.4833 54.3242 26.4833 53.9395 26.6756L51.8164 27.7371L50.4492 27.0535V14.2266H58.6523V27.0535Z" fill="#150C19"/>
</svg>
