<svg width="70" height="70" viewBox="0 0 70 70" fill="none" xmlns="http://www.w3.org/2000/svg">
<g clip-path="url(#clip0_251_817)">
<path d="M16.3991 22.9873H2.88553C2.29832 22.9873 1.82227 22.5113 1.82227 21.9241V18.941C1.82227 14.6221 5.32349 11.1208 9.64243 11.1208C13.9614 11.1208 17.4626 14.6221 17.4626 18.941V21.9241C17.4623 22.5114 16.9864 22.9873 16.3991 22.9873Z" fill="#379FFF"/>
<path d="M24.3298 49.4656C22.8148 48.4654 21.8417 47.3188 21.437 46.0576C18.8872 44.9749 17.2412 42.4413 17.2412 39.594C17.2412 35.7406 20.2779 32.6055 24.0107 32.6055H32.6261C36.3588 32.6055 39.3956 35.7406 39.3956 39.594C39.3956 43.4474 36.359 46.5823 32.6261 46.5823H25.9453C25.8878 47.159 25.9111 47.7593 26.0143 48.3677L26.324 50.194C26.3666 50.4456 26.0887 50.6267 25.8758 50.4862L24.3298 49.4656Z" fill="#FF41B3"/>
<path d="M42.0918 44.486C42.3074 43.5578 42.3703 42.6467 42.2792 41.7772H33.9147C29.2109 41.7772 25.2855 38.0419 25.2139 33.3385C25.1409 28.5515 29.0139 24.6338 33.7845 24.6338H44.5973C49.3111 24.6338 53.2331 28.389 53.2884 33.1025C53.3299 36.64 51.2334 39.7979 47.9678 41.1372C47.2648 43.2659 45.265 44.7835 43.7073 45.6831L42.1025 46.6098C41.8815 46.7375 41.6148 46.5398 41.6725 46.2912L42.0918 44.486Z" fill="#379FFF"/>
<path d="M67.0504 22.9873H53.5369C52.9497 22.9873 52.4736 22.5113 52.4736 21.9241V18.941C52.4736 14.6221 55.9749 11.1208 60.2938 11.1208C64.6127 11.1208 68.1139 14.6221 68.1139 18.941V21.9241C68.1137 22.5114 67.6376 22.9873 67.0504 22.9873Z" fill="#FF41B3"/>
<path d="M16.3991 64.7587H2.88553C2.29832 64.7587 1.82227 64.2827 1.82227 63.6953V60.7123C1.82227 56.3933 5.32349 52.8921 9.64243 52.8921C13.9614 52.8921 17.4626 56.3933 17.4626 60.7123V63.6953C17.4623 64.2825 16.9864 64.7587 16.3991 64.7587Z" fill="#FF41B3"/>
<path d="M67.0504 64.7587H53.5369C52.9497 64.7587 52.4736 64.2827 52.4736 63.6953V60.7123C52.4736 56.3933 55.9749 52.8921 60.2938 52.8921C64.6127 52.8921 68.1139 56.3933 68.1139 60.7123V63.6953C68.1137 64.2825 67.6376 64.7587 67.0504 64.7587Z" fill="#379FFF"/>
<path d="M9.57444 15.573C6.78019 15.573 4.50684 13.2996 4.50684 10.5052C4.50684 7.71086 6.78019 5.4375 9.57444 5.4375C12.3688 5.4375 14.6422 7.71086 14.6422 10.5052C14.6422 13.2996 12.3688 15.573 9.57444 15.573Z" fill="#FFE07D"/>
<path d="M60.2258 15.573C57.4316 15.573 55.1582 13.2996 55.1582 10.5052C55.1582 7.71086 57.4316 5.4375 60.2258 5.4375C63.0202 5.4375 65.2936 7.71086 65.2936 10.5052C65.2936 13.2996 63.0202 15.573 60.2258 15.573Z" fill="#FFE07D"/>
<path d="M9.57444 57.3445C6.78019 57.3445 4.50684 55.071 4.50684 52.2767C4.50684 49.4825 6.78019 47.209 9.57444 47.209C12.3688 47.209 14.6422 49.4823 14.6422 52.2767C14.6422 55.0711 12.3688 57.3445 9.57444 57.3445Z" fill="#FFE07D"/>
<path d="M60.2258 57.3445C57.4316 57.3445 55.1582 55.071 55.1582 52.2767C55.1582 49.4825 57.4316 47.209 60.2258 47.209C63.0202 47.209 65.2936 49.4823 65.2936 52.2767C65.2936 55.0711 63.0202 57.3445 60.2258 57.3445Z" fill="#FFE07D"/>
<path d="M18.0288 6.85932C18.2229 6.85932 18.4195 6.80955 18.5994 6.70523C19.693 6.07045 20.8349 5.49405 21.9932 4.99174C22.5703 4.74141 22.8352 4.07094 22.5849 3.49385C22.3347 2.9169 21.6641 2.65194 21.0872 2.90214C19.8478 3.43958 18.6261 4.05631 17.4561 4.73539C16.9119 5.05121 16.7271 5.74793 17.0428 6.29193C17.2541 6.65602 17.6361 6.85932 18.0288 6.85932Z" fill="white"/>
<path d="M40.6308 2.78774C41.8769 3.00376 43.1227 3.29565 44.3338 3.65536C44.4421 3.68749 44.5512 3.7028 44.6587 3.7028C45.1498 3.7028 45.6029 3.38261 45.75 2.88782C45.9292 2.28489 45.5855 1.65093 44.9826 1.47196C43.6863 1.0871 42.3533 0.774564 41.0201 0.54351C40.4009 0.436186 39.8108 0.851263 39.7035 1.47101C39.596 2.09089 40.0112 2.68028 40.6308 2.78774Z" fill="white"/>
<path d="M32.9765 2.36465C32.999 2.36465 33.0217 2.36411 33.0446 2.3626C33.691 2.32446 34.3476 2.30518 34.9963 2.30518C34.9976 2.30518 34.9987 2.30518 34.9998 2.30518C35.6162 2.30518 36.239 2.32254 36.8508 2.35672C37.482 2.39268 38.0163 1.91116 38.0513 1.28321C38.0862 0.655263 37.6058 0.117685 36.9778 0.0826854C36.3239 0.0461816 35.6583 0.0275879 35 0.0275879C34.9987 0.0275879 34.9976 0.0275879 34.9962 0.0275879C34.3032 0.0275879 33.6014 0.0480957 32.9107 0.0889745C32.2829 0.126025 31.8038 0.66497 31.8409 1.29278C31.8763 1.8979 32.3782 2.36465 32.9765 2.36465Z" fill="white"/>
<path d="M67.6759 26.0424C67.0641 26.1881 66.6863 26.8024 66.832 27.4142C67.1248 28.6426 67.348 29.9028 67.4961 31.1596C67.5643 31.739 68.0562 32.1655 68.6255 32.1655C68.6701 32.1655 68.7149 32.1629 68.7602 32.1575C69.3847 32.084 69.8315 31.5181 69.758 30.8934C69.5998 29.5489 69.3608 28.2008 69.0477 26.8865C68.9017 26.2744 68.2878 25.8962 67.6759 26.0424Z" fill="white"/>
<path d="M65.7584 46.2198C65.5434 46.8108 65.8481 47.4644 66.4393 47.6794C66.5678 47.7263 66.6992 47.7483 66.8286 47.7483C67.2939 47.7483 67.7306 47.4611 67.8989 46.9986C68.3619 45.7265 68.754 44.4138 69.0651 43.0966C69.2094 42.4845 68.8303 41.8711 68.2182 41.7267C67.607 41.5825 66.9927 41.961 66.8482 42.5735C66.5575 43.8044 66.191 45.0312 65.7584 46.2198Z" fill="white"/>
<path d="M47.9121 4.95128C49.073 5.4503 50.2174 6.02383 51.3142 6.65574C51.4936 6.75897 51.6888 6.80805 51.8818 6.80805C52.2757 6.80805 52.6588 6.60338 52.8695 6.23766C53.1835 5.6927 52.9965 4.99639 52.4514 4.68235C51.2781 4.00614 50.0535 3.39269 48.8114 2.8588C48.2332 2.6097 47.5637 2.87739 47.3154 3.4553C47.0672 4.03308 47.3343 4.70272 47.9121 4.95128Z" fill="white"/>
<path d="M1.78938 41.7622C1.17743 41.9074 0.798993 42.5211 0.944052 43.133C1.25632 44.4496 1.64966 45.7613 2.11354 47.0317C2.28212 47.4937 2.71866 47.7802 3.18336 47.7802C3.31297 47.7802 3.44504 47.7579 3.57383 47.7108C4.16459 47.4952 4.46879 46.8414 4.25305 46.2505C3.81979 45.0635 3.45202 43.838 3.16026 42.6076C3.01506 41.9955 2.40256 41.6171 1.78938 41.7622Z" fill="white"/>
<path d="M25.2373 3.73411C25.3459 3.73411 25.4563 3.71852 25.5657 3.68557C26.7753 3.32204 28.0202 3.02604 29.2659 2.80593C29.8853 2.69641 30.2988 2.10565 30.1893 1.48632C30.0798 0.866847 29.4895 0.453684 28.8697 0.562922C27.5368 0.798351 26.2046 1.11513 24.9099 1.50423C24.3075 1.68538 23.9661 2.32044 24.1471 2.92268C24.2953 3.41596 24.7477 3.73411 25.2373 3.73411Z" fill="white"/>
<path d="M68.8605 33.8169C68.2315 33.8169 67.7218 34.3267 67.7218 34.9556V35.0277C67.7218 36.2962 67.6484 37.5743 67.5037 38.8268C67.4315 39.4516 67.8794 40.0167 68.5041 40.0889C68.5487 40.0941 68.5926 40.0965 68.6364 40.0965C69.2068 40.0965 69.6992 39.6687 69.7663 39.0885C69.9211 37.7496 69.9995 36.3832 69.9995 35.0278V34.9558C69.9993 34.3267 69.4894 33.8169 68.8605 33.8169Z" fill="white"/>
<path d="M40.6998 67.2554C39.4575 67.4735 38.186 67.6213 36.9207 67.6944C36.2928 67.7308 35.8132 68.2692 35.8496 68.897C35.8845 69.5025 36.3866 69.97 36.9855 69.97C37.0075 69.97 37.03 69.9694 37.0523 69.9681C38.405 69.8899 39.7649 69.732 41.0937 69.4984C41.7132 69.3896 42.1273 68.7994 42.0183 68.1798C41.9098 67.5606 41.319 67.1465 40.6998 67.2554Z" fill="white"/>
<path d="M33.1142 67.6964C31.8487 67.6245 30.5772 67.4781 29.335 67.2614C28.7143 67.1529 28.1254 67.5679 28.0171 68.1873C27.909 68.807 28.3237 69.3969 28.9431 69.505C30.272 69.7369 31.6318 69.8936 32.9851 69.9704C33.007 69.9717 33.0288 69.9722 33.0507 69.9722C33.6501 69.9722 34.1524 69.5038 34.1867 68.898C34.2223 68.2699 33.7421 67.7321 33.1142 67.6964Z" fill="white"/>
<path d="M25.6322 66.3899C24.4209 66.0287 23.2176 65.5914 22.0558 65.0904C21.4784 64.8415 20.8081 65.1076 20.5593 65.6852C20.31 66.2627 20.5765 66.9328 21.154 67.1817C22.3975 67.7178 23.6851 68.1855 24.9814 68.5722C25.09 68.6046 25.1995 68.62 25.3074 68.62C25.7979 68.62 26.2509 68.3004 26.3984 67.8064C26.5779 67.2039 26.235 66.5697 25.6322 66.3899Z" fill="white"/>
<path d="M1.23023 32.2651C1.27439 32.2701 1.318 32.2726 1.36134 32.2726C1.93228 32.2726 2.42487 31.8441 2.49118 31.2633C2.63515 30.0059 2.85444 28.7451 3.14319 27.5159C3.28688 26.9035 2.90722 26.2906 2.29485 26.1468C1.68263 26.0025 1.06945 26.3826 0.925618 26.9951C0.616908 28.3102 0.382162 29.6591 0.228217 31.0041C0.156576 31.629 0.605286 32.1936 1.23023 32.2651Z" fill="white"/>
<path d="M47.9738 65.0775C46.8128 65.5794 45.6105 66.0176 44.4003 66.38C43.7978 66.5605 43.4557 67.1951 43.636 67.7976C43.7837 68.2913 44.2365 68.6101 44.7266 68.6101C44.8348 68.6101 44.9447 68.5946 45.0538 68.562C46.3491 68.1742 47.6356 67.7052 48.8779 67.168C49.4552 66.9184 49.7209 66.2481 49.4712 65.6708C49.2215 65.0935 48.5515 64.8278 47.9738 65.0775Z" fill="white"/>
<path d="M1.50035 40.1243C2.12515 40.0515 2.57236 39.486 2.49949 38.8612C2.35347 37.609 2.27882 36.3308 2.27759 35.0622C2.27705 34.4336 1.76722 33.9246 1.13887 33.9246C1.13859 33.9246 1.13818 33.9246 1.13763 33.9246C0.50873 33.9252 -0.000546434 34.4355 4.40023e-07 35.0645C0.00136762 36.4201 0.0812112 37.7863 0.237344 39.1251C0.305019 39.705 0.797069 40.132 1.36691 40.132C1.41094 40.132 1.45564 40.1295 1.50035 40.1243Z" fill="white"/>
<path d="M3.06291 23.8958H16.2204C17.5551 23.8958 18.6409 22.81 18.6409 21.4753V18.7313C18.6409 17.82 18.493 16.9242 18.2009 16.0688C18.0176 15.5318 17.4328 15.2451 16.8968 15.4283C16.3596 15.6116 16.0729 16.1954 16.2562 16.7326C16.4751 17.3738 16.586 18.0464 16.586 18.7314V21.4755C16.586 21.6771 16.4221 21.8411 16.2204 21.8411H3.06277C2.86111 21.8411 2.69718 21.6771 2.69718 21.4755V18.7314C2.69718 16.9642 3.45611 15.2899 4.75712 14.1232C5.85784 15.585 7.60715 16.5321 9.57385 16.5321C12.8969 16.5321 15.6005 13.8285 15.6005 10.5054C15.6005 7.18237 12.8971 4.47876 9.57412 4.47876C6.25118 4.47876 3.54744 7.18237 3.54744 10.5054C3.54744 11.1099 3.63781 11.6933 3.80419 12.2441C1.8174 13.8016 0.642578 16.194 0.642578 18.7315V21.4756C0.642441 22.81 1.72826 23.8958 3.06291 23.8958ZM9.57412 6.5335C11.7642 6.5335 13.5461 8.31522 13.5461 10.5054C13.5461 12.6957 11.7644 14.4774 9.57412 14.4774C7.38417 14.4774 5.60231 12.6957 5.60231 10.5054C5.60231 8.31522 7.38389 6.5335 9.57412 6.5335Z" fill="#150C19"/>
<path d="M51.3584 18.7313V21.4753C51.3584 22.81 52.4441 23.8958 53.7789 23.8958H66.9364C68.271 23.8958 69.3568 22.81 69.3568 21.4753V18.7313C69.3568 17.82 69.2089 16.9242 68.9169 16.0688C68.7335 15.5318 68.1491 15.2451 67.6127 15.4283C67.0756 15.6116 66.7889 16.1954 66.9722 16.7326C67.1909 17.3738 67.302 18.0464 67.302 18.7314V21.4755C67.302 21.6771 67.138 21.841 66.9364 21.841H53.7789C53.5772 21.841 53.4133 21.6771 53.4133 21.4755V18.7314C53.4133 16.9642 54.1722 15.2899 55.4732 14.1232C56.5739 15.585 58.3232 16.5321 60.2899 16.5321C63.613 16.5321 66.3166 13.8285 66.3166 10.5054C66.3166 7.18237 63.613 4.47876 60.2899 4.47876C56.9669 4.47876 54.2634 7.18237 54.2634 10.5054C54.2634 11.1099 54.3538 11.6933 54.5202 12.2441C52.5331 13.8015 51.3584 16.1938 51.3584 18.7313ZM60.2898 6.53337C62.4799 6.53337 64.2618 8.31508 64.2618 10.5053C64.2618 12.6955 62.48 14.4773 60.2898 14.4773C58.0998 14.4773 56.318 12.6955 56.318 10.5053C56.318 8.31508 58.0998 6.53337 60.2898 6.53337Z" fill="#150C19"/>
<path d="M67.6126 57.1094C67.0754 57.2928 66.7887 57.8765 66.9721 58.4137C67.1908 59.0549 67.3018 59.7274 67.3018 60.4125V63.1566C67.3018 63.3583 67.1379 63.5222 66.9362 63.5222H53.7787C53.5771 63.5222 53.4131 63.3583 53.4131 63.1566V60.4125C53.4131 58.6453 54.1721 56.9711 55.4731 55.8043C56.5738 57.2661 58.3231 58.2133 60.2898 58.2133C63.6129 58.2133 66.3165 55.5097 66.3165 52.1866C66.3165 48.8635 63.6129 46.1599 60.2898 46.1599C56.9667 46.1599 54.2633 48.8635 54.2633 52.1866C54.2633 52.791 54.3536 53.3744 54.52 53.9252C52.5332 55.4827 51.3584 57.8752 51.3584 60.4127V63.1567C51.3584 64.4914 52.4441 65.5772 53.7789 65.5772H66.9364C68.271 65.5772 69.3568 64.4915 69.3568 63.1567V60.4127C69.3568 59.5014 69.2089 58.6057 68.9169 57.7502C68.7334 57.2128 68.1488 56.9259 67.6126 57.1094ZM60.2898 48.2145C62.4799 48.2145 64.2618 49.9962 64.2618 52.1865C64.2618 54.3767 62.48 56.1584 60.2898 56.1584C58.0998 56.1584 56.318 54.3767 56.318 52.1865C56.318 49.9962 58.0998 48.2145 60.2898 48.2145Z" fill="#150C19"/>
<path d="M16.8968 57.1094C16.3596 57.2928 16.0729 57.8765 16.2562 58.4137C16.4751 59.0549 16.586 59.7274 16.586 60.4125V63.1566C16.586 63.3583 16.4221 63.5222 16.2204 63.5222H3.06291C2.86125 63.5222 2.69732 63.3583 2.69732 63.1566V60.4125C2.69732 58.6453 3.45624 56.9711 4.75726 55.8043C5.85798 57.2661 7.60729 58.2133 9.57399 58.2133C12.8971 58.2133 15.6007 55.5097 15.6007 52.1866C15.6007 48.8635 12.8971 46.1599 9.57399 46.1599C6.25091 46.1599 3.54744 48.8635 3.54744 52.1866C3.54744 52.791 3.63781 53.3744 3.80419 53.9252C1.8174 55.4827 0.642578 57.8752 0.642578 60.4127V63.1567C0.642578 64.4914 1.7284 65.5772 3.06304 65.5772H16.2206C17.5552 65.5772 18.641 64.4915 18.641 63.1567V60.4127C18.641 59.5014 18.4931 58.6057 18.2011 57.7502C18.0174 57.2128 17.4327 56.9259 16.8968 57.1094ZM9.57412 48.2145C11.7642 48.2145 13.5461 49.9962 13.5461 52.1865C13.5461 54.3767 11.7644 56.1584 9.57412 56.1584C7.38417 56.1584 5.60231 54.3767 5.60231 52.1865C5.60231 49.9962 7.38389 48.2145 9.57412 48.2145Z" fill="#150C19"/>
<path d="M44.7172 23.6748H33.7844C29.0602 23.6748 25.1298 27.1305 24.3835 31.6466H24.0105C19.7491 31.6466 16.2822 35.2118 16.2822 39.594C16.2822 42.6813 17.9916 45.4461 20.675 46.7633C21.9939 49.9581 26.109 51.4904 26.2913 51.5567C26.4061 51.5987 26.525 51.619 26.6429 51.619C26.9238 51.619 27.1988 51.5034 27.3969 51.2896C27.678 50.9861 27.7496 50.5435 27.5786 50.1669C27.165 49.2561 26.9325 48.3764 26.8832 47.5413H32.626C35.8023 47.5413 38.5362 45.5599 39.7229 42.7362H41.3587C41.3299 43.8613 41.0246 45.0505 40.4465 46.2837C40.2709 46.6585 40.3373 47.1025 40.6151 47.4093C40.8135 47.6283 41.0918 47.7471 41.3769 47.7471C41.4915 47.7471 41.6069 47.728 41.7187 47.6884C41.9469 47.6079 47.1333 45.7376 48.725 41.8529C52.0954 40.2939 54.248 36.9487 54.248 33.2056C54.248 27.9503 49.9725 23.6748 44.7172 23.6748ZM47.5264 40.1337C47.2481 40.2467 47.0305 40.4718 46.9389 40.7578C46.3623 42.5578 44.6073 43.8978 43.1593 44.734C43.4081 43.6629 43.4765 42.6152 43.3623 41.6006C43.3035 41.0785 42.866 40.6813 42.3406 40.6813H33.7845C32.8007 40.6813 31.8614 40.4891 31.0005 40.1417C30.6193 39.9879 30.1839 40.0717 29.8932 40.3624L29.8786 40.377C29.3619 40.8937 29.5426 41.7683 30.2199 42.0429C31.3214 42.4895 32.5245 42.7361 33.7844 42.7361H37.4216C36.4155 44.3872 34.6423 45.4863 32.6257 45.4863H25.8831C25.3622 45.4863 24.9201 45.8764 24.8627 46.3941C24.7849 47.096 24.8087 47.8163 24.9332 48.5509C23.9359 47.8924 22.8712 46.941 22.4799 45.7227C22.3851 45.4271 22.1756 45.1791 21.8893 45.0592C19.7311 44.1545 18.3367 42.0092 18.3367 39.594C18.3367 36.3449 20.8817 33.7015 24.0102 33.7015H24.2667C24.3221 34.7754 24.5566 35.8026 24.9403 36.7542C25.2143 37.4339 26.0896 37.6178 26.6078 37.0996C26.6128 37.0945 26.6179 37.0895 26.6228 37.0846C26.9122 36.7951 26.9977 36.3615 26.845 35.9817C26.4802 35.0745 26.2874 34.0804 26.3103 33.0391C26.4001 28.9584 29.8085 25.7298 33.8901 25.7298H44.5914C48.7169 25.7298 52.206 29.1046 52.193 33.2299C52.1834 36.2778 50.3537 38.9859 47.5264 40.1337Z" fill="#150C19"/>
</g>
<defs>
<clipPath id="clip0_251_817">
<rect width="70" height="70" fill="white"/>
</clipPath>
</defs>
</svg>
