<svg width="70" height="70" viewBox="0 0 70 70" fill="none" xmlns="http://www.w3.org/2000/svg">
<path d="M61.3375 17.5H25.0688C23.909 17.5 22.9688 18.4402 22.9688 19.6V50.4C22.9688 51.5598 23.909 52.5 25.0688 52.5H61.3375C62.4973 52.5 63.4375 51.5598 63.4375 50.4V19.6C63.4375 18.4402 62.4973 17.5 61.3375 17.5Z" fill="#379FFF"/>
<path d="M53.5938 29.5312H64.5312C64.8213 29.5312 65.0995 29.6465 65.3046 29.8516C65.5098 30.0567 65.625 30.3349 65.625 30.625V39.375C65.625 39.6651 65.5098 39.9433 65.3046 40.1484C65.0995 40.3535 64.8213 40.4688 64.5312 40.4688H53.5938C52.1433 40.4688 50.7523 39.8926 49.7268 38.867C48.7012 37.8414 48.125 36.4504 48.125 35C48.125 33.5496 48.7012 32.1586 49.7268 31.133C50.7523 30.1074 52.1433 29.5312 53.5938 29.5312Z" fill="white"/>
<path d="M22.9688 66.7188C24.7809 66.7188 26.25 65.2497 26.25 63.4375C26.25 61.6253 24.7809 60.1562 22.9688 60.1562C21.1566 60.1562 19.6875 61.6253 19.6875 63.4375C19.6875 65.2497 21.1566 66.7188 22.9688 66.7188Z" fill="white"/>
<path d="M38.2812 63.4375C40.0934 63.4375 41.5625 61.9684 41.5625 60.1562C41.5625 58.3441 40.0934 56.875 38.2812 56.875C36.4691 56.875 35 58.3441 35 60.1562C35 61.9684 36.4691 63.4375 38.2812 63.4375Z" fill="white"/>
<path d="M7.65625 63.4375C9.46843 63.4375 10.9375 61.9684 10.9375 60.1562C10.9375 58.3441 9.46843 56.875 7.65625 56.875C5.84407 56.875 4.375 58.3441 4.375 60.1562C4.375 61.9684 5.84407 63.4375 7.65625 63.4375Z" fill="white"/>
<path d="M22.9688 9.84375C24.7809 9.84375 26.25 8.37468 26.25 6.5625C26.25 4.75032 24.7809 3.28125 22.9688 3.28125C21.1566 3.28125 19.6875 4.75032 19.6875 6.5625C19.6875 8.37468 21.1566 9.84375 22.9688 9.84375Z" fill="white"/>
<path d="M38.2812 13.125C40.0934 13.125 41.5625 11.6559 41.5625 9.84375C41.5625 8.03157 40.0934 6.5625 38.2812 6.5625C36.4691 6.5625 35 8.03157 35 9.84375C35 11.6559 36.4691 13.125 38.2812 13.125Z" fill="white"/>
<path d="M7.65625 13.125C9.46843 13.125 10.9375 11.6559 10.9375 9.84375C10.9375 8.03157 9.46843 6.5625 7.65625 6.5625C5.84407 6.5625 4.375 8.03157 4.375 9.84375C4.375 11.6559 5.84407 13.125 7.65625 13.125Z" fill="white"/>
<path d="M6.5625 27.4205V42.5799C6.56329 43.3471 6.76581 44.1006 7.14976 44.7648C7.53371 45.429 8.08557 45.9806 8.75 46.3642L20.8359 53.058C21.4771 53.4064 22.1953 53.589 22.925 53.589C23.6547 53.589 24.3729 53.4064 25.0141 53.058L37.1875 46.3642C37.8519 45.9806 38.4038 45.429 38.7877 44.7648C39.1717 44.1006 39.3742 43.3471 39.375 42.5799V27.4205C39.3742 26.6533 39.1717 25.8998 38.7877 25.2355C38.4038 24.5713 37.8519 24.0197 37.1875 23.6361L25.1562 16.9424C24.5151 16.5939 23.7969 16.4114 23.0672 16.4114C22.3374 16.4114 21.6193 16.5939 20.9781 16.9424L8.75 23.6361C8.08557 24.0197 7.53371 24.5713 7.14976 25.2355C6.76581 25.8998 6.56329 26.6533 6.5625 27.4205Z" fill="#FF41B3"/>
<path d="M65.625 28.4375H64.5312V19.6C64.5312 19.1806 64.4486 18.7653 64.2881 18.3778C64.1276 17.9903 63.8924 17.6382 63.5958 17.3417C63.2993 17.0451 62.9472 16.8099 62.5597 16.6494C62.1722 16.4889 61.7569 16.4062 61.3375 16.4062H37.1875C36.8974 16.4062 36.6192 16.5215 36.4141 16.7266C36.209 16.9317 36.0938 17.2099 36.0938 17.5C36.0938 17.7901 36.209 18.0683 36.4141 18.2734C36.6192 18.4785 36.8974 18.5938 37.1875 18.5938H61.3375C61.6044 18.5938 61.8603 18.6998 62.049 18.8885C62.2377 19.0772 62.3438 19.3331 62.3438 19.6V28.4375H53.5938C51.8533 28.4375 50.1841 29.1289 48.9534 30.3596C47.7227 31.5903 47.0312 33.2595 47.0312 35C47.0312 36.7405 47.7227 38.4097 48.9534 39.6404C50.1841 40.8711 51.8533 41.5625 53.5938 41.5625H62.3438V50.4C62.3438 50.6669 62.2377 50.9228 62.049 51.1115C61.8603 51.3002 61.6044 51.4062 61.3375 51.4062H37.1875C36.8974 51.4062 36.6192 51.5215 36.4141 51.7266C36.209 51.9317 36.0938 52.2099 36.0938 52.5C36.0938 52.7901 36.209 53.0683 36.4141 53.2734C36.6192 53.4785 36.8974 53.5938 37.1875 53.5938H61.3375C62.1845 53.5938 62.9969 53.2573 63.5958 52.6583C64.1948 52.0594 64.5312 51.247 64.5312 50.4V41.5625H65.625C65.9151 41.5625 66.1933 41.4473 66.3984 41.2421C66.6035 41.037 66.7188 40.7588 66.7188 40.4688V29.5312C66.7188 29.2412 66.6035 28.963 66.3984 28.7579C66.1933 28.5527 65.9151 28.4375 65.625 28.4375ZM64.5312 39.375H53.5938C52.4334 39.375 51.3206 38.9141 50.5002 38.0936C49.6797 37.2731 49.2188 36.1603 49.2188 35C49.2188 33.8397 49.6797 32.7269 50.5002 31.9064C51.3206 31.0859 52.4334 30.625 53.5938 30.625H64.5312V39.375Z" fill="#150C19"/>
<path d="M10.9375 29.5313C10.6474 29.5313 10.3692 29.6465 10.1641 29.8516C9.95898 30.0567 9.84375 30.3349 9.84375 30.625V39.375C9.84375 39.6651 9.95898 39.9433 10.1641 40.1484C10.3692 40.3535 10.6474 40.4688 10.9375 40.4688C11.2276 40.4688 11.5058 40.3535 11.7109 40.1484C11.916 39.9433 12.0312 39.6651 12.0312 39.375V33.9063L16.5703 39.9547C16.6688 40.1123 16.8059 40.2422 16.9686 40.3322C17.1312 40.4221 17.3141 40.4691 17.5 40.4688C17.7901 40.4688 18.0683 40.3535 18.2734 40.1484C18.4785 39.9433 18.5938 39.6651 18.5938 39.375V30.625C18.5938 30.3349 18.4785 30.0567 18.2734 29.8516C18.0683 29.6465 17.7901 29.5313 17.5 29.5313C17.2099 29.5313 16.9317 29.6465 16.7266 29.8516C16.5215 30.0567 16.4062 30.3349 16.4062 30.625V36.0938L11.8672 30.0453C11.7687 29.8877 11.6316 29.7578 11.4689 29.6678C11.3063 29.5779 11.1234 29.5309 10.9375 29.5313Z" fill="#150C19"/>
<path d="M26.25 31.7188C26.5401 31.7188 26.8183 31.6035 27.0234 31.3984C27.2285 31.1933 27.3438 30.9151 27.3438 30.625C27.3438 30.3349 27.2285 30.0567 27.0234 29.8516C26.8183 29.6465 26.5401 29.5312 26.25 29.5312H21.875C21.5849 29.5312 21.3067 29.6465 21.1016 29.8516C20.8965 30.0567 20.7812 30.3349 20.7812 30.625V39.375C20.7812 39.6651 20.8965 39.9433 21.1016 40.1484C21.3067 40.3535 21.5849 40.4688 21.875 40.4688C22.1651 40.4688 22.4433 40.3535 22.6484 40.1484C22.8535 39.9433 22.9688 39.6651 22.9688 39.375V36.0938H26.25C26.5401 36.0938 26.8183 35.9785 27.0234 35.7734C27.2285 35.5683 27.3438 35.2901 27.3438 35C27.3438 34.7099 27.2285 34.4317 27.0234 34.2266C26.8183 34.0215 26.5401 33.9062 26.25 33.9062H22.9688V31.7188H26.25Z" fill="#150C19"/>
<path d="M32.8125 40.4688C33.1026 40.4688 33.3808 40.3535 33.5859 40.1484C33.791 39.9433 33.9062 39.6651 33.9062 39.375V31.7188H35C35.2901 31.7188 35.5683 31.6035 35.7734 31.3984C35.9785 31.1933 36.0938 30.9151 36.0938 30.625C36.0938 30.3349 35.9785 30.0567 35.7734 29.8516C35.5683 29.6465 35.2901 29.5312 35 29.5312H30.625C30.3349 29.5312 30.0567 29.6465 29.8516 29.8516C29.6465 30.0567 29.5312 30.3349 29.5312 30.625C29.5312 30.9151 29.6465 31.1933 29.8516 31.3984C30.0567 31.6035 30.3349 31.7188 30.625 31.7188H31.7188V39.375C31.7188 39.6651 31.834 39.9433 32.0391 40.1484C32.2442 40.3535 32.5224 40.4688 32.8125 40.4688Z" fill="#150C19"/>
<path d="M38.2813 55.781C37.5099 55.7924 36.7553 56.0074 36.0938 56.4045L33.9063 54.217V49.4045L37.6798 47.3154C38.5213 46.8424 39.2226 46.1551 39.7125 45.3233C40.2023 44.4915 40.4633 43.5448 40.4688 42.5795V27.4201C40.4641 26.4518 40.2024 25.5022 39.7105 24.6682C39.2185 23.8342 38.514 23.1457 37.6688 22.6732L33.9063 20.5951V15.7607L36.0938 13.5732C37.026 14.1167 38.1244 14.3012 39.1829 14.0922C40.2414 13.8831 41.1873 13.295 41.8429 12.438C42.4985 11.5811 42.8189 10.5143 42.7437 9.43798C42.6686 8.36162 42.2032 7.34969 41.4349 6.59214C40.6666 5.83458 39.6482 5.38349 38.5709 5.32354C37.4936 5.26358 36.4315 5.59889 35.5839 6.26652C34.7363 6.93415 34.1615 7.88819 33.9674 8.94956C33.7733 10.0109 33.9733 11.1067 34.5298 12.031L32.036 14.5139C31.932 14.6186 31.8502 14.7434 31.7957 14.8806C31.7412 15.0179 31.7151 15.1647 31.7188 15.3123V19.381L25.5829 15.9795C25.106 15.7229 24.5936 15.5386 24.0626 15.4326V10.7842C25.0936 10.518 25.9921 9.88486 26.5898 9.00354C27.1874 8.12222 27.4431 7.05318 27.3089 5.99683C27.1748 4.94047 26.6599 3.96931 25.8609 3.26538C25.062 2.56146 24.0337 2.1731 22.9688 2.1731C21.904 2.1731 20.8757 2.56146 20.0767 3.26538C19.2777 3.96931 18.7629 4.94047 18.6287 5.99683C18.4945 7.05318 18.7502 8.12222 19.3478 9.00354C19.9455 9.88486 20.844 10.518 21.8751 10.7842V15.4326C21.3423 15.5381 20.8293 15.7263 20.3548 15.9904L14.2188 19.381V15.3123C14.2196 15.1684 14.1921 15.0257 14.1376 14.8924C14.0832 14.7591 14.003 14.6379 13.9016 14.5357L11.4079 12.031C11.9558 11.1024 12.1462 10.0057 11.9434 8.94667C11.7405 7.88763 11.1583 6.93896 10.306 6.2785C9.45365 5.61804 8.38966 5.29116 7.31352 5.35913C6.23738 5.42711 5.22298 5.88528 4.46052 6.64775C3.69805 7.41021 3.23988 8.42461 3.1719 9.50075C3.10392 10.5769 3.43081 11.6409 4.09127 12.4932C4.75172 13.3456 5.7004 13.9277 6.75944 14.1306C7.81847 14.3335 8.91513 14.1431 9.84381 13.5951L12.0313 15.7826V20.617L8.25788 22.6842C7.41636 23.1572 6.71504 23.8445 6.22517 24.6763C5.7353 25.5081 5.47435 26.4548 5.46881 27.4201V34.9998C5.46881 35.2899 5.58405 35.5681 5.78917 35.7732C5.99428 35.9783 6.27248 36.0935 6.56256 36.0935C6.85264 36.0935 7.13084 35.9783 7.33596 35.7732C7.54108 35.5681 7.65631 35.2899 7.65631 34.9998V27.4201C7.66007 26.8435 7.81572 26.278 8.10759 25.7807C8.39945 25.2834 8.81722 24.8718 9.31881 24.5873L21.4048 17.9045C21.885 17.6441 22.4226 17.5077 22.9688 17.5077C23.5151 17.5077 24.0527 17.6441 24.5329 17.9045L36.5641 24.5873C37.0759 24.8647 37.5047 25.2733 37.8064 25.7711C38.1082 26.2689 38.2721 26.838 38.2813 27.4201V42.5795C38.2776 43.1561 38.1219 43.7216 37.83 44.2189C37.5382 44.7162 37.1204 45.1278 36.6188 45.4123L24.5876 52.0951C24.1074 52.3555 23.5698 52.4919 23.0235 52.4919C22.4772 52.4919 21.9396 52.3555 21.4594 52.0951L9.42819 45.4123C8.9062 45.1421 8.46636 44.7366 8.15467 44.2383C7.84297 43.74 7.67086 43.1671 7.65631 42.5795V39.3748C7.65631 39.0847 7.54108 38.8065 7.33596 38.6014C7.13084 38.3963 6.85264 38.281 6.56256 38.281C6.27248 38.281 5.99428 38.3963 5.78917 38.6014C5.58405 38.8065 5.46881 39.0847 5.46881 39.3748V42.5795C5.47351 43.5478 5.7352 44.4974 6.22715 45.3314C6.71909 46.1654 7.42365 46.8538 8.26881 47.3264L12.0313 49.4045V54.2388L9.84381 56.4263C8.91168 55.8829 7.81325 55.6984 6.75472 55.9074C5.69618 56.1164 4.75033 56.7046 4.09471 57.5616C3.43908 58.4185 3.11876 59.4853 3.19388 60.5616C3.269 61.638 3.73439 62.6499 4.5027 63.4075C5.271 64.165 6.28938 64.6161 7.36669 64.676C8.44399 64.736 9.50614 64.4007 10.3538 63.7331C11.2014 63.0654 11.7762 62.1114 11.9703 61.05C12.1643 59.9886 11.9644 58.8929 11.4079 57.9685L13.9016 55.4857C14.0057 55.3809 14.0874 55.2562 14.1419 55.119C14.1964 54.9817 14.2226 54.8349 14.2188 54.6873V50.6185L20.3548 54.0201C20.8317 54.2767 21.344 54.461 21.8751 54.567V59.2154C20.844 59.4816 19.9455 60.1147 19.3478 60.996C18.7502 61.8774 18.4945 62.9464 18.6287 64.0028C18.7629 65.0591 19.2777 66.0303 20.0767 66.7342C20.8757 67.4381 21.904 67.8265 22.9688 67.8265C24.0337 67.8265 25.062 67.4381 25.8609 66.7342C26.6599 66.0303 27.1748 65.0591 27.3089 64.0028C27.4431 62.9464 27.1874 61.8774 26.5898 60.996C25.9921 60.1147 25.0936 59.4816 24.0626 59.2154V54.567C24.5953 54.4615 25.1083 54.2733 25.5829 54.0092L31.7188 50.6185V54.6873C31.718 54.8312 31.7456 54.9739 31.8 55.1072C31.8544 55.2404 31.9346 55.3617 32.036 55.4639L34.5298 57.9685C34.0474 58.804 33.8548 59.7754 33.9818 60.7317C34.1087 61.688 34.5482 62.5755 35.2318 63.2562C35.9154 63.9368 36.8048 64.3725 37.7617 64.4953C38.7185 64.6181 39.6891 64.4212 40.5225 63.9353C41.3558 63.4494 42.0052 62.7017 42.3696 61.8084C42.734 60.9152 42.7929 59.9266 42.5373 58.9964C42.2816 58.0662 41.7257 57.2466 40.956 56.6651C40.1863 56.0836 39.246 55.7728 38.2813 55.781ZM38.2813 7.65605C38.8615 7.65605 39.4179 7.88651 39.8281 8.29675C40.2383 8.70698 40.4688 9.26338 40.4688 9.84355C40.4688 10.4237 40.2383 10.9801 39.8281 11.3903C39.4179 11.8006 38.8615 12.031 38.2813 12.031C37.7021 12.0286 37.1475 11.7965 36.7391 11.3857C36.3283 10.9774 36.0963 10.4228 36.0938 9.84355C36.0938 9.26338 36.3243 8.70698 36.7345 8.29675C37.1448 7.88651 37.7012 7.65605 38.2813 7.65605ZM9.1985 11.3857C8.79015 11.7965 8.23554 12.0286 7.65631 12.031C7.22367 12.031 6.80074 11.9028 6.441 11.6624C6.08127 11.422 5.80089 11.0804 5.63533 10.6807C5.46976 10.281 5.42644 9.84112 5.51085 9.41679C5.59525 8.99245 5.80359 8.60268 6.10952 8.29675C6.41545 7.99082 6.80522 7.78248 7.22955 7.69808C7.65389 7.61367 8.09372 7.65699 8.49343 7.82256C8.89315 7.98813 9.23479 8.2685 9.47515 8.62824C9.71552 8.98797 9.84381 9.4109 9.84381 9.84355C9.84137 10.4228 9.6093 10.9774 9.1985 11.3857ZM20.7813 6.5623C20.7813 6.12965 20.9096 5.70672 21.15 5.34699C21.3903 4.98725 21.732 4.70688 22.1317 4.54131C22.5314 4.37574 22.9712 4.33242 23.3956 4.41683C23.8199 4.50123 24.2097 4.70957 24.5156 5.0155C24.8215 5.32143 25.0299 5.7112 25.1143 6.13554C25.1987 6.55987 25.1554 6.9997 24.9898 7.39942C24.8242 7.79913 24.5439 8.14077 24.1841 8.38113C23.8244 8.6215 23.4015 8.7498 22.9688 8.7498C22.3887 8.7498 21.8323 8.51933 21.422 8.10909C21.0118 7.69886 20.7813 7.14246 20.7813 6.5623ZM7.65631 62.3435C7.07615 62.3435 6.51975 62.1131 6.10952 61.7028C5.69928 61.2926 5.46881 60.7362 5.46881 60.156C5.46881 59.5759 5.69928 59.0195 6.10952 58.6092C6.51975 58.199 7.07615 57.9685 7.65631 57.9685C8.23554 57.971 8.79015 58.2031 9.1985 58.6138C9.6093 59.0222 9.84137 59.5768 9.84381 60.156C9.84381 60.7362 9.61335 61.2926 9.20311 61.7028C8.79287 62.1131 8.23647 62.3435 7.65631 62.3435ZM25.1563 63.4373C25.1563 63.8699 25.028 64.2929 24.7877 64.6526C24.5473 65.0123 24.2056 65.2927 23.8059 65.4583C23.4062 65.6238 22.9664 65.6672 22.5421 65.5828C22.1177 65.4984 21.7279 65.29 21.422 64.9841C21.1161 64.6782 20.9078 64.2884 20.8233 63.8641C20.7389 63.4397 20.7823 62.9999 20.9478 62.6002C21.1134 62.2005 21.3938 61.8588 21.7535 61.6185C22.1132 61.3781 22.5362 61.2498 22.9688 61.2498C23.549 61.2498 24.1054 61.4803 24.5156 61.8905C24.9258 62.3007 25.1563 62.8571 25.1563 63.4373ZM38.2813 62.3435C37.7012 62.3435 37.1448 62.1131 36.7345 61.7028C36.3243 61.2926 36.0938 60.7362 36.0938 60.156C36.0963 59.5768 36.3283 59.0222 36.7391 58.6138C37.1475 58.2031 37.7021 57.971 38.2813 57.9685C38.8615 57.9685 39.4179 58.199 39.8281 58.6092C40.2383 59.0195 40.4688 59.5759 40.4688 60.156C40.4688 60.7362 40.2383 61.2926 39.8281 61.7028C39.4179 62.1131 38.8615 62.3435 38.2813 62.3435Z" fill="#150C19"/>
<path d="M53.5938 37.1875C54.8019 37.1875 55.7812 36.2081 55.7812 35C55.7812 33.7919 54.8019 32.8125 53.5938 32.8125C52.3856 32.8125 51.4062 33.7919 51.4062 35C51.4062 36.2081 52.3856 37.1875 53.5938 37.1875Z" fill="#150C19"/>
</svg>
