<svg width="70" height="70" viewBox="0 0 70 70" fill="none" xmlns="http://www.w3.org/2000/svg">
<g clip-path="url(#clip0_251_867)">
<path fill-rule="evenodd" clip-rule="evenodd" d="M43.4998 52.9268C44.1027 51.4297 44.5334 49.8451 44.7645 48.1977H48.2945V42.4924H44.7645C44.5334 40.8436 44.1027 39.259 43.4998 37.7633L46.5541 35.9996L43.7021 31.0586L40.6437 32.825C39.6334 31.5371 38.4699 30.375 37.182 29.3647L38.9484 26.3063L34.0061 23.4543L32.2424 26.5072C30.7467 25.9057 29.1621 25.475 27.5133 25.2439V21.7139H21.8066V25.2439C20.1578 25.475 18.5732 25.9057 17.0775 26.5072L15.3139 23.4543L10.3715 26.3063L12.1379 29.3647C10.85 30.375 9.68652 31.5371 8.67617 32.825L5.61777 31.0586L2.76582 35.9996L5.82012 37.7633C5.21719 39.259 4.78652 40.8436 4.55547 42.4924H1.02539V48.1977H4.55547C4.78652 49.8451 5.21719 51.4297 5.82012 52.9268L2.76582 54.6891L5.61777 59.6301L8.67617 57.865C9.68652 59.1529 10.85 60.315 12.1379 61.3254L10.3715 64.3824L15.3139 67.2357L17.0775 64.1814C18.5732 64.7844 20.1578 65.2137 21.8066 65.4461V68.9748H27.5133V65.4461C29.1621 65.2137 30.7467 64.7844 32.2424 64.1814L34.0061 67.2357L38.9484 64.3824L37.182 61.3254C38.4699 60.315 39.6334 59.1529 40.6437 57.865L43.7021 59.6301L46.5541 54.6891L43.4998 52.9268ZM24.66 54.6275C29.7869 54.6275 33.9432 50.4713 33.9432 45.3443C33.9432 40.2174 29.7869 36.0611 24.66 36.0611C24.0283 36.0611 23.4104 36.124 22.8143 36.2457C18.5719 37.1002 15.3768 40.849 15.3768 45.3443C15.3768 49.8396 18.5719 53.5885 22.8143 54.443C23.4104 54.5646 24.0283 54.6275 24.66 54.6275Z" fill="#FF41B3"/>
<path fill-rule="evenodd" clip-rule="evenodd" d="M24.842 59.4822C32.3752 59.4822 38.4838 53.375 38.4838 45.8404C38.4838 38.3072 32.3752 32.2 24.842 32.2C24.2869 32.2 23.7387 32.2328 23.2014 32.2984C16.442 33.1078 11.2002 38.8623 11.2002 45.8404C11.2002 52.8199 16.442 58.5744 23.2014 59.3837C23.7387 59.4494 24.2869 59.4822 24.842 59.4822ZM24.6834 54.9664C29.8104 54.9664 33.9666 50.8101 33.9666 45.6832C33.9666 40.5562 29.8104 36.3999 24.6834 36.3999C24.0518 36.3999 23.4338 36.4628 22.8377 36.5845C18.5953 37.439 15.4002 41.1878 15.4002 45.6832C15.4002 50.1785 18.5953 53.9273 22.8377 54.7818C23.4338 54.9035 24.0518 54.9664 24.6834 54.9664Z" fill="white"/>
<path d="M60.923 35.0261C60.2436 35.0261 59.5914 35.1341 58.9789 35.3351C56.4742 36.1513 54.6641 38.507 54.6641 41.2851C54.6641 44.0632 56.4742 46.4189 58.9789 47.2351C59.5914 47.4361 60.2436 47.5441 60.923 47.5441C64.3807 47.5441 67.1834 44.7414 67.1834 41.2851C67.1834 37.8289 64.3807 35.0261 60.923 35.0261ZM60.923 43.6572C59.6133 43.6572 58.551 42.5949 58.551 41.2851C58.551 39.9753 59.6133 38.913 60.923 38.913C62.2342 38.913 63.2965 39.9753 63.2965 41.2851C63.2965 42.5949 62.2342 43.6572 60.923 43.6572Z" fill="white"/>
<path fill-rule="evenodd" clip-rule="evenodd" d="M65.3055 21.0752C65.7361 20.2986 66.0834 19.4701 66.335 18.6006H68.975V11.9H66.335C66.0834 11.0305 65.7361 10.2006 65.3055 9.42402L67.173 7.56055L62.4248 2.82324L60.5572 4.68672C59.7779 4.25742 58.948 3.91152 58.0758 3.65996V1.02539H51.3602V3.65996C50.4879 3.91152 49.6566 4.25742 48.8787 4.68672L47.0111 2.82324L42.2615 7.56055L44.1305 9.42402C43.6998 10.2006 43.3525 11.0305 43.101 11.9H40.4609V18.6006H43.101C43.3525 19.4701 43.6998 20.2986 44.1305 21.0752L42.2615 22.9387L47.0111 27.6773L48.8787 25.8139C49.6566 26.2432 50.4879 26.5891 51.3602 26.8406V29.4738H58.0758V26.8406C58.948 26.5891 59.7779 26.2432 60.5572 25.8139L62.4248 27.6773L67.173 22.9387L65.3055 21.0752ZM54.718 22.4111C58.673 22.4111 61.8791 19.205 61.8791 15.2501C61.8791 11.2952 58.673 8.08903 54.718 8.08931C54.2308 8.08931 53.754 8.1377 53.2942 8.23163C50.0217 8.89075 47.557 11.7826 47.557 15.2502C47.557 18.7178 50.0217 21.6097 53.2942 22.2688C53.754 22.3626 54.2308 22.4111 54.718 22.4111Z" fill="#379FFF"/>
<path d="M48.2945 41.466H45.637C45.4337 40.3607 45.1428 39.2728 44.7679 38.215L47.0672 36.8876C47.3029 36.7517 47.4746 36.5276 47.545 36.265C47.6156 36.0022 47.5785 35.7223 47.4426 35.4869L44.5895 30.5458C44.3062 30.0554 43.6792 29.8875 43.1889 30.1705L40.8846 31.5006C40.1555 30.6472 39.3596 29.8514 38.5061 29.1224L39.8363 26.8189C39.9723 26.5834 40.0091 26.3034 39.9388 26.0407C39.8684 25.7781 39.6966 25.554 39.461 25.4181L34.519 22.5654C34.0286 22.2819 33.4016 22.4501 33.1183 22.9405L31.7907 25.2398C30.7323 24.8647 29.644 24.5739 28.5387 24.3706V21.7139C28.5387 21.1474 28.0796 20.6885 27.5133 20.6885H21.8068C21.2405 20.6885 20.7814 21.1474 20.7814 21.7139V24.3706C19.6762 24.5739 18.5877 24.8647 17.5294 25.2398L16.2017 22.9405C15.9184 22.4502 15.2912 22.2825 14.801 22.5654L9.85906 25.4181C9.6235 25.554 9.45164 25.7781 9.38123 26.0407C9.31082 26.3035 9.34773 26.5835 9.48377 26.8189L10.8139 29.1224C9.96037 29.8514 9.16453 30.6471 8.43541 31.5006L6.13115 30.1705C5.64074 29.8871 5.01361 30.0552 4.73047 30.5456L1.87715 35.4868C1.74111 35.7225 1.70434 36.0023 1.77461 36.265C1.84502 36.5276 2.01688 36.7517 2.25244 36.8876L4.55205 38.215C4.17689 39.2731 3.88596 40.3609 3.68279 41.466H1.02539C0.459102 41.466 0 41.925 0 42.4914V48.1968C0 48.7633 0.459102 49.2222 1.02539 49.2222H3.68279C3.88609 50.3273 4.17703 51.4152 4.55205 52.4733L2.25244 53.8007C2.01688 53.9366 1.84502 54.1606 1.77461 54.4233C1.7042 54.6861 1.74111 54.9659 1.87715 55.2015L4.73047 60.1426C5.01375 60.6329 5.64061 60.8007 6.13115 60.5178L8.43541 59.1877C9.16453 60.0411 9.96051 60.8369 10.8139 61.5659L9.48377 63.8693C9.34773 64.105 9.31096 64.3849 9.38123 64.6475C9.45164 64.9102 9.6235 65.1342 9.85906 65.2701L14.801 68.1229C15.2912 68.4058 15.9183 68.2382 16.2017 67.7476L17.5294 65.4486C18.5876 65.8236 19.6759 66.1144 20.7814 66.3177V68.9744C20.7814 69.5408 21.2405 69.9998 21.8068 69.9998H27.5133C28.0796 69.9998 28.5387 69.5408 28.5387 68.9744V66.3177C29.6442 66.1144 30.7325 65.8236 31.7907 65.4486L33.1183 67.7476C33.4016 68.2382 34.0289 68.4059 34.519 68.1229L39.461 65.2701C39.6966 65.1342 39.8684 64.9102 39.9388 64.6475C40.0092 64.3847 39.9723 64.1049 39.8363 63.8693L38.5061 61.5659C39.3597 60.8369 40.1555 60.0412 40.8846 59.1877L43.1889 60.5178C43.679 60.8009 44.3062 60.6329 44.5895 60.1425L47.4426 55.2013C47.5785 54.9658 47.6156 54.6859 47.545 54.4233C47.4746 54.1606 47.3029 53.9366 47.0672 53.8007L44.7679 52.4733C45.1428 51.4155 45.4337 50.3276 45.637 49.2222H48.2945C48.861 49.2222 49.3199 48.7633 49.3199 48.1968V42.4914C49.3199 41.925 48.861 41.466 48.2945 41.466ZM47.2691 47.1714H44.765C44.2539 47.1714 43.8208 47.5478 43.7496 48.054C43.5329 49.5936 43.1292 51.1038 42.5495 52.5424C42.3585 53.0162 42.5455 53.5584 42.9879 53.8137L45.154 55.0641L43.3262 58.2293L41.1559 56.9765C40.7137 56.721 40.1516 56.8301 39.8367 57.2315C38.8778 58.4535 37.7718 59.559 36.5497 60.5177C36.148 60.8328 36.0393 61.3953 36.2946 61.8373L37.5473 64.0067L34.3815 65.8342L33.1308 63.6682C32.8753 63.2261 32.3332 63.0392 31.8597 63.2299C30.4205 63.8096 28.91 64.2133 27.3704 64.4299C26.8643 64.5011 26.4878 64.9341 26.4878 65.4453V67.949H22.832V65.4454C22.832 64.9344 22.4556 64.5012 21.9494 64.43C20.4096 64.2134 18.8992 63.8097 17.4601 63.23C16.9862 63.0392 16.4444 63.2263 16.189 63.6683L14.9383 65.8344L11.7724 64.0069L13.0253 61.8374C13.2806 61.3954 13.1718 60.8328 12.7702 60.5178C11.5482 59.5591 10.4423 58.4535 9.48322 57.2316C9.16822 56.8302 8.6059 56.7215 8.16402 56.9766L5.99375 58.2294L4.16596 55.0642L6.33199 53.8138C6.77441 53.5585 6.96145 53.0164 6.77045 52.5426C6.19063 51.1033 5.78676 49.5931 5.57033 48.0541C5.4991 47.548 5.06611 47.1716 4.55492 47.1716H2.05078V43.517H4.55492C5.06598 43.517 5.4991 43.1406 5.57033 42.6344C5.78676 41.0954 6.19063 39.5852 6.77045 38.146C6.96131 37.6721 6.77441 37.13 6.33199 36.8747L4.16596 35.6243L5.99375 32.4591L8.16402 33.7119C8.6059 33.9671 9.16822 33.8583 9.48322 33.4569C10.4422 32.2349 11.5481 31.1294 12.7702 30.1707C13.1719 29.8556 13.2806 29.2931 13.0253 28.8511L11.7724 26.6817L14.9383 24.8542L16.189 27.0201C16.4444 27.4625 16.9863 27.6494 17.4599 27.4585C18.8997 26.8787 20.4102 26.475 21.9494 26.2585C22.4555 26.1873 22.832 25.7543 22.832 25.2431V22.7395H26.4878V25.2431C26.4878 25.7542 26.8641 26.1873 27.3704 26.2585C28.9096 26.475 30.4201 26.8787 31.8598 27.4585C32.3334 27.6495 32.8755 27.4625 33.1309 27.0201L34.3816 24.8542L37.5475 26.6817L36.2947 28.8511C36.0395 29.2931 36.1482 29.8557 36.5498 30.1707C37.7718 31.1294 38.8778 32.2351 39.8368 33.4569C40.1518 33.8585 40.7142 33.9673 41.156 33.7119L43.3263 32.4591L45.154 35.6243L42.9879 36.8747C42.5455 37.13 42.3585 37.6722 42.5495 38.146C43.1292 39.5846 43.5329 41.0948 43.7496 42.6344C43.8208 43.1406 44.2538 43.517 44.765 43.517H47.2691V47.1714Z" fill="#150C19"/>
<path d="M68.9744 10.8742H67.0805C66.929 10.4482 66.7549 10.0294 66.5597 9.62104L67.8972 8.28652C68.09 8.09416 68.1984 7.83303 68.1984 7.56055C68.1984 7.28807 68.09 7.02707 67.8972 6.83457L63.1483 2.09658C62.748 1.69736 62.1002 1.69736 61.6999 2.09658L60.3601 3.43328C59.9496 3.23777 59.5289 3.06373 59.1006 2.91211V1.02539C59.1006 0.458965 58.6416 0 58.0752 0H51.3592C50.7928 0 50.3338 0.458965 50.3338 1.02539V2.91238C49.9055 3.06387 49.4848 3.23805 49.0743 3.43355L47.7345 2.09686C47.3345 1.69777 46.6864 1.69764 46.2861 2.09686L41.537 6.83484C41.3443 7.02721 41.2358 7.28834 41.2358 7.56082C41.2358 7.8333 41.3441 8.0943 41.537 8.2868L42.8747 9.62131C42.6793 10.0298 42.5054 10.4485 42.3539 10.8745H40.46C39.8937 10.8745 39.4346 11.3334 39.4346 11.8999V18.6003C39.4346 19.1667 39.8937 19.6257 40.46 19.6257H42.3539C42.5053 20.0517 42.6793 20.4704 42.8747 20.8789L41.537 22.2134C41.3443 22.4057 41.2358 22.6669 41.2358 22.9394C41.2358 23.2118 41.3441 23.4728 41.537 23.6653L46.2861 28.4033C46.6864 28.8025 47.3342 28.8025 47.7345 28.4033L49.0743 27.0666C49.4848 27.2621 49.9055 27.4362 50.3338 27.5878V29.4748C50.3338 30.0412 50.7928 30.5002 51.3592 30.5002H58.0752C58.6416 30.5002 59.1006 30.0412 59.1006 29.4748V27.5878C59.5289 27.4363 59.9496 27.2621 60.3601 27.0666L61.6999 28.4033C62.1001 28.8025 62.7481 28.8027 63.1483 28.4033L67.8972 23.6653C68.09 23.473 68.1984 23.2118 68.1984 22.9394C68.1984 22.6669 68.09 22.4059 67.8972 22.2134L66.5597 20.8789C66.7549 20.4705 66.9289 20.0517 67.0805 19.6257H68.9744C69.5409 19.6257 69.9998 19.1667 69.9998 18.6003V11.8996C69.9998 11.3333 69.5407 10.8742 68.9744 10.8742ZM67.949 17.5746H66.334C65.8773 17.5746 65.4759 17.8765 65.3489 18.3151C65.1218 19.1002 64.8053 19.8618 64.4083 20.5788C64.1865 20.9792 64.2572 21.4781 64.5813 21.8014L65.7214 22.9389L62.4242 26.2285L61.2807 25.0876C60.9579 24.7654 60.4608 24.6952 60.0615 24.9156C59.3429 25.3117 58.5792 25.6277 57.7915 25.8545C57.3524 25.9809 57.05 26.3828 57.05 26.8398V28.4488H52.3847V26.8398C52.3847 26.3828 52.0823 25.9809 51.6431 25.8545C50.8555 25.6277 50.0918 25.3117 49.3732 24.9156C48.9737 24.6951 48.4767 24.7652 48.1539 25.0876L47.0104 26.2285L43.7133 22.9389L44.8534 21.8014C45.1774 21.4781 45.2481 20.9791 45.0264 20.5788C44.6291 19.8614 44.3126 19.0999 44.0857 18.3153C43.9589 17.8767 43.5573 17.5746 43.1007 17.5746H41.4856V12.925H43.1007C43.5573 12.925 43.9589 12.6231 44.0857 12.1844C44.3126 11.3999 44.6291 10.6382 45.0264 9.92086C45.2481 9.52041 45.1774 9.02152 44.8534 8.69818L43.7133 7.56068L47.0104 4.27109L48.1539 5.41201C48.4769 5.73426 48.9741 5.80453 49.3732 5.584C50.0918 5.18793 50.8555 4.87197 51.6431 4.64516C52.0823 4.51869 52.3847 4.11687 52.3847 3.65982V2.05078H57.05V3.65982C57.05 4.11687 57.3524 4.51869 57.7915 4.64516C58.5792 4.87197 59.3429 5.18793 60.0615 5.584C60.4611 5.80439 60.9579 5.73439 61.2807 5.41201L62.4242 4.27109L65.7214 7.56068L64.5813 8.69818C64.2572 9.02152 64.1865 9.52055 64.4083 9.92086C64.8053 10.6377 65.1218 11.3993 65.3489 12.1845C65.4759 12.6231 65.8773 12.925 66.334 12.925H67.949V17.5746Z" fill="#150C19"/>
<path d="M54.7177 7.07983C53.3709 7.07983 52.0351 7.41356 50.8547 8.04507C50.3554 8.31208 50.167 8.93347 50.4342 9.43276C50.7013 9.93206 51.3223 10.1207 51.8219 9.85331C52.7059 9.38054 53.7072 9.13061 54.7177 9.13061C58.1009 9.13061 60.8534 11.8757 60.8534 15.2497C60.8534 18.624 58.1009 21.369 54.7177 21.369C51.3345 21.369 48.582 18.624 48.582 15.2497C48.582 14.2904 48.798 13.3725 49.2241 12.521C49.4775 12.0146 49.2725 11.3985 48.7659 11.1452C48.2592 10.892 47.6435 11.0968 47.3901 11.6033C46.8201 12.7422 46.5312 13.9691 46.5312 15.2499C46.5312 19.7548 50.2037 23.4199 54.7177 23.4199C59.2317 23.4199 62.9041 19.7548 62.9041 15.2499C62.9041 10.745 59.2317 7.07983 54.7177 7.07983Z" fill="#150C19"/>
<path d="M24.6603 30.6777C16.5718 30.6777 9.99121 37.2572 9.99121 45.3444C9.99121 47.3239 10.3792 49.2447 11.1444 51.0536C11.365 51.5751 11.9667 51.819 12.4882 51.5984C13.0098 51.3779 13.2537 50.7761 13.0331 50.2546C12.3753 48.6999 12.0419 47.0479 12.0419 45.3444C12.0419 38.388 17.7024 32.7285 24.6602 32.7285C31.6179 32.7285 37.2785 38.3881 37.2785 45.3444C37.2785 52.3006 31.6179 57.9601 24.6602 57.9601C20.9308 57.9601 17.412 56.323 15.0065 53.4687C14.6416 53.0358 13.9947 52.9805 13.5616 53.3456C13.1286 53.7105 13.0734 54.3573 13.4384 54.7903C16.2346 58.108 20.3248 60.0109 24.6603 60.0109C32.749 60.0109 39.3294 53.4314 39.3294 45.3444C39.3294 37.2572 32.7489 30.6777 24.6603 30.6777Z" fill="#150C19"/>
<path d="M24.6597 37.0885C25.5014 37.0885 26.3313 37.2144 27.1262 37.4627C27.6669 37.6317 28.2418 37.3302 28.4106 36.7896C28.5795 36.2491 28.2781 35.674 27.7377 35.505C26.7446 35.1948 25.7091 35.0376 24.6599 35.0376C18.9758 35.0376 14.3516 39.6612 14.3516 45.3444C14.3516 51.0274 18.9759 55.6511 24.6599 55.6511C30.344 55.6511 34.9683 51.0275 34.9683 45.3444C34.9683 42.6672 33.9465 40.1304 32.0912 38.2011C31.6987 37.7933 31.0494 37.7803 30.6415 38.173C30.2332 38.5655 30.2206 39.2146 30.6132 39.6227C32.0993 41.1679 32.9177 43.1998 32.9177 45.3444C32.9177 49.8967 29.2133 53.6003 24.66 53.6003C20.1067 53.6003 16.4025 49.8967 16.4025 45.3444C16.4025 40.7921 20.1065 37.0885 24.6597 37.0885Z" fill="#150C19"/>
<path d="M68.9744 40.2596H68.1363C67.9603 39.0161 67.4691 37.8726 66.7464 36.9127L67.3413 36.318C67.7419 35.9175 67.7419 35.2683 67.3414 34.8679C66.941 34.4676 66.2917 34.4674 65.8914 34.8678L65.2964 35.4628C64.3363 34.7401 63.1925 34.2489 61.9487 34.0729V33.2351C61.9487 32.6687 61.4897 32.2097 60.9233 32.2097C60.3569 32.2097 59.8979 32.6687 59.8979 33.2351V34.0729C58.6542 34.2489 57.5102 34.7401 56.5502 35.4628L55.9551 34.8678C55.5544 34.4672 54.9051 34.4674 54.505 34.8679C54.1046 35.2685 54.1046 35.9177 54.5052 36.318L55.1002 36.9128C54.3775 37.8727 53.8862 39.0163 53.7103 40.2596H52.8721C52.3056 40.2596 51.8467 40.7185 51.8467 41.285C51.8467 41.8514 52.3056 42.3104 52.8721 42.3104H53.7103C53.8862 43.5538 54.3775 44.6972 55.1002 45.6571L54.5053 46.2518C54.1049 46.6521 54.1047 47.3014 54.5052 47.7019C54.7053 47.9022 54.9678 48.0022 55.2303 48.0022C55.4927 48.0022 55.7551 47.9022 55.9553 47.702L56.5505 47.107C57.5105 47.8297 58.6543 48.3209 59.8982 48.4969V49.3347C59.8982 49.9011 60.3571 50.3601 60.9236 50.3601C61.49 50.3601 61.949 49.9011 61.949 49.3347V48.4969C63.1927 48.3209 64.3365 47.8298 65.2965 47.1071L65.8915 47.7021C66.0918 47.9023 66.3542 48.0024 66.6165 48.0024C66.879 48.0024 67.1415 47.9023 67.3417 47.702C67.7421 47.3014 67.7421 46.6523 67.3415 46.252L66.7467 45.6572C67.4694 44.6973 67.9606 43.554 68.1366 42.3105H68.9747C69.5411 42.3105 70 41.8515 70 41.2851C70 40.7187 69.5407 40.2596 68.9744 40.2596ZM60.9232 46.518C58.037 46.518 55.6889 44.1704 55.6889 41.285C55.6889 38.3994 58.037 36.0518 60.9232 36.0518C63.8093 36.0518 66.1574 38.3994 66.1574 41.285C66.1574 44.1704 63.8093 46.518 60.9232 46.518Z" fill="#150C19"/>
<path d="M60.9235 37.8867C59.0498 37.8867 57.5254 39.4109 57.5254 41.2846C57.5254 43.1581 59.0498 44.6823 60.9235 44.6823C62.7973 44.6823 64.3217 43.1582 64.3217 41.2846C64.3218 39.411 62.7973 37.8867 60.9235 37.8867ZM60.9235 42.6314C60.1805 42.6314 59.5762 42.0272 59.5762 41.2845C59.5762 40.5417 60.1806 39.9374 60.9235 39.9374C61.6665 39.9374 62.2709 40.5417 62.2709 41.2845C62.2709 42.0272 61.6666 42.6314 60.9235 42.6314Z" fill="#150C19"/>
</g>
<defs>
<clipPath id="clip0_251_867">
<rect width="70" height="70" fill="white"/>
</clipPath>
</defs>
</svg>
