<svg width="70" height="70" viewBox="0 0 70 70" fill="none" xmlns="http://www.w3.org/2000/svg">
<g clip-path="url(#clip0_251_849)">
<path d="M28.2891 27.6902L44.2896 12.6979L51.7124 20.62L35.7119 35.6122L28.2891 27.6902Z" fill="#379FFF"/>
<path d="M68.3208 54.4022C66.9829 55.656 64.8819 55.5875 63.6284 54.2496L38.9766 27.9395L43.8219 23.3997L68.4737 49.7098C69.7272 51.0477 69.6587 53.1487 68.3208 54.4022V54.4022Z" fill="#379FFF"/>
<path d="M58.8221 37.6203L52.1923 43.8324C51.6923 44.3007 50.9076 44.2751 50.4391 43.7755L48.8156 42.0428C48.3474 41.5429 48.3729 40.7582 48.8726 40.2897L55.5024 34.0776C56.0023 33.6093 56.787 33.6349 57.2556 34.1345L58.8791 35.8672C59.3476 36.3671 59.3221 37.1518 58.8221 37.6203Z" fill="#FF41B3"/>
<path d="M68.1942 47.623L61.5643 53.8351C61.0644 54.3033 60.2797 54.2778 59.8112 53.7782L58.1877 52.0455C57.7194 51.5456 57.745 50.7609 58.2446 50.2924L64.8745 44.0803C65.3744 43.612 66.1591 43.6376 66.6276 44.1372L68.2511 45.8699C68.7197 46.3698 68.6941 47.1548 68.1942 47.623Z" fill="#FF41B3"/>
<path d="M39.218 36.4202L33.5195 41.7593C32.8687 42.3692 31.8464 42.3361 31.2365 41.685L21.9249 31.7469C21.315 31.096 21.3481 30.0737 21.9992 29.4638L27.6977 24.1248L39.218 36.4202Z" fill="#FF41B3"/>
<path d="M57.9671 18.8527L52.2687 24.1917L40.748 11.8963L46.4465 6.55719C47.0974 5.94728 48.1197 5.98038 48.7296 6.63153L58.0412 16.5696C58.6514 17.2205 58.618 18.2428 57.9671 18.8527Z" fill="#FF41B3"/>
<path d="M29.7285 48.7237C29.7285 55.7046 24.4935 61.4656 17.7343 62.2915C17.1836 62.3608 16.6242 62.3945 16.0558 62.3945C8.50432 62.3945 2.38281 56.2732 2.38281 48.7237C2.38281 41.1723 8.50404 35.0508 16.0558 35.0508C16.6242 35.0508 17.1838 35.0844 17.7343 35.1537C24.4935 35.9797 29.7285 41.7407 29.7285 48.7237V48.7237Z" fill="white"/>
<path d="M69.2914 48.9422L68.8877 48.5113C70.0037 47.4657 69.9025 45.9909 69.0701 45.1027L67.4468 43.37C66.6203 42.4886 65.1531 42.2818 64.0334 43.3305L59.515 38.5082C60.6172 37.4752 60.5367 35.9959 59.6973 35.0995L58.0738 33.3672C57.2521 32.4893 55.7882 32.2705 54.6607 33.3276L47.7012 25.8999L50.1666 23.5899L51.4498 24.9595C51.8729 25.4112 52.583 25.4353 53.036 25.0111L58.7348 19.6718C59.8362 18.6396 59.8926 16.9039 58.8604 15.8025L49.5488 5.86443C48.517 4.76329 46.7813 4.70634 45.6793 5.73846L39.9808 11.0775C39.5289 11.5012 39.5056 12.2115 39.9292 12.6637L41.2116 14.0325L29.7987 24.7264L28.5163 23.3576C28.0927 22.9056 27.3829 22.8821 26.9301 23.306L21.2317 28.645C20.1277 29.6797 20.0713 31.4104 21.106 32.5143L26.3519 38.1132C23.6865 35.5254 20.0548 33.9274 16.0553 33.9274C7.89762 33.9274 1.26074 40.5643 1.26074 48.722C1.26074 56.8797 7.89762 63.5166 16.0553 63.5166C24.213 63.5166 30.8499 56.8797 30.8499 48.722C30.8499 45.0701 29.5173 41.7258 27.3164 39.1425L30.4173 42.4521C31.4503 43.5538 33.186 43.6096 34.2869 42.5778L39.9853 37.2387C40.437 36.8151 40.4606 36.1047 40.0369 35.6525L38.7537 34.2832L41.218 31.9743L48.1775 39.402C47.0666 40.4431 47.1606 41.9177 47.9963 42.8095L49.6195 44.5422C50.4547 45.4332 51.9248 45.62 53.0315 44.5826L57.55 49.4051C56.4424 50.4429 56.5353 51.9225 57.3688 52.8126L58.9923 54.545C59.8286 55.4383 61.2947 55.6251 62.404 54.5857L62.8077 55.0166C64.4848 56.8065 67.2967 56.8994 69.0889 55.2211C70.8804 53.5424 70.9699 50.7338 69.2914 48.9422ZM16.0556 61.2731C9.13538 61.2731 3.50539 55.6431 3.50539 48.7229C3.50539 41.8026 9.13538 36.1726 16.0556 36.1726C22.9758 36.1726 28.6058 41.8026 28.6058 48.7229C28.6058 55.6431 22.9758 61.2731 16.0556 61.2731ZM47.2139 7.37657C47.4125 7.19029 47.725 7.20095 47.911 7.39901L57.2226 17.3371C57.4083 17.5354 57.3982 17.8482 57.1999 18.0339L52.3201 22.606C51.2495 21.4633 43.5042 13.1968 42.3343 11.9483L47.2139 7.37657ZM32.7523 40.9408C32.5542 41.1268 32.2414 41.1167 32.0554 40.9181L22.7441 30.98C22.5575 30.7811 22.5676 30.4694 22.7668 30.2831L27.6461 25.7114L37.6318 36.369L32.7523 40.9408ZM31.3336 26.3645L42.7467 15.6706L48.6323 21.9521C47.2902 23.2097 38.5602 31.3896 37.2194 32.6459L31.3336 26.3645ZM42.8559 30.4402L46.0639 27.4345L53.0234 34.8622L49.8157 37.868L42.8559 30.4402ZM51.2574 43.0079L49.6341 41.2752C49.5901 41.2284 49.5909 41.1537 49.6397 41.1083L56.2699 34.8959C56.3167 34.8518 56.3914 34.8532 56.4365 34.9015L58.0601 36.6339C58.1044 36.6815 58.1021 36.7565 58.0544 36.8011C55.8586 38.8583 53.6387 40.9385 51.4243 43.0132C51.3763 43.0578 51.3017 43.0553 51.2574 43.0079ZM54.6694 43.0485L57.8774 40.0428L62.3959 44.8651L59.1881 47.8708L54.6694 43.0485ZM60.6301 53.011L59.0066 51.2786C58.9623 51.2309 58.9645 51.156 59.0122 51.1114L65.6424 44.899C65.6906 44.8541 65.765 44.8575 65.8093 44.9046L67.4325 46.6373C67.4769 46.6847 67.4754 46.7588 67.4269 46.8042L60.7968 53.0163C60.7516 53.0587 60.6773 53.0612 60.6301 53.011ZM67.5543 53.5836C66.6694 54.4123 65.2746 54.3672 64.4458 53.4823L64.0421 53.0514L67.2502 50.0456L67.6539 50.4765C68.4854 51.3645 68.4391 52.7546 67.5543 53.5836Z" fill="#150C19"/>
<path d="M14.5962 44.6759H18.4868C18.7567 44.6759 18.9764 44.8955 18.9764 45.1654C18.9764 45.7851 19.4788 46.2876 20.0986 46.2876C20.7183 46.2876 21.2207 45.7851 21.2207 45.1654C21.2207 43.6578 19.9942 42.4315 18.4868 42.4315H17.1772V40.8024C17.1772 40.1826 16.6748 39.6802 16.0551 39.6802C15.4353 39.6802 14.9329 40.1826 14.9329 40.8024V42.4315H14.5962C12.5524 42.4315 10.8896 44.0943 10.8896 46.1381C10.8896 48.1818 12.5524 49.8446 14.5962 49.8446H17.5142C18.3205 49.8446 18.9764 50.5005 18.9764 51.3068C18.9764 52.1131 18.3205 52.769 17.5142 52.769H13.6238C13.354 52.769 13.1343 52.5494 13.1343 52.2795C13.1343 51.6598 12.6318 51.1573 12.0121 51.1573C11.3924 51.1573 10.8899 51.6598 10.8899 52.2795C10.8899 53.7871 12.1165 55.0134 13.6238 55.0134H14.9332V56.6425C14.9332 57.2623 15.4356 57.7647 16.0553 57.7647C16.6751 57.7647 17.1775 57.2623 17.1775 56.6425V55.0134H17.5145C19.5582 55.0134 21.221 53.3506 21.221 51.3068C21.221 49.2631 19.5582 47.6003 17.5145 47.6003H14.5962C13.7899 47.6003 13.134 46.9443 13.134 46.1381C13.134 45.3318 13.7899 44.6759 14.5962 44.6759V44.6759Z" fill="#150C19"/>
</g>
<defs>
<clipPath id="clip0_251_849">
<rect width="70" height="70" fill="white"/>
</clipPath>
</defs>
</svg>
