<svg width="70" height="70" viewBox="0 0 70 70" fill="none" xmlns="http://www.w3.org/2000/svg">
<g clip-path="url(#clip0_251_906)">
<path d="M67.3016 16.3693C64.2058 15.242 61.7495 12.7857 60.6223 9.69001C60.2545 8.68007 59.283 8.01685 58.2083 8.01685H32.049C30.9742 8.01685 30.0026 8.67993 29.635 9.69001C28.5078 12.7857 26.0515 15.242 22.9557 16.3693C21.9458 16.737 21.2827 17.7086 21.2827 18.7833V26.8901C21.2827 39.7978 27.9236 51.7976 38.8605 58.6528L43.3647 61.4761C43.9041 61.8142 44.5164 61.9833 45.1287 61.9833C45.7409 61.9833 46.3532 61.8142 46.8926 61.4761L51.3968 58.6528C62.3338 51.7976 68.9746 39.7978 68.9746 26.8901V18.7833C68.9746 17.7084 68.3115 16.7369 67.3016 16.3693Z" fill="#379FFF"/>
<path d="M45.1285 57.5883C44.8156 57.5883 44.5101 57.5004 44.2449 57.3343L41.0935 55.3591C36.2581 52.3282 32.2415 48.0869 29.4783 43.0936C26.7151 38.1004 25.2544 32.4446 25.2544 26.7378V20.7059C25.2544 20.0941 25.588 19.5343 26.1252 19.2446C28.8625 17.7683 31.0897 15.5411 32.5657 12.804C32.8554 12.2667 33.4154 11.9331 34.0272 11.9331H56.2295C56.8413 11.9331 57.4013 12.2667 57.6911 12.804C59.1672 15.5413 61.3944 17.7685 64.1316 19.2444C64.6688 19.5341 65.0025 20.0941 65.0025 20.7058V26.7378C65.0025 32.4447 63.5419 38.1004 60.7786 43.0936C58.0156 48.0867 53.9991 52.328 49.1634 55.3591L46.012 57.3343C45.7469 57.5004 45.4413 57.5883 45.1285 57.5883Z" fill="#FF41B3"/>
<path d="M44.3927 40.7666C43.3273 40.7666 42.2786 40.3407 41.5158 39.5982L36.0201 34.2485C34.9928 33.2486 34.9706 31.5991 35.9706 30.5718C36.4643 30.0645 37.1261 29.7852 37.8341 29.7852C38.5152 29.7852 39.1593 30.047 39.6475 30.5223L44.305 35.056L53.076 24.4332C53.5717 23.8329 54.3029 23.4888 55.0821 23.4888C55.6841 23.4888 56.2715 23.7001 56.7365 24.0839C57.842 24.9968 57.9988 26.6389 57.086 27.7444L47.5702 39.2689C46.8393 40.1544 45.7622 40.698 44.6153 40.7605C44.5416 40.7646 44.4671 40.7666 44.3927 40.7666Z" fill="white"/>
<path d="M33.9364 39.0722C33.9364 37.9123 32.9962 36.9721 31.8362 36.9721H23.9763C23.1867 36.9721 22.5071 36.426 22.3231 35.6581C22.1725 35.0298 22.0381 34.3966 21.9193 33.759C20.2417 33.8448 18.6262 34.5357 17.5844 35.8586L16.4622 37.2836C15.7615 38.1734 14.6916 38.6928 13.559 38.6928H10.2114V51.4722H15.0684C15.5368 51.4722 16.0009 51.5612 16.4361 51.7346L19.438 52.9306C22.3173 53.9121 24.1014 53.7744 29.7932 53.7734C30.9234 53.7733 31.8961 52.9046 31.9498 51.7758C32.0071 50.5693 31.046 49.5732 29.8522 49.5732H30.7474C31.9073 49.5732 32.8475 48.6328 32.8475 47.473C32.8475 46.3131 31.9073 45.3729 30.7474 45.3729H31.7346C32.8946 45.3729 33.8348 44.4325 33.8348 43.2727C33.8348 42.1467 32.948 41.2304 31.835 41.1777C31.835 41.1767 31.835 41.1779 31.835 41.1771C32.9955 41.1777 33.9364 40.237 33.9364 39.0767C33.9364 39.076 33.9362 39.0755 33.9362 39.0748C33.9362 39.0738 33.9364 39.073 33.9364 39.0722Z" fill="white"/>
<path d="M29.7932 51.6721C24.1014 51.6731 22.3173 51.8107 19.438 50.8292L16.4361 49.6332C16.0009 49.4599 15.5368 49.3708 15.0685 49.3708H10.2114V51.4722H15.0684C15.5368 51.4722 16.0009 51.5612 16.436 51.7346L19.4379 52.9306C22.3172 53.9121 24.1012 53.7744 29.7931 53.7735C30.9232 53.7733 31.896 52.9046 31.9497 51.7757C31.9698 51.3516 31.8622 50.955 31.6648 50.617C31.287 51.2518 30.5786 51.672 29.7932 51.6721Z" fill="#FFDBCC"/>
<path d="M2.11832 38.5118C1.51525 38.512 1.02539 39.0009 1.02539 39.604V50.5609C1.02539 51.164 1.51525 51.6529 2.11832 51.653C6.73531 51.6548 9.65672 51.66 11.5083 51.6662V38.4988C9.65658 38.5048 6.73518 38.51 2.11832 38.5118Z" fill="#FF41B3"/>
<path d="M13.9879 37.563H10.4069C9.95861 37.563 9.59521 37.9264 9.59521 38.3747V51.7902C9.59521 52.2385 9.95861 52.6019 10.4069 52.6019H13.9879C14.4362 52.6019 14.7996 52.2385 14.7996 51.7902V38.3747C14.7996 37.9264 14.4362 37.563 13.9879 37.563Z" fill="#FF41B3"/>
<path d="M33.6534 38.0229C33.29 38.651 32.6125 39.0745 31.8347 39.074V39.0746H25.7131C24.5537 39.0746 23.6138 40.0145 23.6138 41.1739V41.1773H31.8347C31.8347 41.1764 31.8347 41.1776 31.8347 41.1768C32.9951 41.1773 33.936 40.2367 33.936 39.0764C33.936 39.0757 33.9359 39.0751 33.9359 39.0746C33.9359 39.0738 33.936 39.0729 33.936 39.0721C33.9362 38.6896 33.8323 38.3319 33.6534 38.0229Z" fill="#FFDBCC"/>
<path d="M31.7342 43.2733H25.7131C24.5537 43.2733 23.6138 44.2133 23.6138 45.3726H30.7469H31.6746C32.7813 45.3726 33.7419 44.541 33.8279 43.4375C33.8626 42.9922 33.7554 42.5762 33.5506 42.2239C33.1872 42.8506 32.5107 43.2733 31.7342 43.2733Z" fill="#FFDBCC"/>
<path d="M30.7469 47.4727H25.7131C24.5537 47.4727 23.6138 48.4127 23.6138 49.5721V49.5729H30.6886C31.7935 49.5729 32.7527 48.7434 32.8404 47.6419C32.8759 47.1952 32.7691 46.7768 32.5639 46.4226C32.2005 47.0499 31.5238 47.4727 30.7469 47.4727Z" fill="#FFDBCC"/>
<path d="M67.6524 15.4055C64.8262 14.3766 62.6149 12.1654 61.5858 9.33905C61.0745 7.93481 59.7172 6.99146 58.2081 6.99146H32.0491C30.5401 6.99146 29.1828 7.93481 28.6714 9.33905C27.6423 12.1654 25.4312 14.3766 22.6048 15.4057C21.2006 15.917 20.2572 17.2743 20.2572 18.7832V26.8901C20.2572 28.8882 20.4165 30.8971 20.7279 32.8774C19.1248 33.201 17.7234 34.0247 16.7788 35.224C15.6903 36.5804 15.6254 36.7525 15.2618 37.0537C14.9312 36.7348 14.4825 36.5375 13.988 36.5375H10.4072C9.71893 36.5375 9.11873 36.9184 8.80414 37.4799C7.10938 37.4829 4.92898 37.4852 2.11791 37.4863C0.950059 37.4867 0 38.4368 0 39.6039V50.5609C0 51.728 0.950059 52.6779 2.11791 52.6785C4.92898 52.6796 7.10938 52.6818 8.80414 52.6849C9.11887 53.2464 9.71906 53.6273 10.4072 53.6273H13.988C14.7242 53.6273 15.3587 53.1911 15.6517 52.5645C16.0532 52.6547 15.9651 52.6647 19.0585 53.8831C19.0746 53.8895 19.0907 53.8954 19.1071 53.901C21.4996 54.7166 23.1805 54.8058 26.5419 54.8058C27.4553 54.8058 28.5692 54.799 29.7933 54.7987C30.4808 54.7986 31.1162 54.5833 31.6374 54.2201C33.6596 56.2276 35.9017 58.0085 38.316 59.5217L42.8203 62.3451C44.2319 63.2295 46.0247 63.2303 47.4374 62.3449L51.9416 59.5217C57.4547 56.0662 62.0339 51.2306 65.1845 45.5378C68.3348 39.8448 70 33.3965 70 26.8901V18.7832C70 17.2743 69.0566 15.9171 67.6524 15.4055ZM13.7744 51.5765H10.6209V45.5602C10.6209 44.9938 10.1618 44.5348 9.59547 44.5348C9.02918 44.5348 8.57008 44.9938 8.57008 45.5602V50.6336C6.90963 50.6307 4.80102 50.6285 2.11873 50.6276C2.08127 50.6276 2.05078 50.5975 2.05078 50.5607V39.6038C2.05078 39.5669 2.08127 39.5369 2.11873 39.5369C4.80088 39.536 6.90963 39.5338 8.57008 39.5311V40.7666C8.57008 41.333 9.02918 41.792 9.59547 41.792C10.1618 41.792 10.6209 41.333 10.6209 40.7666V38.5883H13.7744V51.5765ZM29.7929 52.7478C24.165 52.7489 22.4822 52.8804 19.793 51.9681C16.9338 50.8618 16.6772 50.6469 15.8252 50.5086V39.1361C17.0909 38.4436 17.4799 37.5526 18.39 36.4929C19.0256 35.6859 19.9857 35.1259 21.0999 34.8944C21.1713 35.2318 21.2468 35.5668 21.3259 35.8969C21.6222 37.1337 22.712 37.9974 23.9762 37.9974H26.8425C26.8436 37.9974 26.8447 37.9976 26.846 37.9976C26.847 37.9976 26.8483 37.9974 26.8494 37.9974H31.8362C32.4254 37.9974 32.9053 38.4738 32.9108 39.0619V39.0746V39.087C32.9055 39.6351 32.4841 40.1417 31.8164 40.1523C31.8108 40.1523 31.805 40.1518 31.7994 40.152H23.6731C23.6536 40.151 23.6339 40.1503 23.6141 40.1503C23.0478 40.1503 22.5887 40.611 22.5887 41.1774C22.5887 41.7439 23.0478 42.2028 23.6141 42.2028H31.7989C32.3664 42.2363 32.8094 42.7035 32.8094 43.2725C32.8094 43.8652 32.3273 44.3473 31.7346 44.3473C28.6232 44.3473 26.224 44.3473 23.6142 44.3473C23.0479 44.3473 22.5888 44.8062 22.5888 45.3727C22.5888 45.9391 23.0479 46.398 23.6142 46.398H30.7474C31.34 46.398 31.8221 46.8801 31.8221 47.4727C31.8221 48.0653 31.34 48.5474 30.7474 48.5474C30.0757 48.5474 23.7979 48.5474 23.6432 48.5474C23.6336 48.5471 23.6239 48.547 23.6143 48.547C23.048 48.547 22.5889 49.0064 22.5889 49.5728C22.5889 50.1391 23.048 50.5982 23.6143 50.5982L29.8546 50.5983C30.4649 50.5995 30.9553 51.1075 30.9258 51.7268C30.8987 52.2898 30.3907 52.7477 29.7929 52.7478ZM67.9492 26.8901C67.9492 33.0501 66.3726 39.155 63.3899 44.5447C60.4073 49.9344 56.0718 54.5124 50.8523 57.784L46.3482 60.6071C45.6028 61.0744 44.6555 61.0748 43.9094 60.6072L39.4051 57.784C37.0271 56.2936 34.8281 54.5264 32.8541 52.5311C32.9193 52.3048 32.9625 52.0691 32.9741 51.8243C33.0045 51.1868 32.846 50.5733 32.5216 50.0445C32.6598 49.9488 32.7893 49.8416 32.9101 49.7255C35.139 52.2604 37.7032 54.4438 40.5493 56.2276L43.7005 58.2028C44.5736 58.75 45.6831 58.7507 46.5567 58.2028L49.7082 56.2276C54.6906 53.1045 58.8291 48.7344 61.676 43.5898C64.073 39.2586 65.5423 34.3538 65.925 29.4057C65.9686 28.841 65.5462 28.348 64.9817 28.3043C64.4145 28.2589 63.9239 28.683 63.8803 29.2475C63.5201 33.9045 62.1373 38.5207 59.8817 42.5967C57.2026 47.4382 53.308 51.5508 48.6191 54.4899L45.4675 56.4651C45.2642 56.5928 44.9932 56.5928 44.7896 56.4651L41.6384 54.4899C38.7081 52.6531 36.0957 50.3645 33.8652 47.6852C33.9091 47.0354 33.7527 46.417 33.4415 45.8896C34.2952 45.331 34.8601 44.3664 34.8601 43.2722C34.8601 42.4925 34.5752 41.778 34.1013 41.2299C34.6551 40.6482 34.9598 39.8894 34.9617 39.0837C34.9617 39.0798 34.9617 39.0758 34.9617 39.0718C34.9617 37.3485 33.5597 35.9463 31.8362 35.9463H27.6061C26.7265 32.9448 26.2801 29.8507 26.2801 26.7375V20.7056C26.2801 20.4712 26.4074 20.2571 26.6122 20.1467C29.5262 18.5751 31.897 16.2041 33.4685 13.2902C33.5791 13.0853 33.7932 12.958 34.0275 12.958H56.2297C56.464 12.958 56.6781 13.0853 56.7887 13.2902C58.3603 16.2044 60.7312 18.5752 63.645 20.1465C63.85 20.257 63.9773 20.4711 63.9773 20.7054V24.5661C63.9773 25.1325 64.4364 25.5915 65.0027 25.5915C65.5689 25.5915 66.028 25.1325 66.028 24.5661V20.7054C66.028 19.7163 65.488 18.8104 64.6185 18.3414C62.058 16.9607 59.9748 14.8775 58.5938 12.3169C58.125 11.4475 57.2191 10.9072 56.2297 10.9072H34.0275C33.0382 10.9072 32.1323 11.4473 31.6634 12.3169C30.2825 14.8774 28.1992 16.9607 25.6386 18.3417C24.7693 18.8107 24.2292 19.7164 24.2292 20.7056V26.7375C24.2292 29.8473 24.6477 32.9385 25.4737 35.9463H23.9761C23.6642 35.9463 23.3946 35.7295 23.3201 35.419C23.1753 34.8145 23.0431 34.1927 22.9273 33.571C22.9251 33.5595 22.9219 33.5485 22.9194 33.5372C22.9175 33.5287 22.9168 33.52 22.9147 33.5116C22.5121 31.3304 22.308 29.103 22.308 26.8898V18.7829C22.308 18.1328 22.7094 17.5498 23.3066 17.3325C26.7038 16.0956 29.3616 13.4377 30.5985 10.0406C30.8159 9.44323 31.3988 9.04196 32.0491 9.04196H58.2081C58.8582 9.04196 59.4413 9.44323 59.6587 10.0406C60.8956 13.4377 63.5534 16.0956 66.9505 17.3323C67.5478 17.55 67.9491 18.1328 67.9491 18.7829V26.8901H67.9492Z" fill="#150C19"/>
<path d="M57.3892 23.293C56.741 22.758 55.9217 22.4634 55.0821 22.4634C53.996 22.4634 52.9766 22.9434 52.2854 23.7804L44.2228 33.5451L40.3627 29.7877C38.9382 28.4009 36.6443 28.4097 35.2359 29.8567C33.8415 31.2893 33.8724 33.589 35.3049 34.9834L40.8006 40.3332C42.9495 42.4245 46.4402 42.2484 48.3609 39.9218L57.8768 28.3974C59.1495 26.8556 58.9309 24.5658 57.3892 23.293ZM56.2952 27.0914L46.7793 38.616C45.6227 40.0174 43.5213 40.1194 42.231 38.8635L36.7353 33.5138C36.1131 32.9081 36.0997 31.9093 36.7052 31.2871C37.3171 30.6586 38.3134 30.6549 38.9321 31.257L43.5895 35.7907C44.0092 36.1997 44.7072 36.1793 45.0955 35.7088L53.8665 25.0861C54.1668 24.7227 54.6099 24.514 55.082 24.514C55.4463 24.514 55.8021 24.6421 56.0834 24.8744C56.7531 25.4273 56.8481 26.4219 56.2952 27.0914Z" fill="#150C19"/>
</g>
<defs>
<clipPath id="clip0_251_906">
<rect width="70" height="70" fill="white"/>
</clipPath>
</defs>
</svg>
