<svg viewBox="0 0 678 618" fill="none" xmlns="http://www.w3.org/2000/svg">
<path d="M585.593 407.098C585.593 407.098 553.049 384.33 547.687 375.541L545.55 396.118C545.55 396.118 516.083 366.879 516.718 354.305L511.072 369.949L479.411 317.285C482.541 315.59 484.776 312.955 487.684 311.056C495.595 305.907 502.636 299.983 508.57 293.102C510.765 290.595 512.809 287.958 514.68 285.181C514.68 285.181 557.007 309.413 568.338 331.591L548.542 327.452C549.362 328.122 575.684 349.504 585.927 365.523L563.949 361.792C563.948 361.786 585.304 379.898 585.593 407.098Z" fill="#EF9713"/>
<path d="M480.938 261.708L506.245 277.433C497.056 292.877 484.981 303.195 470.19 308.686L449.247 284.828L480.938 261.708Z" fill="white"/>
<path d="M518.31 470.342C519.781 443.182 499.633 423.736 499.633 423.736L521.319 428.876C511.989 411.962 486.44 388.462 486.44 388.462L503.885 395.254C494.555 378.341 455.393 344.108 455.393 344.108C444.101 356.494 431.389 366.016 417.401 372.974L459.124 443.611L458.076 412.2C456.637 424.704 484.558 461.874 484.558 461.874L482.517 436.401C487.301 445.525 518.31 470.342 518.31 470.342Z" fill="#EF9713"/>
<path d="M330.884 198.884L375.067 177.989C418.349 186.873 501.654 260.792 501.654 260.792C491.261 281.705 411.865 350.99 392.695 351.079L330.884 198.884Z" fill="#379FFF"/>
<path d="M520.468 372.025C502.264 384.785 463.098 326.901 463.098 326.901C463.098 326.901 436.052 356.89 401.421 374.263C401.421 374.263 432.313 435.799 415.193 446.286C400.158 455.495 373.814 388.252 327.657 322.003C325.598 319.045 323.497 316.098 321.364 313.152C316.858 306.946 312.172 300.774 307.303 294.718C295.55 280.087 284.694 266.779 274.826 254.854C271.601 250.946 268.475 247.189 265.469 243.585C231.563 202.93 211.81 181.313 211.81 181.313L245.194 180.122L296.438 142.165L297.331 114.48C297.331 114.48 322.688 133.181 356.975 163.578C359.347 165.68 361.758 167.846 364.217 170.068C365.714 171.411 367.223 172.786 368.742 174.186C371.002 176.243 373.3 178.357 375.62 180.502C388.756 192.684 402.655 206.217 416.596 220.759C417.338 221.531 418.075 222.304 418.818 223.082C420.016 224.329 421.208 225.592 422.406 226.851C425.914 230.557 429.412 234.296 432.904 238.056L432.915 238.056C434.189 239.424 435.464 240.808 436.728 242.187C489.449 299.508 536.637 360.695 520.468 372.025Z" fill="#FF41B3"/>
<path d="M275.13 255.226C275.13 255.226 189.324 246.674 185.922 266.128C182.521 285.581 264.787 270.889 313.721 302.892C362.656 334.895 275.13 255.226 275.13 255.226Z" fill="#FF41B3"/>
<path d="M260.202 215.878C257.055 217.77 253.873 219.206 250.872 220.134C243.783 222.355 237.7 221.843 235.577 218.307C232.862 213.788 237.511 205.873 246.141 199.696C247.111 199.003 248.151 198.319 249.222 197.672C259.799 191.304 270.825 190.209 273.848 195.243C276.886 200.271 270.769 209.51 260.202 215.878Z" fill="white"/>
<path d="M330.277 163.756C328.606 165.61 326.836 167.269 325.061 168.69C317.847 174.442 310.255 176.455 306.508 173.066C301.817 168.84 304.862 157.826 313.299 148.453C313.528 148.205 313.752 147.956 313.981 147.712C322.306 138.873 332.51 135.031 337.078 139.148C341.759 143.37 338.714 154.384 330.277 163.756Z" fill="white"/>
<path d="M282.244 220.363C285.7 220.298 288.449 217.444 288.384 213.988C288.319 210.532 285.465 207.783 282.009 207.848C278.553 207.913 275.804 210.767 275.869 214.223C275.934 217.679 278.788 220.428 282.244 220.363Z" fill="#A310F9"/>
<path d="M324.448 189.452C327.904 189.387 330.653 186.533 330.588 183.077C330.523 179.621 327.669 176.871 324.213 176.936C320.757 177.001 318.008 179.856 318.073 183.312C318.138 186.768 320.992 189.517 324.448 189.452Z" fill="#A310F9"/>
<path d="M238.108 126.169C240.531 126.123 242.459 124.122 242.413 121.699C242.368 119.275 240.366 117.348 237.943 117.393C235.519 117.439 233.592 119.44 233.637 121.864C233.683 124.287 235.684 126.214 238.108 126.169Z" fill="#F7FFF4"/>
<path d="M312.11 149.377C313.79 147.533 315.569 145.883 317.351 144.473C324.997 150.005 327.575 158.709 328.329 165.508C319.959 174.301 309.733 178.089 305.184 173.948C300.527 169.698 303.625 158.703 312.11 149.377Z" fill="#09070F"/>
<path d="M248.2 198.412C251.376 196.568 254.58 195.181 257.594 194.299C261.713 202.233 262.412 209.419 262.011 214.807C261.03 215.485 259.981 216.153 258.899 216.784C248.226 222.988 237.184 223.913 234.239 218.834C231.278 213.76 237.537 204.616 248.2 198.412Z" fill="#09070F"/>
<path d="M322.189 198.189C321.856 197.68 321.168 197.539 320.658 197.872C319.5 203.472 312.293 207.533 309.63 206.621C306.528 205.558 305.382 202.27 305.382 202.27C304.177 198.355 304.419 189.747 306.1 183.382L289.638 194.919C293.948 198.898 298.384 202.279 303.301 203.472L304.66 218.686C304.713 219.27 305.205 219.702 305.779 219.691C305.805 219.69 305.832 219.69 305.858 219.684C306.468 219.63 306.915 219.09 306.861 218.485L305.818 206.815C306.613 207.565 307.62 208.258 308.888 208.697C312.236 209.856 320.658 205.689 321.878 199.715C322.382 199.386 322.523 198.698 322.189 198.189Z" fill="#09070F"/>
<path d="M339.884 255.911C359.138 231.159 388.859 258.678 394.358 268.798C408.78 286.954 428.148 326.788 408.692 339.365C389.242 351.936 320.636 280.657 339.884 255.911Z" fill="#F7FFF4"/>
<path d="M442.009 241.557C440.212 241.787 438.457 241.99 436.733 242.187C319.663 255.17 355.038 185.518 364.222 170.063C365.719 171.406 367.228 172.78 368.747 174.181C371.007 176.237 373.305 178.352 375.625 180.497C336.851 230.494 389.275 230.789 422.412 226.851C427.485 226.245 432.106 225.542 435.877 224.908C440.582 229.825 437.339 236.512 442.009 241.557Z" fill="#379FFF"/>
<path d="M363.112 202.285C363.112 202.285 340.757 99.1312 374.426 85.0705C408.701 70.7541 374.177 164.812 414.839 218.916L363.112 202.285Z" fill="#FF41B3"/>
<path d="M327.658 322.003C325.599 319.045 323.498 316.098 321.365 313.152C319.86 276.644 289.578 260.544 274.826 254.849C271.602 250.94 268.476 247.184 265.469 243.579L265.295 242.499C327.717 258.754 332.703 288.496 327.658 322.003Z" fill="#379FFF"/>
<path d="M323.769 151.604C323.804 152.093 323.803 152.571 323.763 153.018C323.606 154.828 322.861 156.186 321.869 156.264C320.627 156.361 319.47 154.427 319.274 151.949C319.268 151.886 319.266 151.817 319.26 151.753C319.13 149.364 319.969 147.382 321.174 147.29C322.421 147.192 323.579 149.126 323.769 151.604Z" fill="white"/>
<path d="M255.349 204.752C255.316 205.242 255.24 205.716 255.137 206.154C254.713 207.921 253.774 209.155 252.784 209.083C251.544 208.995 250.682 206.912 250.858 204.433C250.862 204.369 250.866 204.3 250.876 204.236C251.097 201.851 252.221 200.017 253.429 200.106C254.663 200.195 255.526 202.272 255.349 204.752Z" fill="white"/>
<path d="M368.365 33.7333L378.964 27.4498C377.428 40.4015 375.814 54.6193 375.161 62.2673L375.029 62.3389L367.138 66.8285L366.661 66.0192L360.189 55.2904L352.757 42.959L368.365 33.7333Z" fill="#25182E"/>
<path d="M416.937 38.4896L403.183 46.3098L403.664 19.604L416.937 38.4896Z" fill="#25182E"/>
<path d="M343.558 40.0705L372.388 91.6978L424.378 63.2818L428.585 42.1294L402.575 5.2245L343.558 40.0705Z" fill="white"/>
<path d="M403.663 19.604L403.183 46.3089L394.266 51.3863L389.834 53.9086L375.161 62.2666C375.814 54.6239 377.428 40.4008 378.964 27.4491L383 25.0671L383.032 25.0558L396.365 17.1748L400.311 14.8423L402.97 18.6128L403.663 19.604Z" fill="#A310F9"/>
<path d="M396.366 17.1699L389.835 53.909L375.03 62.3385L367.139 66.8281L366.662 66.0241L383.002 25.0675L383.033 25.0563L396.366 17.1699Z" fill="#FD087C"/>
<path d="M383.033 25.0566L375.03 62.3387L367.139 66.8284L360.189 55.2956L352.757 42.9589L368.366 33.7332L383.033 25.0566Z" fill="#A413EF"/>
<path d="M368.365 33.7325C365.835 39.604 362.79 47.2122 360.189 55.2957L352.757 42.9638L368.365 33.7325Z" fill="#EFB913"/>
<path d="M416.937 38.4889L403.184 46.3088L394.267 51.3863L402.971 18.6074L403.665 19.604L416.937 38.4889Z" fill="#07D4F3"/>
<path d="M286.845 266.111C237.652 267.036 196.876 227.764 195.951 178.572C195.026 129.38 234.298 88.6032 283.49 87.6783C332.682 86.7534 373.459 126.025 374.384 175.217C375.309 224.41 336.037 265.186 286.845 266.111ZM283.56 91.3806C236.407 92.2671 198.772 131.35 199.658 178.497C200.545 225.644 239.622 263.29 286.775 262.404C333.928 261.517 371.563 222.434 370.676 175.287C369.79 128.14 330.707 90.4942 283.56 91.3806Z" fill="white"/>
<path d="M212.681 158.124C212.681 158.124 215.601 137.059 227.64 130.196C239.674 123.338 214.118 175.792 212.681 158.124Z" fill="#F7FFF4"/>
<path d="M205.095 352.419L204.126 364.364L195.69 359.752L201.776 366.197L191.684 368.773L203.035 369.752L199.592 376.975L206.657 372.07L211.021 382.128L210.189 369.617L221.562 371.79L210.73 366.626L219.56 360.495L208.885 363.679L205.095 352.419Z" fill="url(#paint0_linear_848_983)"/>
<path d="M653.78 472.081L652.525 487.571L641.587 481.591L649.476 489.949L636.392 493.289L651.111 494.558L646.647 503.922L655.807 497.564L661.464 510.604L660.388 494.384L675.135 497.201L661.086 490.504L672.537 482.555L658.694 486.681L653.78 472.081Z" fill="url(#paint1_linear_848_983)"/>
<path d="M152.78 13.0815L151.525 28.5713L140.587 22.591L148.476 30.9487L135.392 34.2889L150.111 35.558L145.647 44.9222L154.807 38.564L160.464 51.6038L159.388 35.3836L174.135 38.2006L160.086 31.5046L171.537 23.5549L157.694 27.6811L152.78 13.0815Z" fill="url(#paint2_linear_848_983)"/>
<path d="M506.458 587.208L507.125 595.425L512.927 592.253L508.741 596.686L515.682 598.458L507.875 599.131L510.243 604.099L505.384 600.725L502.382 607.644L502.954 599.038L495.131 600.533L502.582 596.981L496.508 592.764L503.851 594.954L506.458 587.208Z" fill="url(#paint3_linear_848_983)"/>
<path d="M10.2476 85.3793L9.67009 92.4946L4.64545 89.7475L8.27046 93.5867L2.25937 95.121L9.02035 95.704L6.96979 100.007L11.1778 97.0848L13.7775 103.076L13.2818 95.6239L20.0561 96.9179L13.6039 93.842L18.8639 90.1903L12.5052 92.0869L10.2476 85.3793Z" fill="url(#paint4_linear_848_983)"/>
<defs>
<linearGradient id="paint0_linear_848_983" x1="195.139" y1="371.94" x2="222.84" y2="354.775" gradientUnits="userSpaceOnUse">
<stop stop-color="#FF41B3"/>
<stop offset="1" stop-color="#379FFF"/>
</linearGradient>
<linearGradient id="paint1_linear_848_983" x1="640.873" y1="497.394" x2="676.791" y2="475.135" gradientUnits="userSpaceOnUse">
<stop stop-color="#FF41B3"/>
<stop offset="1" stop-color="#379FFF"/>
</linearGradient>
<linearGradient id="paint2_linear_848_983" x1="139.873" y1="38.3938" x2="175.791" y2="16.1348" gradientUnits="userSpaceOnUse">
<stop stop-color="#FF41B3"/>
<stop offset="1" stop-color="#379FFF"/>
</linearGradient>
<linearGradient id="paint3_linear_848_983" x1="513.306" y1="600.636" x2="494.252" y2="588.829" gradientUnits="userSpaceOnUse">
<stop stop-color="#FF41B3"/>
<stop offset="1" stop-color="#379FFF"/>
</linearGradient>
<linearGradient id="paint4_linear_848_983" x1="4.31735" y1="97.0074" x2="20.8173" y2="86.7829" gradientUnits="userSpaceOnUse">
<stop stop-color="#FF41B3"/>
<stop offset="1" stop-color="#379FFF"/>
</linearGradient>
</defs>
</svg>
