<svg width="30" height="30" viewBox="0 0 30 30" fill="none" xmlns="http://www.w3.org/2000/svg">
<path fill-rule="evenodd" clip-rule="evenodd" d="M17.0835 20C17.0835 21 16.146 21.9998 15.0002 21.9998C13.8543 21.9998 12.9168 21 12.9168 20H17.0835ZM20.5002 14V17.9765L22 19H8L9.5 17.9765V9.50001L13.5 7V6.00001L15 6H15.3264L16.5 6.00001V7.00001C17.3095 7.50504 17.7888 7.80243 18.0736 7.97755C17.4118 8.61431 17 9.50906 17 10.5C17 12.433 18.567 14 20.5 14C20.5001 14 20.5001 14 20.5002 14Z" fill="#FF41B3"/>
<circle cx="20.5" cy="10.5" r="2.5" fill="#379FFF"/>
</svg>
