<svg width="15" height="17" viewBox="0 0 15 17" fill="none" xmlns="http://www.w3.org/2000/svg">
<path d="M7.50017 16.8428C8.646 16.8428 9.5835 15.843 9.5835 14.843H5.41683C5.41683 15.843 6.35433 16.8428 7.50017 16.8428ZM13.0002 12.8195V4.29971C9.06267 1.84302 12.9375 4.29971 9 1.84302V0.843023C7.4375 0.843014 8.11019 0.843019 7.5 0.843019C6.88981 0.843019 7.04167 0.843017 6 0.843023V1.84302C2 4.34302 6 1.84302 2 4.34302C2 9.76026 2 12.8195 2 12.8195L0.5 13.843H14.5L13.0002 12.8195ZM12.0002 12.8195H3.00017C3.00017 12.8195 3 7.52997 3 4.84302C6 2.84302 6 2.84302 6 2.84302C6 2.84302 5.875 2.84302 9 2.84302C12 4.84302 9 2.84302 12 4.84302C12 7.52997 12.0002 12.8195 12.0002 12.8195Z" fill="#FF41B3"/>
</svg>
